<svg width="1246" height="715" fill="none" xmlns="http://www.w3.org/2000/svg"><path d="M166.045 153L104 230.411h35.795L120.328 287 183 208.695h-35.669L166.045 153zM1212.66 408.205l-59.09 79.686 35.77-1.344-17.33 57.28 59.68-80.603-35.64 1.339 16.61-56.358zM188.766 0L144 54.88h25.827L155.781 95 201 39.485h-25.736L188.766 0zM1229.62 254.46l-42.68 56.523 25.81-.97-12.53 40.619 43.11-57.174-25.72.966 12.01-39.964zM37.059 391L8 427.395h16.765L15.647 454 45 417.185H28.294L37.06 391zM1092.7 650.882l-27.67 37.46 16.76-.63-8.12 26.929 27.95-37.891-16.69.627 7.77-26.495zM29.059 240L0 276.395h16.765L7.647 303 37 266.185H20.294L29.06 240zM1079.04 500.289l-27.67 37.46 16.75-.629-8.11 26.929 27.95-37.892-16.7.628 7.78-26.496z" fill="#1C1C20"/></svg>