<svg width="330" height="222" fill="none" xmlns="http://www.w3.org/2000/svg"><path d="M329 210.675V11.085c0-6.273-5.709-10.997-11.872-9.823l-308 58.69A10 10 0 001 69.773v131.041a10 10 0 009.68 9.995l308 9.86c5.645.18 10.32-4.347 10.32-9.995z" stroke="#E1E1E1"/><path d="M329 210.675V11.085c0-6.273-5.709-10.997-11.872-9.823l-308 58.69A10 10 0 001 69.773v131.041a10 10 0 009.68 9.995l308 9.86c5.645.18 10.32-4.347 10.32-9.995z" stroke="url(#paint0_linear_32_65)"/><defs><linearGradient id="paint0_linear_32_65" x1="165" y1="-1" x2="165" y2="229.43" gradientUnits="userSpaceOnUse"><stop stop-color="#4DEF7A"/><stop offset=".471" stop-color="#4BC3FA"/><stop offset="1" stop-color="#4DEF7A"/></linearGradient></defs></svg>