<svg width="330" height="222" fill="none" xmlns="http://www.w3.org/2000/svg"><path d="M1 210.675V11.085C1 4.812 6.71.088 12.872 1.262l308 58.69A10 10 0 01329 69.773v131.041a10 10 0 01-9.68 9.995l-308 9.86C5.675 220.85 1 216.323 1 210.675z" stroke="#E1E1E1"/><path d="M1 210.675V11.085C1 4.812 6.71.088 12.872 1.262l308 58.69A10 10 0 01329 69.773v131.041a10 10 0 01-9.68 9.995l-308 9.86C5.675 220.85 1 216.323 1 210.675z" stroke="url(#paint0_linear_32_64)"/><defs><linearGradient id="paint0_linear_32_64" x1="165" y1="-1" x2="165" y2="229.43" gradientUnits="userSpaceOnUse"><stop stop-color="#4DEF7A"/><stop offset=".471" stop-color="#4BC3FA"/><stop offset="1" stop-color="#4DEF7A"/></linearGradient></defs></svg>