<svg width="279" height="221" fill="none" xmlns="http://www.w3.org/2000/svg"><path d="M1 209.614V10.508C1 4.097 6.947-.658 13.201.753l257 57.987A10 10 0 01278 68.495v131.377c0 5.375-4.25 9.789-9.621 9.993l-257 9.742C5.71 219.821 1 215.285 1 209.614z" stroke="#E1E1E1"/><path d="M1 209.614V10.508C1 4.097 6.947-.658 13.201.753l257 57.987A10 10 0 01278 68.495v131.377c0 5.375-4.25 9.789-9.621 9.993l-257 9.742C5.71 219.821 1 215.285 1 209.614z" stroke="url(#paint0_linear_41_192)"/><defs><linearGradient id="paint0_linear_41_192" x1="139.5" y1="-2" x2="139.5" y2="228.43" gradientUnits="userSpaceOnUse"><stop stop-color="#4DEF7A"/><stop offset=".471" stop-color="#4BC3FA"/><stop offset="1" stop-color="#4DEF7A"/></linearGradient></defs></svg>