<svg width="34" height="34" fill="none" xmlns="http://www.w3.org/2000/svg"><path d="M28.335 21.048V7.97c-.008-1.62-1.946-3.627-3.896-1.515.77 1.695.609 3.58-.494 5.323a2.235 2.235 0 01-3.522.343l-4.415-4.656c-.938-.99-.805-2.595.27-3.43 1.424-1.105 3.035-1.343 4.598-.818 1.1-1.23 2.85-2.533 5.328-2.533 2.376 0 4.185 1.205 5.37 2.777V.812c0-1.083-7.287-1.083-7.287 0 0-1.083-7.288-1.083-7.288 0C17-.27 9.711-.27 9.711.812c0-1.083-7.287-1.083-7.287 0v20.236h25.911z" fill="#C65584"/><path d="M32.916 23.692l-1.179 4.854a.808.808 0 01-.78.597H3.043a.808.808 0 01-.78-.597l-1.18-4.854a.809.809 0 01.781-1.022h30.27a.808.808 0 01.782 1.022zm.279-22.072h-1.62v1.62h1.62c1.073 0 1.073-1.62 0-1.62zm-11.597 9.387c.283.3.756.258.978-.095.578-.915 1.299-2.707-.075-4.57 2.834-4.573 7.539-1.868 7.539 1.626v13.08h1.535V7.97c0-5.181-6.559-8.268-10.219-2.73-1.344-.877-2.784-.936-4.084.073a.711.711 0 00-.087 1.038l4.413 4.656zM2.425 1.62H.805c-1.073 0-1.073 1.62 0 1.62h1.62V1.62zm4.858 29.142a1.62 1.62 0 100 3.24 1.62 1.62 0 000-3.24zm19.434 0a1.62 1.62 0 100 3.24 1.62 1.62 0 000-3.24z" fill="#FF6AA7"/></svg>