<svg width="188" height="222" fill="none" xmlns="http://www.w3.org/2000/svg"><path d="M1 10.58v200.287c0 5.946 5.157 10.578 11.07 9.943l165.999-17.85a10 10 0 008.931-9.942V19.951a10 10 0 00-9.436-9.984l-166-9.37C5.828.272 1 4.836 1 10.58z" stroke="#E1E1E1"/><path d="M1 10.58v200.287c0 5.946 5.157 10.578 11.07 9.943l165.999-17.85a10 10 0 008.931-9.942V19.951a10 10 0 00-9.436-9.984l-166-9.37C5.828.272 1 4.836 1 10.58z" stroke="url(#paint0_linear_38_132)"/><defs><linearGradient id="paint0_linear_38_132" x1="-124.5" y1="120" x2="419.5" y2="111" gradientUnits="userSpaceOnUse"><stop stop-color="#4BC3FA"/><stop offset=".505" stop-color="#EF4DB1"/><stop offset="1" stop-color="#4BC3FA"/></linearGradient></defs></svg>