<svg width="188" height="222" fill="none" xmlns="http://www.w3.org/2000/svg"><path d="M187 211.42V11.133c0-5.946-5.157-10.578-11.069-9.943l-166 17.85A10 10 0 001 28.982V202.05a10 10 0 009.436 9.984l166 9.371c5.736.323 10.564-4.24 10.564-9.984z" stroke="#E1E1E1"/><path d="M187 211.42V11.133c0-5.946-5.157-10.578-11.069-9.943l-166 17.85A10 10 0 001 28.982V202.05a10 10 0 009.436 9.984l166 9.371c5.736.323 10.564-4.24 10.564-9.984z" stroke="url(#paint0_linear_38_131)"/><defs><linearGradient id="paint0_linear_38_131" x1="812" y1="128.5" x2="1" y2="125" gradientUnits="userSpaceOnUse"><stop stop-color="#4BC3FA"/><stop offset=".505" stop-color="#EF4DB1"/><stop offset="1" stop-color="#4BC3FA"/></linearGradient></defs></svg>