<svg width="13" height="18" fill="none" xmlns="http://www.w3.org/2000/svg"><path d="M3.712 17.2L4 15.904c-1.04 0-1.832-.184-2.376-.552-.528-.384-.792-.864-.792-1.44 0-.832.464-1.616 1.392-2.352.944-.736 2.128-1.128 3.552-1.176.256-.64.408-1.072.456-1.296-.736-.224-1.304-.504-1.704-.84-.384-.352-.576-.832-.576-1.44 0-1.12.624-2.24 1.872-3.36C7.072 2.328 8.32 1.632 9.568 1.36c.288-.576.528-1.024.72-1.344l.696.24-.408.912c.656 0 1.184.136 1.584.408.416.256.624.656.624 1.2 0 .896-.536 1.736-1.608 2.52-1.056.784-2.088 1.176-3.096 1.176l-.24.648c-.096.272-.168.464-.216.576.992.176 1.72.504 2.184.984.48.48.72 1.056.72 1.728 0 1.216-.616 2.44-1.848 3.672-1.216 1.232-2.472 1.848-3.768 1.848l-.384 1.392-.816-.12zm.552-2.16l1.272-3.936c-.816.112-1.472.392-1.968.84-.496.432-.744.912-.744 1.44 0 .512.128.92.384 1.224.256.288.608.432 1.056.432zm2.16-4.056L5.128 15.04c.896 0 1.744-.424 2.544-1.272.816-.848 1.224-1.688 1.224-2.52 0-.992-.624-1.648-1.872-1.968a9.945 9.945 0 00-.36 1.032c.32 0 .536.008.648.024l-.12.648h-.768zm.552-5.328l.6.072 1.44-3.288c-.96.112-1.752.48-2.376 1.104-.624.624-.936 1.344-.936 2.16 0 .816.384 1.384 1.152 1.704l.36-.936a1.05 1.05 0 01-.504-.168l.264-.648zm2.856-3.192L8.44 5.704c.72-.048 1.32-.28 1.8-.696.496-.432.744-.912.744-1.44 0-.704-.384-1.072-1.152-1.104z" fill="#4DEF7A"/></svg>