<svg width="36" height="37" fill="none" xmlns="http://www.w3.org/2000/svg"><rect x=".55" y="1.492" width="34.016" height="34.016" rx="2.5" stroke="#fff"/><path d="M14.16 13.878a.738.738 0 00-.482.095h-.013a3.7 3.7 0 00-.899.74c-.215.248-.332.5-.362.742a.99.99 0 00.037.426l.015.01c.242.711.559 1.396.945 2.04a11.96 11.96 0 001.823 2.492l.021.031.034.025.021.024.025.022c.751.714 1.59 1.33 2.498 1.832 1.037.564 1.667.831 2.044.942v.006c.111.033.212.049.313.049.322-.024.627-.155.866-.372.29-.258.538-.563.73-.902v-.006c.181-.34.12-.663-.141-.88a10.89 10.89 0 00-1.688-1.212c-.402-.218-.81-.087-.976.134l-.353.445c-.18.221-.51.19-.51.19l-.009.007c-2.452-.627-3.106-3.11-3.106-3.11s-.03-.337.197-.509l.441-.356c.212-.172.36-.58.132-.982-.346-.6-.751-1.166-1.209-1.688a.672.672 0 00-.396-.236h.002zm4.142-1.079a.449.449 0 000 .898c1.136 0 2.08.37 2.824 1.081.384.39.683.85.879 1.354.197.506.286 1.046.263 1.586a.449.449 0 10.897.038 4.811 4.811 0 00-.323-1.95 4.886 4.886 0 00-1.081-1.664l-.01-.008c-.924-.885-2.097-1.335-3.449-1.335z" fill="#E1E1E1"/><path d="M18.27 14.275a.449.449 0 000 .898h.015c.82.058 1.415.331 1.833.78.428.46.65 1.034.633 1.744a.449.449 0 00.898.02c.021-.931-.278-1.734-.873-2.376-.608-.652-1.442-.997-2.446-1.065h-.06z" fill="#E1E1E1"/><path d="M18.254 15.779a.449.449 0 10-.047.897c.375.02.615.132.766.284.151.153.264.398.285.781a.449.449 0 10.896-.048c-.029-.539-.197-1.015-.543-1.365-.347-.35-.82-.52-1.357-.549z" fill="#E1E1E1"/><path fill-rule="evenodd" clip-rule="evenodd" d="M13.352 10.449a19.888 19.888 0 018.677 0l.304.068a4.628 4.628 0 013.477 3.378 17.703 17.703 0 010 8.71 4.629 4.629 0 01-3.477 3.377l-.304.069a19.89 19.89 0 01-5.457.447l-2.382 2.131a.674.674 0 01-1.113-.39l-.394-2.354a4.629 4.629 0 01-3.112-3.28 17.703 17.703 0 010-8.71 4.628 4.628 0 013.477-3.378l.304-.068zm8.383 1.314a18.544 18.544 0 00-8.09 0l-.304.068a3.282 3.282 0 00-2.464 2.395 16.36 16.36 0 000 8.047 3.282 3.282 0 002.464 2.395l.08.018c.268.06.473.276.518.546l.264 1.578 1.681-1.504a.673.673 0 01.497-.17c1.79.127 3.594-.006 5.354-.4l.305-.068a3.282 3.282 0 002.464-2.395c.67-2.64.67-5.406 0-8.047a3.282 3.282 0 00-2.465-2.395l-.304-.068z" fill="#E1E1E1"/></svg>