<svg width="36" height="37" fill="none" xmlns="http://www.w3.org/2000/svg"><rect x=".517" y="1.492" width="34.016" height="34.016" rx="2.5" stroke="#fff"/><path d="M24.79 11.768c-.22.01-.428.07-.612.137h-.003c-.187.07-1.076.42-2.427.952l-4.846 1.913a20245.37 20245.37 0 00-6.893 2.723l.041-.015s-.236.072-.482.231a1.3 1.3 0 00-.384.349.976.976 0 00-.182.682c.059.445.366.712.587.858.223.15.435.219.435.219h.006l3.204 1.012c.144.432.977 3 1.177 3.59.118.354.233.575.377.743a.753.753 0 00.41.281l-.034-.007c.01.003.018.01.026.012.026.007.044.01.077.014.508.145.915-.15.915-.15l.023-.018 1.892-1.615 3.171 2.281.072.029c.661.271 1.33.12 1.684-.147.357-.269.495-.613.495-.613l.023-.055 2.45-11.77c.07-.29.088-.562.011-.826a1.122 1.122 0 00-.513-.644 1.294 1.294 0 00-.7-.166zm-.066 1.262c-.003.038.005.033-.013.108v.007l-2.428 11.647c-.01.017-.028.053-.077.089-.05.038-.092.062-.305-.017l-3.878-2.788-2.343 2.002.492-2.946 6.337-5.538c.261-.228.174-.276.174-.276.018-.279-.395-.082-.395-.082l-7.99 4.641-.003-.012-3.83-1.209v-.002l-.01-.003.02-.007.021-.01.02-.007 6.897-2.723 4.842-1.913c1.349-.531 2.346-.92 2.402-.942.054-.02.028-.02.067-.02z" fill="#E1E1E1"/></svg>