<svg width="36" height="37" fill="none" xmlns="http://www.w3.org/2000/svg"><rect x=".533" y="1.492" width="34.016" height="34.016" rx="2.5" stroke="#fff"/><path d="M22.027 20.261c-.218-.112-1.306-.645-1.509-.717-.202-.076-.35-.113-.497.112-.148.222-.569.717-.701.868-.128.148-.259.166-.477.056-1.299-.65-2.15-1.158-3.006-2.627-.227-.391.226-.363.65-1.207.071-.148.035-.275-.021-.387-.056-.112-.497-1.198-.681-1.641-.179-.431-.363-.37-.497-.379-.129-.008-.275-.008-.423-.008a.818.818 0 00-.59.275c-.202.222-.773.757-.773 1.843 0 1.087.792 2.139.9 2.287.112.148 1.557 2.377 3.775 3.337 1.403.605 1.953.657 2.654.553.427-.064 1.307-.533 1.489-1.052.182-.517.182-.96.128-1.052-.054-.098-.202-.155-.42-.26z" fill="#E1E1E1"/><path d="M26.27 15.02a8.98 8.98 0 00-8.28-5.499h-.04a8.957 8.957 0 00-8.94 9.021 9.007 9.007 0 00.963 4.006v3.046c0 .51.413.922.922.922h3.048a9.006 9.006 0 004.006.962h.042c1.2 0 2.365-.232 3.461-.687a8.908 8.908 0 002.862-1.908 8.957 8.957 0 002.653-6.343 8.946 8.946 0 00-.697-3.52zm-3.028 8.78a7.416 7.416 0 01-5.253 2.156h-.034a7.48 7.48 0 01-3.469-.872l-.168-.09h-2.822v-2.822l-.09-.168a7.48 7.48 0 01-.872-3.47 7.41 7.41 0 012.156-5.286 7.4 7.4 0 015.267-2.202h.034a7.42 7.42 0 015.275 2.182 7.424 7.424 0 012.183 5.307 7.426 7.426 0 01-2.207 5.265z" fill="#E1E1E1"/></svg>