<svg width="238" height="286" fill="none" xmlns="http://www.w3.org/2000/svg"><mask id="a" fill="#fff"><ellipse rx="64.634" ry="64.728" transform="rotate(-9.571 768.878 -709.743) skewX(-.029)"/></mask><path d="M232.376 100.477c-.091-.542-.186-1.082-.285-1.62l-79.656 14.698c.024.129.047.259.068.389l79.873-13.467zm-.928-4.835a103.44 103.44 0 00-.746-3.209l-78.596 19.601c.062.249.121.501.176.755l79.166-17.147zm-1.59-6.39a107.44 107.44 0 00-.947-3.164L151.69 110.56c.077.241.15.485.219.732l77.949-22.04zm-1.993-6.3c-.366-1.04-.747-2.073-1.144-3.098l-75.533 29.277c.091.233.178.47.262.708l76.415-26.886zm-2.389-6.169a102.53 102.53 0 00-1.34-3.027L150.6 107.743c.105.227.207.456.305.688l74.571-31.648zm-2.774-6.01c-.495-.99-1.006-1.97-1.53-2.94l-71.245 38.565c.119.22.235.443.347.668l72.428-36.293zm-3.151-5.826a102.39 102.39 0 00-1.711-2.834l-68.67 42.985c.133.213.263.428.389.645l69.992-40.796zm-3.51-5.613a104.662 104.662 0 00-1.885-2.717l-65.826 47.228c.146.204.29.411.43.62l67.281-45.13zm-3.854-5.374a103.75 103.75 0 00-2.05-2.592l-62.729 51.274c.161.196.317.394.471.595l64.308-49.277zm-4.179-5.117c-.724-.83-1.46-1.65-2.208-2.456l-59.391 55.107c.173.186.343.375.51.567l61.089-53.218zm-4.49-4.84a105.425 105.425 0 00-2.353-2.31l-55.829 58.714c.185.176.367.355.546.536l57.636-56.94zm-4.779-4.545a99.967 99.967 0 00-2.492-2.157l-52.054 62.086c.196.164.389.331.58.501l53.966-60.43zm-5.05-4.236a107.78 107.78 0 00-2.622-1.997l-48.08 65.213c.206.152.41.307.611.465l50.091-63.68zm-5.305-3.91a104.567 104.567 0 00-2.742-1.83l-43.918 68.084c.215.139.428.281.639.426l46.021-66.68zm-5.54-3.574a103.677 103.677 0 00-2.852-1.655l-39.58 70.694c.222.124.443.252.662.384l41.77-69.423zm-5.756-3.221a101.47 101.47 0 00-2.952-1.475l-35.079 73.031c.229.11.456.224.682.34l37.349-71.897zm-5.951-2.857a104.648 104.648 0 00-3.043-1.289l-30.428 75.087c.235.095.468.194.699.296l32.772-74.094zm-6.125-2.481a103.788 103.788 0 00-3.122-1.096l-25.643 76.852c.239.08.476.163.713.25l28.052-76.006zm-6.278-2.093a104.119 104.119 0 00-3.187-.897l-20.742 78.315c.242.064.483.132.723.204l23.206-77.622zm-6.404-1.694c-1.075-.248-2.155-.48-3.241-.694l-15.745 79.469c.245.048.489.1.732.157l18.254-78.932zm-6.502-1.285c-1.09-.18-2.184-.343-3.283-.489l-10.676 80.306c.248.032.494.069.74.11l13.219-79.927zm-6.575-.872a103.34 103.34 0 00-3.304-.278l-5.567 80.817c.25.017.498.038.745.063l8.126-80.602zm-6.618-.452c-1.099-.04-2.202-.064-3.307-.07l-.445 81.006c.252.002.502.007.75.016l3.002-80.953zm-6.618-.034c-1.099.03-2.201.076-3.304.14l4.658 80.87c.254-.014.507-.025.758-.031l-2.112-80.979zm-6.592.383c-1.094.098-2.188.213-3.282.346l9.702 80.419a24.6 24.6 0 01.766-.081l-7.186-80.684zm-6.536.791c-.542.083-1.084.17-1.626.261l13.427 79.88c.129-.022.259-.043.387-.062l-12.188-80.079zm-1.626.261c-.543.092-1.083.188-1.623.287l14.663 79.661.387-.068-13.427-79.88zm-4.843.933c-1.077.234-2.149.484-3.213.75l19.586 78.593c.247-.062.497-.12.75-.175L106.42 15.117zm-6.4 1.599c-1.063.3-2.12.618-3.168.95l24.478 77.208c.24-.076.482-.149.726-.218l-22.036-77.94zm-6.308 2.003c-1.042.367-2.076.75-3.103 1.15l29.302 75.505c.232-.09.467-.177.703-.26L93.712 18.719zm-6.177 2.4c-1.019.434-2.03.883-3.03 1.347l34.028 73.495c.225-.105.453-.206.683-.304L87.536 21.12zm-6.015 2.79c-.991.497-1.972 1.01-2.943 1.537l38.62 71.186c.219-.119.44-.234.663-.346L81.52 23.908zm-5.831 3.165c-.956.559-1.9 1.132-2.835 1.719l43.051 68.595c.212-.133.425-.263.641-.389L75.689 27.074zm-5.615 3.527a104.91 104.91 0 00-2.717 1.892l47.302 65.733c.204-.146.409-.29.617-.43L70.074 30.602zM64.7 34.47c-.875.673-1.74 1.36-2.591 2.059l51.353 62.617a23.9 23.9 0 01.592-.47L64.7 34.47zm-5.114 4.196c-.83.726-1.648 1.465-2.454 2.215l55.188 59.264c.186-.173.374-.343.564-.51l-53.298-60.97zm-4.836 4.505a104.82 104.82 0 00-2.307 2.361l58.795 55.686c.175-.184.353-.366.533-.545l-57.02-57.502zm-4.539 4.793a105.74 105.74 0 00-2.153 2.5l62.163 51.898c.164-.196.33-.389.5-.58l-60.51-53.818zm-4.227 5.064c-.678.866-1.342 1.742-1.992 2.628l65.283 47.914c.152-.206.306-.41.464-.611L45.984 53.03zm-3.902 5.317c-.622.906-1.23 1.821-1.824 2.747l68.148 43.744c.138-.216.28-.429.425-.64l-66.749-45.85zm-3.562 5.549c-.565.943-1.115 1.895-1.65 2.856l70.748 39.402c.124-.223.252-.445.383-.664L38.52 63.895zm-3.21 5.763a105.68 105.68 0 00-1.47 2.955l73.075 34.9c.11-.23.223-.458.34-.685l-71.946-37.17zm-2.846 5.956a105.56 105.56 0 00-1.283 3.044L106.3 108.91c.095-.235.194-.469.296-.702L32.464 75.614zm-2.47 6.127a105.05 105.05 0 00-1.09 3.122l76.873 25.472c.08-.24.163-.479.25-.716L29.995 81.742zm-2.082 6.278a105.188 105.188 0 00-.892 3.186l78.326 20.58c.064-.243.132-.486.204-.727L27.912 88.019zm-1.684 6.402a105.05 105.05 0 00-.69 3.239l79.471 15.594c.048-.246.101-.492.157-.736L26.228 94.421zm-1.277 6.498c-.179 1.088-.34 2.182-.485 3.279l80.3 10.541c.032-.249.069-.498.11-.745l-79.925-13.075zm-.866 6.568a106.003 106.003 0 00-.276 3.299l80.807 5.45c.017-.251.038-.502.063-.751l-80.594-7.998zm-.448 6.609c-.04 1.098-.063 2.2-.068 3.303l80.993.346c.001-.253.006-.505.015-.755l-80.94-2.894zm-.032 6.609c.03 1.098.076 2.198.14 3.299l80.857-4.736c-.014-.255-.025-.51-.032-.763l-80.964 2.2zm.382 6.582c.098 1.092.213 2.184.345 3.277l80.408-9.759a25.86 25.86 0 01-.081-.771l-80.672 7.253zm.788 6.525c.083.542.17 1.083.26 1.624l79.873-13.467c-.022-.13-.043-.261-.062-.39l-80.07 12.233zm.26 1.624c.091.542.187 1.082.286 1.62l79.656-14.697c-.024-.13-.047-.259-.069-.39l-79.873 13.467zm.929 4.835c.232 1.076.48 2.146.745 3.209l78.596-19.601c-.062-.249-.12-.5-.175-.755L25.964 140.27zm1.59 6.391c.3 1.061.615 2.116.946 3.163l77.221-24.472a26.058 26.058 0 01-.219-.732l-77.948 22.041zm1.993 6.298c.366 1.041.747 2.074 1.143 3.099l75.533-29.276c-.09-.234-.178-.471-.261-.709L29.547 152.96zm2.388 6.17c.432 1.018.878 2.027 1.34 3.027l73.536-33.987a25.116 25.116 0 01-.304-.688L31.935 159.13zm2.775 6.01c.495.989 1.005 1.969 1.53 2.94l71.244-38.565c-.119-.22-.234-.443-.347-.667L34.71 165.14zm3.15 5.826a104.9 104.9 0 001.711 2.834l68.671-42.985a26.228 26.228 0 01-.39-.644L37.86 170.966zm3.51 5.613c.616.917 1.244 1.823 1.885 2.717l65.827-47.228c-.147-.204-.29-.411-.43-.62l-67.281 45.131zm3.854 5.374c.67.876 1.355 1.74 2.05 2.593l62.729-51.274a26.71 26.71 0 01-.471-.595l-64.308 49.276zm4.18 5.117c.723.831 1.46 1.649 2.207 2.456l59.391-55.107a25.04 25.04 0 01-.509-.567L49.404 187.07zm4.49 4.84c.772.783 1.557 1.553 2.353 2.31l55.829-58.714a23 23 0 01-.546-.536l-57.637 56.94zm4.778 4.545c.82.733 1.651 1.452 2.493 2.158l52.053-62.086a25.396 25.396 0 01-.579-.502l-53.967 60.43zm5.05 4.236c.865.679 1.739 1.345 2.623 1.997l48.079-65.213a25.134 25.134 0 01-.61-.465L63.723 200.69zm5.306 3.911c.904.624 1.818 1.234 2.742 1.83l43.917-68.085a27.206 27.206 0 01-.638-.426l-46.021 66.681zm5.54 3.573c.941.566 1.892 1.118 2.852 1.655L117 139.136a20.708 20.708 0 01-.662-.384l-41.77 69.423zm5.755 3.222c.976.506 1.96.998 2.952 1.474l35.08-73.031a21.67 21.67 0 01-.682-.341l-37.35 71.898zm5.951 2.857c1.007.445 2.021.874 3.043 1.288l30.429-75.087a25.283 25.283 0 01-.7-.296l-32.772 74.095zm6.126 2.48c1.033.381 2.074.747 3.121 1.096l25.644-76.852a22.278 22.278 0 01-.713-.25L92.4 216.734zm6.278 2.093c1.056.315 2.118.614 3.186.897l20.743-78.315a22.824 22.824 0 01-.723-.204l-23.206 77.622zm6.404 1.694c1.074.248 2.155.479 3.24.694l15.745-79.469c-.245-.048-.489-.1-.732-.157l-18.253 78.932zm6.502 1.285c1.089.18 2.184.343 3.283.489l10.676-80.305c-.248-.033-.494-.07-.74-.11l-13.219 79.926zm6.575.872c1.097.11 2.199.203 3.303.279l5.567-80.818a23.132 23.132 0 01-.745-.063l-8.125 80.602zm6.617.453c1.1.04 2.203.063 3.308.068l.444-81.005a23.33 23.33 0 01-.75-.016l-3.002 80.953zm6.618.033c1.1-.029 2.201-.076 3.304-.14l-4.658-80.87c-.254.014-.506.025-.757.032l2.111 80.978zm6.593-.383a104.94 104.94 0 003.282-.346l-9.703-80.418c-.256.031-.512.058-.766.08l7.187 80.684zm6.535-.791c.543-.083 1.085-.17 1.627-.261l-13.427-79.88-.388.063 12.188 80.078zm1.627-.261c.542-.092 1.083-.187 1.622-.287l-14.662-79.661c-.129.024-.257.046-.387.068l13.427 79.88zm4.842-.933c1.078-.234 2.149-.483 3.214-.749l-19.586-78.593c-.248.061-.498.12-.75.175l17.122 79.167zm6.401-1.598c1.063-.302 2.119-.619 3.167-.952l-24.477-77.207c-.24.076-.482.149-.727.218l22.037 77.941zm6.307-2.004c1.043-.367 2.077-.751 3.103-1.149l-29.301-75.506c-.232.09-.467.177-.704.261l26.902 76.394zm6.177-2.4c1.019-.434 2.03-.883 3.031-1.347l-34.028-73.495c-.226.105-.453.206-.683.304l31.68 74.538zm6.016-2.789c.991-.498 1.971-1.01 2.942-1.538l-38.62-71.186a23.05 23.05 0 01-.663.347l36.341 72.377zm5.831-3.166c.955-.559 1.9-1.132 2.835-1.719l-43.052-68.594c-.211.132-.425.262-.64.388l40.857 69.925zm5.614-3.527c.917-.617 1.823-1.248 2.718-1.892l-47.303-65.733c-.203.146-.409.289-.617.429l45.202 67.196zm5.374-3.869c.876-.674 1.74-1.36 2.592-2.059l-51.354-62.618c-.195.16-.392.317-.592.471l49.354 64.206zm5.114-4.197c.831-.726 1.649-1.464 2.455-2.215l-55.189-59.264c-.185.173-.373.343-.564.51l53.298 60.969zm4.836-4.504c.782-.776 1.551-1.563 2.307-2.362l-58.794-55.686c-.175.185-.353.366-.534.546l57.021 57.502zm4.539-4.794a106.54 106.54 0 002.154-2.499l-62.163-51.899a27.72 27.72 0 01-.5.58l60.509 53.818zm4.227-5.064c.678-.866 1.343-1.742 1.993-2.628l-65.284-47.914c-.151.206-.306.41-.463.612l63.754 49.93zm3.902-5.316c.623-.906 1.231-1.822 1.825-2.747l-68.148-43.745c-.138.216-.28.429-.425.64l66.748 45.852zm3.563-5.55c.564-.943 1.114-1.895 1.65-2.856l-70.748-39.402c-.124.223-.252.445-.384.664l69.482 41.594zm3.21-5.763c.505-.976.995-1.961 1.469-2.955l-73.074-34.9c-.11.23-.224.458-.341.685l71.946 37.17zm2.846-5.956c.443-1.007.871-2.022 1.283-3.044l-75.12-30.251c-.095.235-.193.469-.296.702l74.133 32.593zm2.469-6.127c.379-1.034.743-2.075 1.09-3.122l-76.873-25.472c-.079.24-.163.479-.25.716l76.033 27.878zm2.082-6.278c.314-1.056.611-2.118.892-3.186l-78.326-20.58c-.064.244-.132.486-.203.727l77.637 23.039zm1.684-6.402c.247-1.074.477-2.154.69-3.239l-79.47-15.594c-.049.246-.101.492-.157.736l78.937 18.097zm1.278-6.497c.178-1.089.34-2.182.485-3.28l-80.3-10.541c-.033.25-.069.498-.11.745l79.925 13.076zm.865-6.569c.109-1.096.202-2.196.276-3.299l-80.807-5.449a23.2 23.2 0 01-.063.75l80.594 7.998zm.449-6.609c.039-1.098.062-2.199.067-3.303l-80.992-.346a20.98 20.98 0 01-.016.755l80.941 2.894zm.031-6.609a104.317 104.317 0 00-.14-3.299l-80.857 4.736c.015.256.026.51.033.763l80.964-2.2zm-.382-6.582a104.288 104.288 0 00-.344-3.277l-80.408 9.759c.031.259.058.516.081.771l80.671-7.253zm-.788-6.525a99.689 99.689 0 00-.26-1.624l-79.873 13.467.063.39 80.07-12.233zm39.676-8.358c-.125-.747-.256-1.492-.393-2.235l-159.312 29.396-.04-.226 159.745-26.935zm-1.281-6.675A145.72 145.72 0 00270 82.633l-157.192 39.201a17.625 17.625 0 01-.109-.471l158.332-34.295zm-2.199-8.837a149.316 149.316 0 00-1.31-4.379L113.08 122.796a18.899 18.899 0 01-.145-.484l155.897-44.08zm-2.76-8.722a142.917 142.917 0 00-1.585-4.293l-151.065 58.553a15.882 15.882 0 01-.179-.486l152.829-53.774zm-3.31-8.55a144.92 144.92 0 00-1.857-4.196l-147.073 67.973c-.074-.159-.145-.32-.213-.481L262.762 60.96zm-3.846-8.332a146.4 146.4 0 00-2.122-4.076l-142.489 77.13a17.387 17.387 0 01-.244-.469l144.855-72.585zm-4.369-8.078a144.483 144.483 0 00-2.371-3.928l-137.341 85.97a16.84 16.84 0 01-.272-.451l139.984-81.59zm-4.866-7.78a145.287 145.287 0 00-2.611-3.766l-131.653 94.456c-.101-.141-.2-.284-.297-.428l134.561-90.262zm-5.339-7.447c-.93-1.214-1.877-2.41-2.841-3.591L116.044 128.279a18.275 18.275 0 01-.319-.404l128.617-98.553zm-5.79-7.087a146.796 146.796 0 00-3.056-3.4L116.714 129.047a15.51 15.51 0 01-.34-.379L238.552 22.235zm-6.215-6.701a145.25 145.25 0 00-3.258-3.198L117.422 129.764a16.95 16.95 0 01-.359-.351l115.274-113.88zm-6.614-6.291a148.056 148.056 0 00-3.449-2.986L118.166 130.43a19.507 19.507 0 01-.376-.326L225.723 9.243zm-6.989-5.86a144.931 144.931 0 00-3.628-2.764l-96.158 130.425a14.23 14.23 0 01-.396-.301L218.734 3.383zm-7.34-5.412a145.608 145.608 0 00-3.793-2.532l-87.835 136.17c-.14-.09-.278-.182-.414-.276L211.394-2.029zm-7.665-4.944a146.171 146.171 0 00-3.947-2.291l-79.16 141.388c-.146-.082-.29-.166-.433-.251l83.54-138.846zm-7.966-4.46a146.497 146.497 0 00-4.087-2.04l-70.159 146.062a19.036 19.036 0 01-.452-.226l74.698-143.795zm-8.24-3.955a146.378 146.378 0 00-4.214-1.784l-60.857 150.174a18.117 18.117 0 01-.473-.2l65.544-148.19zm-8.485-3.436a144.983 144.983 0 00-4.326-1.518L123.425 133.36a17.707 17.707 0 01-.491-.173l56.104-152.012zm-8.701-2.9a145.655 145.655 0 00-4.418-1.244l-41.486 156.63a19.91 19.91 0 01-.508-.143l46.412-155.244zm-8.88-2.35a145.212 145.212 0 00-4.495-.962L125.472 133.9c-.176-.034-.35-.072-.523-.112l36.508-157.862zm-9.02-1.783c-1.511-.249-3.03-.475-4.554-.677l-21.352 160.61c-.178-.024-.355-.05-.532-.079l26.438-159.854zm-9.121-1.209a144.837 144.837 0 00-4.583-.386l-11.134 161.635a15.575 15.575 0 01-.534-.045l16.251-161.204zm-9.179-.628a145.537 145.537 0 00-4.587-.095l-.889 162.011a15.612 15.612 0 01-.529-.011l6.005-161.905zm-9.176-.046c-1.523.04-3.049.105-4.577.194l9.316 161.741c-.17.01-.342.017-.515.022L124.961-27.74zm-9.13.53c-1.513.136-3.026.295-4.539.478l19.404 160.838a18.55 18.55 0 01-.492.052L115.831-27.21zm-9.036 1.094c-.749.114-1.497.235-2.246.36l26.854 159.76-.232.037-24.376-160.157zm-2.246.36c-.748.127-1.495.259-2.24.396l29.325 159.323-.231.041-26.854-159.76zm-6.69 1.29c-1.49.322-2.972.668-4.446 1.036l39.173 157.186c-.161.04-.322.078-.482.112L97.859-24.467zM89-22.255a145.66 145.66 0 00-4.388 1.317l48.956 154.414c-.165.053-.33.102-.494.149L89.002-22.254zm-8.74 2.776c-1.445.51-2.88 1.04-4.302 1.594l58.602 151.011c-.164.064-.33.126-.496.184L80.261-19.479zm-8.566 3.329a145.483 145.483 0 00-4.204 1.868l68.056 146.989c-.163.075-.326.148-.491.218L71.695-16.149zm-8.346 3.868a145.15 145.15 0 00-4.082 2.134l77.24 142.372a15.36 15.36 0 01-.477.249L63.35-12.281zM55.26-7.889c-1.326.775-2.637 1.57-3.933 2.384l86.103 137.189c-.15.094-.302.187-.457.277L55.261-7.888zm-7.788 4.89a150.574 150.574 0 00-3.768 2.625l94.605 131.466a17.46 17.46 0 01-.433.302L47.473-2.997zm-7.45 5.366c-1.213.933-2.41 1.884-3.591 2.853l102.707 125.235a17.08 17.08 0 01-.408.324L40.023 2.368zm-7.086 5.814a146 146 0 00-3.4 3.068l110.378 118.528c-.125.116-.252.23-.381.344L32.937 8.182zM26.24 14.42a146.016 146.016 0 00-3.194 3.269l117.589 111.373c-.115.122-.233.242-.353.362L26.24 14.42zm-6.283 6.635a146.166 146.166 0 00-2.98 3.46l124.326 103.797c-.107.127-.216.254-.327.379L19.956 21.056zm-5.85 7.008A146.01 146.01 0 0011.35 31.7l130.567 95.828c-.098.134-.198.266-.301.397l-127.51-99.86zM8.708 35.42a146.238 146.238 0 00-2.524 3.8l136.296 87.49c-.09.139-.182.277-.275.414L8.708 35.42zM3.78 43.098a146.11 146.11 0 00-2.283 3.952l141.495 78.804c-.081.146-.164.29-.249.432L3.779 43.098zm-4.443 7.975a146.137 146.137 0 00-2.033 4.09l146.149 69.8c-.073.152-.147.302-.224.45L-.664 51.073zm-3.939 8.244a145.86 145.86 0 00-1.776 4.216l150.239 60.502c-.064.158-.129.314-.197.469L-4.603 59.317zm-3.419 8.486a145.66 145.66 0 00-1.51 4.324l153.746 50.944c-.055.164-.111.326-.17.487L-8.022 67.803zm-2.884 8.697a145.307 145.307 0 00-1.237 4.415l156.652 41.16c-.044.169-.091.336-.14.502L-10.906 76.5zm-2.335 8.873c-.342 1.489-.66 2.985-.956 4.49l158.941 31.189c-.033.172-.07.344-.109.514L-13.241 85.372zm-1.77 9.008a145.51 145.51 0 00-.673 4.547l160.599 21.081c-.023.175-.048.35-.077.523l-159.85-26.151zm-1.2 9.107c-.152 1.519-.28 3.044-.384 4.574L145.02 118.96c-.012.175-.027.35-.044.525l-161.187-15.997zm-.622 9.161a145.813 145.813 0 00-.094 4.577l161.985.692c-.001.173-.004.345-.011.519l-161.88-5.788zm-.044 9.156c.04 1.52.105 3.043.194 4.567L145.03 116.9c.01.167.017.336.021.505l-161.929 4.4zm.529 9.109c.135 1.51.293 3.019.476 4.529l160.816-19.517c.019.158.036.319.051.481l-161.343 14.507zm1.088 9.015c.114.747.234 1.494.36 2.241l159.744-26.935.037.227-160.14 24.467zm.36 2.241c.125.747.256 1.492.393 2.235l159.312-29.395.039.225L-14.9 142.17zm1.28 6.675a148.69 148.69 0 001.031 4.435l157.192-39.201c.04.158.076.315.11.471l-158.332 34.295zm2.2 8.837a146.02 146.02 0 001.31 4.379l154.442-48.944c.051.162.099.323.144.484L-11.42 157.682zm2.76 8.722a145.42 145.42 0 001.584 4.293l151.066-58.553c.062.162.122.324.179.487L-8.66 166.404zm3.31 8.55c.598 1.411 1.217 2.81 1.857 4.196l147.073-67.973c.073.16.144.32.213.482L-5.351 174.954zm3.846 8.332a145.517 145.517 0 002.122 4.076l142.489-77.129c.083.154.165.311.244.469L-1.504 183.286zm4.368 8.078a145.837 145.837 0 002.372 3.929l137.341-85.971c.092.149.183.299.272.451L2.864 191.364zm4.867 7.78a144.057 144.057 0 002.61 3.766l131.654-94.455c.101.14.2.283.297.428L7.731 199.144zm5.339 7.448a147.26 147.26 0 002.84 3.591l125.457-102.548c.108.132.215.266.32.403L13.07 206.592zm5.79 7.086a144.492 144.492 0 003.056 3.401l118.782-110.213c.115.123.228.249.34.378L18.859 213.678zm6.215 6.702a147.201 147.201 0 003.258 3.197L139.99 106.149c.121.115.24.232.359.352L25.075 220.38zm6.614 6.29a145.726 145.726 0 003.449 2.986l104.107-124.173c.127.107.253.216.377.327L31.689 226.67zm6.989 5.861a146.13 146.13 0 003.627 2.763l96.159-130.425c.133.098.265.198.395.301L38.678 232.531zm7.34 5.411a142.03 142.03 0 003.793 2.532l87.835-136.17c.139.09.277.182.414.276L46.017 237.942zm7.664 4.944c1.303.784 2.62 1.548 3.947 2.291l79.161-141.388c.146.082.29.166.433.252l-83.54 138.845zm7.967 4.459a144.72 144.72 0 004.087 2.042l70.159-146.062c.152.073.303.148.452.226L61.649 247.345zm8.24 3.956c1.393.616 2.798 1.211 4.214 1.785l60.857-150.175c.159.065.316.132.472.2l-65.544 148.19zm8.484 3.436c1.432.528 2.875 1.035 4.326 1.519l51.288-153.703c.165.055.329.112.491.172L78.373 254.737zm8.702 2.901c1.463.437 2.936.852 4.418 1.243l41.485-156.629c.171.045.341.093.509.143L87.075 257.638zm8.88 2.348c1.49.345 2.989.666 4.495.963l31.49-158.937c.175.035.349.072.522.112L95.955 259.986zm9.019 1.784c1.512.249 3.03.475 4.555.677l21.352-160.61c.178.024.355.05.532.079l-26.44 159.854zm9.122 1.209c1.523.153 3.05.282 4.583.387l11.134-161.636c.178.012.356.027.534.045l-16.251 161.204zm9.179.628c1.525.056 3.054.088 4.586.095l.889-162.011c.176.001.353.004.529.011l-6.004 161.905zm9.175.046c1.524-.041 3.05-.105 4.577-.194l-9.316-161.741c.171-.01.343-.017.516-.021l4.223 161.956zm9.13-.53c1.513-.135 3.026-.295 4.54-.478l-19.405-160.838c.162-.019.326-.037.492-.051l14.373 161.367zm9.036-1.094c.749-.114 1.498-.234 2.246-.361L126.008 101.91l.232-.038 24.376 160.157zm2.246-.361c.749-.126 1.496-.258 2.241-.395L125.777 101.95l.231-.04 26.854 159.758zm6.691-1.288a145.64 145.64 0 004.445-1.037l-39.173-157.186c.162-.04.323-.078.482-.112l34.246 158.335zm8.857-2.212c1.472-.417 2.935-.857 4.388-1.318l-48.955-154.414c.165-.053.329-.102.494-.149l44.073 155.881zm8.74-2.776c1.445-.51 2.88-1.042 4.303-1.594L122.85 102.786c.165-.064.33-.125.496-.184l53.804 152.79zm8.567-3.33a143.856 143.856 0 004.204-1.868l-68.056-146.989c.162-.075.326-.148.49-.218l63.362 149.075zm8.345-3.868a143.443 143.443 0 004.082-2.134l-77.24-142.372c.158-.085.317-.168.477-.249l72.681 144.755zm8.089-4.392c1.326-.776 2.637-1.57 3.933-2.384l-86.104-137.19c.151-.094.303-.186.457-.277l81.714 139.851zm7.787-4.892a144.464 144.464 0 003.768-2.624L119.101 104.82c.142-.102.287-.203.434-.302l90.403 134.392zm7.45-5.364a146.381 146.381 0 003.592-2.854L118.272 105.458c.134-.11.27-.218.408-.324l98.708 128.412zm7.087-5.815a145.543 145.543 0 003.399-3.068L117.497 106.135c.125-.116.252-.23.381-.343l106.597 121.939zm6.697-6.238a146.953 146.953 0 003.194-3.27L116.776 106.85c.116-.122.234-.242.354-.361l114.042 115.004zm6.283-6.636a145.944 145.944 0 002.98-3.459L116.109 107.601c.107-.128.216-.255.327-.38l121.019 107.636zm5.85-7.008c.938-1.198 1.857-2.41 2.757-3.636l-130.567-95.828c.098-.134.198-.266.3-.396l127.51 99.86zm5.398-7.356c.861-1.253 1.703-2.52 2.525-3.8l-136.296-87.489c.089-.139.181-.277.275-.414l133.496 91.703zm4.929-7.678a142.026 142.026 0 002.283-3.951L114.42 110.059c.081-.146.164-.29.25-.432l138.962 83.188zm4.443-7.975a145.282 145.282 0 002.033-4.089L113.96 110.95c.072-.152.147-.302.223-.45l143.892 74.34zm3.939-8.244a144.84 144.84 0 001.776-4.216l-150.238-60.502c.063-.158.129-.314.197-.468l148.265 65.186zm3.42-8.486a148.184 148.184 0 001.51-4.324l-153.746-50.944c.054-.164.111-.326.17-.487l152.066 55.755zm2.884-8.697c.435-1.463.847-2.935 1.236-4.415l-156.652-41.16c.045-.169.091-.336.141-.502l155.275 46.077zm2.334-8.872c.342-1.489.661-2.986.957-4.49l-158.942-31.189c.034-.173.071-.345.11-.515l157.875 36.194zm1.771-9.008c.248-1.51.472-3.026.673-4.548l-160.6-21.081c.023-.175.049-.349.078-.523l159.849 26.152zm1.2-9.107c.151-1.52.279-3.045.383-4.575l-161.614-10.898c.011-.175.026-.35.044-.525l161.187 15.998zm.622-9.162c.055-1.522.086-3.048.094-4.577l-161.985-.692c.001-.172.004-.345.01-.518l161.881 5.787zm.043-9.156c-.04-1.52-.105-3.043-.193-4.567l-161.714 9.472c-.01-.167-.017-.336-.022-.505l161.929-4.4zm-.528-9.109a148.231 148.231 0 00-.476-4.529l-160.816 19.517a14.46 14.46 0 01-.051-.481l161.343-14.507zm-1.089-9.015a132.02 132.02 0 00-.359-2.24l-159.745 26.934c-.012-.075-.025-.151-.036-.227l160.14-24.467z" fill="url(#paint0_linear_21_16)" mask="url(#a)"/><mask id="b" fill="#fff"><ellipse rx="50.768" ry="50.842" transform="rotate(-9.553 935.928 -277.188) skewX(.007)"/></mask><path d="M148.982 136.334a91.867 91.867 0 00-.313-1.755l-79.602 14.98.038.217 79.877-13.442zm-1.039-5.237a88.527 88.527 0 00-.863-3.465l-78.202 21.1c.036.133.07.269.101.407l78.964-18.042zm-1.864-6.904a90.353 90.353 0 00-1.136-3.401l-76.308 27.162c.044.125.087.253.128.383l77.316-24.144zm-2.406-6.758a92.067 92.067 0 00-1.403-3.307l-73.932 33.086c.054.12.106.242.155.366l75.18-30.145zm-2.937-6.559a91.627 91.627 0 00-1.661-3.19l-71.088 38.82c.063.116.124.233.183.351l72.566-35.981zm-3.446-6.311a92.023 92.023 0 00-1.906-3.045L67.58 145.827c.073.111.143.223.21.336l69.5-41.598zm-3.929-6.011a91.996 91.996 0 00-2.138-2.884l-64.107 49.505c.082.106.162.213.24.322l66.005-46.944zm-4.386-5.68a91.849 91.849 0 00-2.354-2.702l-60.025 54.382c.091.1.18.202.267.306l62.112-51.986zm-4.811-5.309a91.856 91.856 0 00-2.554-2.507l-55.588 58.91c.1.094.198.19.294.288l57.848-56.69zm-5.204-4.91a91.678 91.678 0 00-2.741-2.299l-50.82 63.069c.108.087.214.175.318.266l53.243-61.037zm-5.569-4.488a91.608 91.608 0 00-2.911-2.076L64.734 142.93c.114.078.227.159.338.241l48.319-65.004zm-5.901-4.038a92.684 92.684 0 00-3.066-1.845l-40.39 70.206c.12.069.237.14.354.213l43.102-68.575zm-6.203-3.569a91.228 91.228 0 00-3.204-1.6l-34.775 73.15c.123.058.245.119.366.182l37.613-71.732zm-6.47-3.076a91.461 91.461 0 00-3.325-1.347l-28.928 75.654c.126.048.25.098.374.151l31.879-74.458zm-6.703-2.563a91.228 91.228 0 00-3.427-1.084L61.81 141.535c.126.038.253.078.379.12l25.926-76.734zm-6.895-2.03a90.875 90.875 0 00-3.505-.811l-16.668 79.263c.128.027.255.057.382.089L81.22 62.89zm-7.042-1.482c-1.182-.2-2.37-.377-3.563-.531l-10.336 80.335c.129.017.257.036.385.058l13.514-79.862zm-7.144-.92a90.636 90.636 0 00-3.59-.247l-3.942 80.902c.131.007.26.016.39.027l7.142-80.682zm-7.184-.351a90.899 90.899 0 00-3.592.038l2.453 80.961c.134-.004.267-.005.398-.004l.741-80.995zm-7.177.216a91.65 91.65 0 00-3.563.319l8.786 80.521c.14-.015.276-.027.411-.037l-5.634-80.803zm-7.098.773c-.588.088-1.176.18-1.763.28l13.451 79.875.215-.034-11.903-80.12zm-1.763.28c-.588.099-1.174.203-1.758.313l14.996 79.6.213-.038-13.451-79.875zm-5.248 1.04a91.588 91.588 0 00-3.47.866l21.142 78.193c.13-.035.264-.069.4-.1L38.563 62.447zm-6.916 1.87a90.823 90.823 0 00-3.406 1.14l27.228 76.288c.124-.044.25-.086.378-.126l-24.2-77.302zm-6.768 2.415c-1.116.449-2.22.918-3.311 1.408l33.174 73.898c.119-.053.238-.104.36-.153L24.879 66.732zm-6.567 2.948a90.709 90.709 0 00-3.193 1.668l38.926 71.036c.114-.062.23-.122.346-.18L18.31 69.68zm-6.315 3.46a90.977 90.977 0 00-3.047 1.912l44.425 67.735c.11-.072.22-.141.332-.209L11.997 73.14zm-6.014 3.943A91.12 91.12 0 003.1 79.228l49.63 64.019c.106-.082.212-.161.32-.237L5.983 77.083zm-5.676 4.4a91.275 91.275 0 00-2.7 2.36l54.509 59.921c.1-.091.2-.18.303-.266L.307 81.483zm-5.304 4.824a91.35 91.35 0 00-2.503 2.56l59.035 55.468c.094-.099.189-.197.286-.292L-4.997 86.307zm-4.902 5.216a91.38 91.38 0 00-2.293 2.747l63.187 50.687c.086-.107.174-.213.264-.317L-9.899 91.524zm-4.476 5.58a91.41 91.41 0 00-2.07 2.915l66.947 45.605c.078-.114.158-.227.24-.338l-65.117-48.183zm-4.025 5.908a92.45 92.45 0 00-1.837 3.069l70.3 40.245c.068-.119.14-.238.212-.355L-18.4 103.011zm-3.553 6.208a91.296 91.296 0 00-1.593 3.205l73.228 34.631c.058-.123.12-.246.183-.368l-71.818-37.468zm-3.06 6.471a90.974 90.974 0 00-1.34 3.325l75.716 28.79c.048-.126.098-.252.151-.377l-74.527-31.738zm-2.548 6.702a91.009 91.009 0 00-1.075 3.424l77.742 22.752c.038-.128.078-.255.12-.382l-76.787-25.794zm-2.015 6.889a91.148 91.148 0 00-.804 3.502l79.293 16.557c.027-.129.057-.258.089-.387l-78.578-19.672zm-1.469 7.034a90.863 90.863 0 00-.525 3.558l80.352 10.247c.017-.131.036-.262.058-.391l-79.885-13.414zm-.909 7.134a90.893 90.893 0 00-.242 3.583l80.91 3.876c.006-.132.015-.264.026-.395l-80.694-7.064zm-.343 7.17c-.01 1.193.004 2.388.04 3.586l80.964-2.492a10.408 10.408 0 01-.005-.405l-80.999-.689zm.221 7.164c.084 1.184.19 2.369.32 3.555l80.521-8.797c-.016-.141-.028-.28-.038-.418l-80.802 5.66zm.775 7.084c.087.586.18 1.173.279 1.76l79.876-13.443a11.308 11.308 0 01-.034-.217l-80.121 11.9zm.279 1.76c.098.586.203 1.171.313 1.754l79.602-14.98a10.568 10.568 0 01-.039-.217l-79.876 13.443zm1.038 5.237a92.69 92.69 0 00.863 3.464l78.203-21.1a9.308 9.308 0 01-.101-.407l-78.965 18.043zm1.864 6.903a91.754 91.754 0 001.137 3.402l76.308-27.162a10.405 10.405 0 01-.128-.384l-77.317 24.144zm2.407 6.759a90.714 90.714 0 001.402 3.306l73.932-33.086c-.053-.12-.105-.242-.154-.365l-75.18 30.145zm2.936 6.559a91.499 91.499 0 001.662 3.19l71.088-38.821a9.989 9.989 0 01-.183-.35l-72.567 35.981zm3.447 6.31a91.075 91.075 0 001.906 3.046l67.803-44.307a9.738 9.738 0 01-.21-.337l-69.499 41.598zm3.929 6.012a91.61 91.61 0 002.138 2.884l64.106-49.505a11.016 11.016 0 01-.239-.323L-15.4 204.407zm4.386 5.679a92.79 92.79 0 002.354 2.703l60.024-54.382c-.09-.101-.18-.203-.267-.307l-62.111 51.986zm4.81 5.309a91.237 91.237 0 002.555 2.507l55.587-58.91c-.1-.094-.197-.19-.293-.288l-57.849 56.691zM-1 220.306a93.54 93.54 0 002.74 2.298l50.82-63.069a9.298 9.298 0 01-.317-.266L-1 220.306zm5.569 4.487a91.426 91.426 0 002.91 2.077l45.746-66.84a9.864 9.864 0 01-.337-.241l-48.32 65.004zm5.9 4.039a92.248 92.248 0 003.067 1.844l40.39-70.206c-.12-.069-.238-.14-.355-.213L10.47 228.832zm6.204 3.568a91.232 91.232 0 003.203 1.601l34.775-73.15a13.81 13.81 0 01-.365-.183L16.673 232.4zm6.47 3.076c1.098.47 2.206.92 3.324 1.347l28.928-75.654a8.96 8.96 0 01-.373-.151l-31.88 74.458zm6.703 2.564c1.133.383 2.275.744 3.426 1.083l22.879-77.698a8.697 8.697 0 01-.379-.12L29.846 238.04zm6.894 2.03c1.161.293 2.33.563 3.506.81l16.667-79.263a10.046 10.046 0 01-.382-.088l-19.79 78.541zm7.043 1.482c1.181.2 2.37.377 3.563.53l10.336-80.335a9.892 9.892 0 01-.385-.057l-13.514 79.862zm7.144.92c1.192.105 2.389.187 3.59.246l3.941-80.902a8.313 8.313 0 01-.39-.027l-7.14 80.683zm7.184.35a91.676 91.676 0 003.592-.037l-2.454-80.962a8.832 8.832 0 01-.398.004l-.74 80.995zm7.177-.216a93.426 93.426 0 003.562-.318l-8.786-80.522c-.139.015-.276.028-.41.037l5.634 80.803zm7.098-.773c.588-.087 1.175-.18 1.763-.279l-13.452-79.876a5.614 5.614 0 01-.214.034l11.903 80.121zm1.763-.279a92.73 92.73 0 001.758-.314l-14.996-79.6c-.07.014-.142.026-.214.038l13.452 79.876zm5.247-1.041a92.94 92.94 0 003.47-.865l-21.142-78.194c-.13.036-.263.069-.4.1l18.072 78.959zm6.916-1.87a90.941 90.941 0 003.407-1.14L62.49 161.215c-.123.044-.25.086-.377.126l24.2 77.302zm6.77-2.415a89.88 89.88 0 003.31-1.408l-33.175-73.897c-.118.053-.238.104-.359.153l30.223 75.152zm6.566-2.948a90.193 90.193 0 003.193-1.667l-38.927-71.037a8.889 8.889 0 01-.345.18l36.079 72.524zm6.315-3.459a92.288 92.288 0 003.047-1.913l-44.425-67.734c-.11.071-.22.141-.332.208l41.71 69.439zm6.013-3.943a91.235 91.235 0 002.883-2.145l-49.63-64.019c-.105.081-.212.16-.319.237l47.066 65.927zm5.677-4.4a92.285 92.285 0 002.7-2.361l-54.51-59.92c-.099.09-.2.179-.303.265l52.113 62.016zm5.304-4.824a91.508 91.508 0 002.502-2.561l-59.034-55.468c-.094.1-.19.197-.286.293l56.818 57.736zm4.902-5.217a93.572 93.572 0 002.292-2.746l-63.186-50.688a10.1 10.1 0 01-.265.317l61.159 53.117zm4.475-5.579a91.41 91.41 0 002.07-2.915l-66.947-45.606a10.76 10.76 0 01-.24.338l65.117 48.183zm4.025-5.909a91.122 91.122 0 001.838-3.069l-70.3-40.245c-.069.12-.14.238-.213.355l68.675 42.959zm3.554-6.207a93.623 93.623 0 001.593-3.205l-73.228-34.632c-.059.124-.12.246-.183.368l71.818 37.469zm3.06-6.472a92.202 92.202 0 001.339-3.324l-75.715-28.791c-.048.126-.099.252-.152.377l74.528 31.738zm2.548-6.701c.38-1.133.739-2.274 1.075-3.425l-77.743-22.752a10.4 10.4 0 01-.12.383l76.788 25.794zm2.015-6.89c.29-1.159.558-2.327.803-3.501L69.047 153.62a9.7 9.7 0 01-.09.387l78.579 19.672zm1.468-7.034c.198-1.18.373-2.366.525-3.558l-80.352-10.246c-.016.131-.036.261-.057.391l79.884 13.413zm.909-7.133a90.64 90.64 0 00.242-3.583l-80.909-3.877c-.006.133-.015.265-.026.396l80.693 7.064zm.343-7.171a91.357 91.357 0 00-.04-3.586l-80.963 2.493c.004.136.006.271.005.404l80.998.689zm-.221-7.163a91.123 91.123 0 00-.319-3.556l-80.521 8.798c.015.141.028.28.037.417l80.803-5.659zm-.774-7.084a88.146 88.146 0 00-.279-1.76l-79.877 13.442c.013.073.024.146.035.218l80.121-11.9zm39.659-8.482c-.142-.843-.292-1.684-.45-2.523l-159.205 29.96a28.013 28.013 0 01-.098-.552l159.753-26.885zm-1.494-7.537c-.383-1.675-.798-3.34-1.244-4.993l-156.406 42.2a30.22 30.22 0 01-.28-1.122l157.93-36.085zm-2.688-9.954a131.4 131.4 0 00-1.641-4.91L30.48 161.534a30.084 30.084 0 01-.375-1.125l154.633-48.288zm-3.476-9.759a131.058 131.058 0 00-2.026-4.776L31.372 163.757a30.75 30.75 0 01-.469-1.105l150.359-60.29zm-4.242-9.477a131.872 131.872 0 00-2.401-4.61L32.443 165.917a30.408 30.408 0 01-.557-1.07L177.02 92.885zm-4.981-9.119a133.426 133.426 0 00-2.753-4.4L33.678 167.98c-.218-.334-.43-.673-.637-1.018L172.04 83.766zm-5.676-8.684a131.715 131.715 0 00-3.087-4.165l-128.213 99.01a29.657 29.657 0 01-.71-.958l132.01-93.887zm-6.333-8.2a131.454 131.454 0 00-3.397-3.901L36.584 171.744a30.195 30.195 0 01-.777-.891L160.03 66.882zm-6.941-7.662a131.701 131.701 0 00-3.686-3.616L38.229 173.423a30.301 30.301 0 01-.837-.822L153.089 59.22zm-7.508-7.084a130.584 130.584 0 00-3.953-3.314L39.99 174.959a30.206 30.206 0 01-.895-.75L145.581 52.136zm-8.03-6.47a132.12 132.12 0 00-4.198-2.995L41.861 176.35c-.32-.219-.637-.445-.949-.677l96.639-130.007zm-8.51-5.825a132.392 132.392 0 00-4.422-2.66l-80.78 140.413a30.779 30.779 0 01-1.002-.603l86.204-137.15zm-8.947-5.147c-1.524-.8-3.066-1.57-4.623-2.31l-69.55 146.301a31.504 31.504 0 01-1.053-.526l75.226-143.465zm-9.338-4.44a131.153 131.153 0 00-4.8-1.944L48.1 179.618a30.973 30.973 0 01-1.101-.446l63.757-148.917zm-9.679-3.7a131.854 131.854 0 00-4.95-1.566L50.368 180.384a30.727 30.727 0 01-1.145-.361l51.853-153.47zm-9.962-2.935a131.27 131.27 0 00-5.067-1.17L52.713 180.974a28.71 28.71 0 01-1.18-.273L91.115 23.619zm-10.181-2.141a131.52 131.52 0 00-5.152-.768L55.11 181.381a29.957 29.957 0 01-1.204-.18L80.934 21.478zm-10.33-1.33a131.266 131.266 0 00-5.19-.357L57.53 181.595a28.724 28.724 0 01-1.21-.083L70.603 20.148zM60.22 19.64a131.64 131.64 0 00-5.19.055l4.907 161.923c-.399.012-.799.016-1.2.012L60.22 19.64zm-10.365.313c-1.712.12-3.425.272-5.139.459L62.29 181.455c-.386.042-.775.077-1.166.104L49.855 19.953zm-10.232 1.114c-.847.126-1.693.26-2.538.402L63.988 181.22c-.186.031-.373.06-.56.088L39.623 21.068zm-2.538.402c-.846.142-1.69.293-2.53.451l29.992 159.2a37.96 37.96 0 01-.559.1L37.085 21.47zm-7.558 1.499c-1.68.384-3.348.8-5.005 1.248l42.284 156.386c-.378.103-.756.197-1.135.284L29.527 22.968zm-9.98 2.698a131.508 131.508 0 00-4.92 1.647L69.083 179.89c-.377.135-.756.262-1.138.381L19.548 25.666zm-9.78 3.49a131.455 131.455 0 00-4.786 2.035L71.33 178.986a29.69 29.69 0 01-1.117.475L9.767 29.156zM.272 33.418a131.833 131.833 0 00-4.616 2.411l77.853 142.074c-.355.194-.715.382-1.08.563L.273 33.418zm-9.13 5.002c-1.49.895-2.958 1.817-4.405 2.765l88.85 135.469c-.336.221-.678.435-1.025.644L-8.858 38.42zm-8.692 5.7c-1.411 1.007-2.8 2.04-4.165 3.098l99.261 128.038c-.315.245-.636.484-.963.717L-17.55 44.119zm-8.2 6.355a131.656 131.656 0 00-3.899 3.409l109.02 119.84c-.292.265-.59.526-.895.782L-25.75 50.476zm-7.656 6.964a131.988 131.988 0 00-3.611 3.695L81.053 172.07a30.48 30.48 0 01-.823.842L-33.406 57.439zm-7.072 7.526c-1.129 1.3-2.231 2.62-3.307 3.961L82.588 170.301a29.54 29.54 0 01-.75.898L-40.477 64.965zm-6.455 8.046a132.144 132.144 0 00-2.985 4.204l133.894 91.211c-.22.321-.444.638-.675.95L-46.934 73.011zm-5.804 8.52a132.295 132.295 0 00-2.65 4.426l140.6 80.491c-.194.338-.394.672-.6 1.002l-137.35-85.918zm-5.125 8.953a132.036 132.036 0 00-2.298 4.624L86.296 164.37c-.168.355-.342.705-.522 1.051L-57.862 90.484zm-4.415 9.337a132.25 132.25 0 00-1.933 4.798l151.43 57.582c-.14.369-.288.735-.442 1.096L-62.277 99.821zm-3.678 9.674a131.908 131.908 0 00-1.553 4.945l155.486 45.505c-.112.383-.232.762-.358 1.137l-153.575-51.587zm-2.91 9.95c-.42 1.675-.807 3.362-1.161 5.059l158.585 33.115a30.28 30.28 0 01-.268 1.17l-157.157-39.344zm-2.122 10.163a131.45 131.45 0 00-.759 5.142l160.704 20.493c-.05.399-.11.797-.176 1.193l-159.769-26.828zm-1.314 10.309a131.64 131.64 0 00-.35 5.176l161.819 7.754c-.02.4-.046.799-.081 1.198l-161.388-14.128zm-.495 10.358a131.69 131.69 0 00.058 5.176l161.926-4.985c.012.395.017.79.013 1.186l-161.997-1.377zm.319 10.337c.12 1.708.273 3.416.46 5.125l161.043-17.595c.041.382.076.766.103 1.152l-161.606 11.318zm1.115 10.205c.125.844.26 1.688.401 2.531l159.754-26.885c.03.184.06.368.088.554l-160.243 23.8zm.401 2.531c.142.843.292 1.684.45 2.523l159.205-29.96c.035.184.068.368.099.552l-159.754 26.885zm1.495 7.537c.383 1.676.798 3.34 1.244 4.993l156.405-42.2c.101.374.194.748.28 1.122l-157.929 36.085zm2.688 9.955a131.576 131.576 0 001.64 4.91L87.48 141.426c.133.373.258.748.376 1.125L-66.778 190.84zm3.475 9.758a131.54 131.54 0 002.026 4.777l147.864-66.172c.164.365.32.733.47 1.105l-150.36 60.29zm4.243 9.477a131.177 131.177 0 002.4 4.61l142.176-77.642c.193.352.378.709.557 1.07L-59.06 210.075zm4.98 9.119c.891 1.488 1.81 2.955 2.754 4.4L84.281 134.98c.219.334.431.674.637 1.018L-54.08 219.194zm5.676 8.685a130.873 130.873 0 003.088 4.164l128.212-99.01c.243.314.48.633.71.958l-132.01 93.888zm6.333 8.2a133.326 133.326 0 003.398 3.901L81.376 131.216c.263.291.522.588.776.891L-42.07 236.079zm6.942 7.661a131.288 131.288 0 003.686 3.617L79.73 129.537c.284.268.563.542.837.822L-35.129 243.74zm7.507 7.084a131.34 131.34 0 003.953 3.314L77.97 128.001c.302.244.6.494.894.75L-27.622 250.824zm8.031 6.471a133.08 133.08 0 004.198 2.995l91.491-133.68c.321.22.638.445.95.677l-96.639 130.008zm8.51 5.824c1.456.915 2.93 1.802 4.422 2.661l80.78-140.413c.338.195.672.396 1.001.603L-11.08 263.119zm8.947 5.148a131.52 131.52 0 004.623 2.309l69.55-146.3c.355.169.706.344 1.053.526L-2.134 268.267zm9.337 4.438c1.585.679 3.185 1.328 4.8 1.945L69.86 123.343c.372.142.74.29 1.102.446L7.203 272.705zm9.68 3.702a132.31 132.31 0 004.95 1.565L67.59 122.576c.386.113.767.234 1.145.362L16.883 276.407zm9.962 2.934c1.678.423 3.367.813 5.067 1.171l33.335-158.527c.396.084.79.175 1.18.273L26.845 279.341zm10.181 2.142c1.708.289 3.426.545 5.152.767L62.85 121.58c.403.052.804.111 1.203.179L37.026 281.483zm10.33 1.33c1.723.152 3.453.271 5.19.356l7.883-161.804c.405.02.808.047 1.21.083L47.357 282.813zm10.384.507c1.727.016 3.457-.002 5.19-.054l-4.908-161.924c.4-.012.8-.016 1.2-.012L57.74 283.32zm10.365-.313a133.14 133.14 0 005.138-.458L55.671 121.506c.386-.043.775-.077 1.165-.104l11.269 161.605zm10.232-1.114c.846-.125 1.692-.259 2.538-.402l-26.904-159.75c.186-.031.373-.061.561-.089l23.805 160.241zm2.538-.402a125.74 125.74 0 002.53-.451l-29.992-159.2c.186-.035.373-.068.558-.099l26.904 159.75zm7.557-1.499c1.68-.384 3.349-.8 5.006-1.248L51.153 122.358c.378-.102.757-.197 1.136-.283l36.143 157.917zm9.98-2.698a131.955 131.955 0 004.922-1.647L48.876 123.071c.377-.134.756-.261 1.137-.381l48.399 154.604zm9.781-3.49a131.59 131.59 0 004.786-2.035L46.63 123.974c.368-.165.74-.324 1.116-.475l60.447 150.305zm9.494-4.261c1.559-.775 3.098-1.58 4.617-2.412L44.451 125.058c.355-.195.715-.383 1.079-.564l72.157 145.049zm9.131-5.003a129.85 129.85 0 004.405-2.765L42.372 126.306c.336-.22.678-.435 1.026-.644l83.42 138.878zm8.692-5.699a131.006 131.006 0 004.165-3.099L40.413 127.704c.316-.244.637-.483.964-.717l94.133 131.854zm8.2-6.356a131.952 131.952 0 003.898-3.408L38.589 129.237c.292-.266.59-.527.895-.782l104.226 124.03zm7.655-6.963c1.23-1.21 2.433-2.442 3.612-3.696L36.907 130.891c.268-.285.543-.566.823-.842l113.635 115.473zm7.073-7.527a132.807 132.807 0 003.307-3.961L35.371 132.659c.244-.303.494-.603.75-.897l122.317 106.233zm6.455-8.046a133.005 133.005 0 002.985-4.203L33.984 134.534c.219-.321.444-.638.675-.95l130.234 96.365zm5.804-8.521a131.56 131.56 0 002.649-4.425l-140.6-80.491c.194-.338.394-.672.6-1.001l137.351 85.917zm5.125-8.952a134.255 134.255 0 002.298-4.623L31.664 138.589c.167-.354.341-.704.522-1.05l143.636 74.937zm4.415-9.337a131.562 131.562 0 001.932-4.798L30.739 140.76c.141-.37.288-.735.442-1.097l149.056 63.476zm3.677-9.673a131.375 131.375 0 001.553-4.946L29.982 143.016c.112-.383.231-.763.357-1.138l153.575 51.588zm2.911-9.95c.42-1.676.807-3.362 1.161-5.059L29.4 145.341c.082-.393.172-.783.269-1.17l157.156 39.345zm2.122-10.164c.286-1.705.539-3.419.758-5.142L29.001 147.718c.051-.4.11-.798.176-1.193l159.77 26.827zm1.313-10.308c.15-1.72.267-3.445.35-5.177l-161.818-7.753c.019-.4.046-.8.08-1.198l161.388 14.128zm.496-10.359a131.52 131.52 0 00-.059-5.176l-161.925 4.985c-.013-.395-.017-.79-.014-1.186l161.998 1.377zm-.319-10.337c-.12-1.708-.273-3.416-.46-5.125L28.934 154.818a29.703 29.703 0 01-.103-1.151l161.606-11.319zm-1.115-10.204c-.126-.844-.26-1.688-.402-2.532L29.167 156.497c-.031-.183-.06-.368-.088-.553l160.243-23.8z" fill="url(#paint1_linear_21_16)" mask="url(#b)"/><mask id="c" fill="#fff"><ellipse rx="50.768" ry="50.842" transform="rotate(-9.571 444.5 -1042.432) skewX(-.029)"/></mask><path d="M269.508 44.222a92.378 92.378 0 00-.313-1.755l-79.598 15.005.038.217 79.873-13.467zm-1.037-5.238a92.643 92.643 0 00-.862-3.464l-78.201 21.125c.036.133.07.269.101.407l78.962-18.068zm-1.862-6.904a92.455 92.455 0 00-1.135-3.4l-76.309 27.187c.045.125.088.253.128.383l77.316-24.17zm-2.405-6.758a89.697 89.697 0 00-1.401-3.306l-73.934 33.111c.054.12.105.242.155.366l75.18-30.17zm-2.934-6.559a90.25 90.25 0 00-1.66-3.19L188.518 54.42c.063.115.124.232.182.35l72.57-36.007zm-3.444-6.31a90.32 90.32 0 00-1.905-3.045l-67.81 44.332c.073.11.143.223.211.336l69.504-41.623zm-3.927-6.01a90.35 90.35 0 00-2.137-2.884l-64.114 49.53c.082.105.161.213.239.322l66.012-46.969zm-4.384-5.68a90.307 90.307 0 00-2.353-2.701l-60.034 54.405c.091.1.18.203.267.306l62.12-52.01zm-4.808-5.307a91.681 91.681 0 00-2.554-2.507l-55.599 58.933c.1.094.198.19.294.287l57.859-56.713zm-5.203-4.91a91.58 91.58 0 00-2.739-2.298l-50.833 63.09c.107.087.213.176.317.266l53.255-61.058zm-5.566-4.486a92.867 92.867 0 00-2.91-2.076l-45.761 66.86c.114.078.226.158.337.24l48.334-65.024zm-5.9-4.038a91.428 91.428 0 00-3.065-1.843l-40.406 70.225c.119.069.237.14.354.213l43.117-68.595zm-6.201-3.567a91.36 91.36 0 00-3.203-1.6l-34.793 73.169c.123.058.245.119.366.182l37.63-71.75zm-6.468-3.074a91.598 91.598 0 00-3.324-1.346l-28.948 75.67c.125.048.25.098.374.151l31.898-74.475zm-6.702-2.562a91.012 91.012 0 00-3.426-1.082L182.342 49.45c.126.037.253.077.379.12l25.946-76.75zm-6.893-2.028a90.977 90.977 0 00-3.505-.81L181.58 49.258c.127.027.255.056.381.088l19.813-78.555zm-7.042-1.48a90.898 90.898 0 00-3.562-.53l-10.359 80.347c.129.017.258.036.385.057l13.536-79.874zm-7.143-.918a90.685 90.685 0 00-3.589-.245l-3.965 80.911c.13.007.26.016.389.027l7.165-80.693zm-7.182-.348a91.105 91.105 0 00-3.593.038l2.43 80.97a10.2 10.2 0 01.398-.005l.765-81.003zm-7.177.218c-1.186.083-2.374.19-3.562.32l8.761 80.527c.139-.016.276-.028.411-.037l-5.61-80.81zm-7.097.775c-.588.088-1.176.181-1.764.28l13.427 79.88c.072-.013.143-.024.214-.034l-11.877-80.126zm-1.764.28c-.587.1-1.173.204-1.757.314l14.971 79.604c.07-.014.141-.026.213-.038l-13.427-79.88zm-5.247 1.042a91.673 91.673 0 00-3.47.867l21.117 78.195c.13-.035.264-.069.4-.1L159.122-29.64zm-6.915 1.873a90.71 90.71 0 00-3.407 1.141l27.203 76.288c.124-.044.25-.087.377-.127l-24.173-77.302zm-6.769 2.417a90.71 90.71 0 00-3.311 1.409l33.149 73.895c.118-.053.238-.104.359-.153l-30.197-75.15zm-6.567 2.95a89.863 89.863 0 00-3.193 1.669L174.579 50.3c.114-.062.229-.122.345-.18L138.871-22.4zm-6.316 3.462a91.155 91.155 0 00-3.047 1.914l44.401 67.728c.109-.072.22-.141.332-.209l-41.686-69.433zm-6.014 3.945a91.644 91.644 0 00-2.883 2.146l49.606 64.011c.105-.081.212-.16.319-.237l-47.042-65.92zm-5.677 4.402a91.726 91.726 0 00-2.701 2.362l54.486 59.91c.1-.09.201-.18.304-.265l-52.089-62.007zm-5.305 4.826a92.827 92.827 0 00-2.503 2.562l59.012 55.456c.094-.1.189-.197.286-.292L115.559-5.765zm-4.903 5.22a92.34 92.34 0 00-2.293 2.746l63.165 50.674c.086-.107.175-.213.265-.317L110.656-.546zm-4.476 5.58c-.71.958-1.4 1.93-2.071 2.916l66.926 45.59c.078-.114.158-.227.24-.338L106.18 5.035zm-4.027 5.91a92.36 92.36 0 00-1.838 3.07l70.281 40.229c.068-.12.139-.238.212-.355l-68.655-42.943zm-3.555 6.21a91.427 91.427 0 00-1.594 3.205l73.211 34.614c.058-.124.119-.246.183-.368l-71.8-37.451zm-3.062 6.473a91.497 91.497 0 00-1.34 3.325l75.699 28.771c.048-.126.099-.252.152-.377l-74.51-31.72zm-2.549 6.703a91.377 91.377 0 00-1.076 3.425l77.728 22.731a8.87 8.87 0 01.12-.383L92.987 30.331zm-2.017 6.89a91.08 91.08 0 00-.805 3.503l79.28 16.535c.027-.13.057-.258.089-.387L90.97 37.222zm-1.47 7.036a91.022 91.022 0 00-.526 3.558l80.34 10.224c.017-.131.036-.261.058-.391L89.499 44.257zm-.912 7.134a91.311 91.311 0 00-.243 3.584l80.9 3.853a8.58 8.58 0 01.027-.396l-80.683-7.04zm-.344 7.172c-.01 1.192.002 2.388.039 3.586l80.955-2.517a9.137 9.137 0 01-.004-.405l-80.99-.664zm.218 7.164c.083 1.184.189 2.37.318 3.556l80.516-8.823a10.23 10.23 0 01-.037-.417l-80.797 5.684zm.772 7.084c.087.587.18 1.174.279 1.76l79.872-13.467-.034-.218-80.117 11.925zm.279 1.76c.098.587.203 1.172.312 1.755l79.599-15.005c-.014-.072-.026-.144-.039-.217L89.513 74.57zm1.037 5.238a91.63 91.63 0 00.862 3.464l78.201-21.125a11.29 11.29 0 01-.102-.407L90.55 79.809zm1.862 6.904a91.398 91.398 0 001.135 3.4l76.308-27.187a12.972 12.972 0 01-.128-.383l-77.315 24.17zm2.404 6.758a90.923 90.923 0 001.401 3.306l73.934-33.112a9.984 9.984 0 01-.154-.365L94.816 93.47zm2.934 6.559a91.427 91.427 0 001.66 3.189l71.092-38.846a10.732 10.732 0 01-.182-.35L97.75 100.03zm3.444 6.309a93.743 93.743 0 001.905 3.046l67.81-44.332c-.072-.11-.142-.223-.21-.336l-69.505 41.622zm3.927 6.012a92.173 92.173 0 002.137 2.883l64.115-49.53a9.546 9.546 0 01-.239-.322l-66.013 46.969zm4.384 5.678a91.918 91.918 0 002.353 2.702l60.035-54.405a8.397 8.397 0 01-.267-.306l-62.121 52.009zm4.808 5.308a91.442 91.442 0 002.554 2.507l55.599-58.933a9.94 9.94 0 01-.293-.287l-57.86 56.713zm5.203 4.91a92.24 92.24 0 002.74 2.298l50.833-63.09a9.203 9.203 0 01-.317-.266l-53.256 61.058zm5.567 4.486a90.255 90.255 0 002.91 2.076l45.761-66.86a10.78 10.78 0 01-.338-.24l-48.333 65.024zm5.899 4.038a90.41 90.41 0 003.065 1.843l40.407-70.225a9.9 9.9 0 01-.354-.213l-43.118 68.595zm6.201 3.567a92.776 92.776 0 003.203 1.6l34.793-73.169a11.27 11.27 0 01-.365-.182l-37.631 71.751zm6.469 3.074c1.097.47 2.206.919 3.324 1.346l28.947-75.67a10.398 10.398 0 01-.373-.151l-31.898 74.475zm6.702 2.562c1.132.382 2.275.743 3.425 1.082l22.9-77.713a10.01 10.01 0 01-.379-.12l-25.946 76.751zm6.893 2.028c1.16.293 2.329.562 3.505.81l16.689-79.277a9.863 9.863 0 01-.382-.088l-19.812 78.555zm7.041 1.48a93.18 93.18 0 003.563.53l10.358-80.347a9.728 9.728 0 01-.385-.057l-13.536 79.874zm7.143.918c1.192.105 2.388.187 3.589.245l3.966-80.912a9.75 9.75 0 01-.39-.026l-7.165 80.693zm7.183.348a91.655 91.655 0 003.592-.038l-2.429-80.97a8.859 8.859 0 01-.398.005l-.765 81.003zm7.176-.218a93.473 93.473 0 003.563-.319l-8.762-80.528a10.64 10.64 0 01-.41.037l5.609 80.81zm7.098-.775a97.775 97.775 0 001.763-.28l-13.426-79.88c-.072.012-.144.024-.215.034l11.878 80.126zm1.763-.28a92.185 92.185 0 001.758-.314l-14.971-79.604-.213.038 13.426 79.88zm5.247-1.043a93.026 93.026 0 003.47-.866l-21.116-78.195c-.131.035-.264.069-.4.1l18.046 78.961zm6.916-1.872a90.71 90.71 0 003.407-1.141l-27.204-76.288a9.623 9.623 0 01-.377.127l24.174 77.302zm6.769-2.417a91.55 91.55 0 003.31-1.409l-33.149-73.895a9.891 9.891 0 01-.359.153l30.198 75.151zm6.567-2.95a90.235 90.235 0 003.193-1.669l-38.902-71.032a8.784 8.784 0 01-.345.18l36.054 72.521zm6.315-3.462a89.67 89.67 0 003.047-1.914l-44.4-67.728c-.11.072-.22.141-.332.209l41.685 69.433zm6.014-3.945a91.263 91.263 0 002.883-2.146l-49.606-64.011c-.105.081-.211.16-.319.237l47.042 65.92zm5.678-4.402a90.846 90.846 0 002.7-2.362l-54.486-59.91c-.099.09-.201.18-.303.265l52.089 62.007zm5.304-4.826a91.616 91.616 0 002.503-2.563L186.952 66.54c-.093.1-.189.197-.286.292l56.795 57.726zm4.903-5.219a90.839 90.839 0 002.293-2.747l-63.165-50.674c-.086.107-.174.213-.264.317l61.136 53.104zm4.477-5.581c.709-.958 1.4-1.931 2.071-2.916l-66.927-45.59c-.078.114-.158.227-.24.338l65.096 48.168zm4.026-5.911a90.457 90.457 0 001.838-3.069l-70.28-40.229c-.069.12-.14.238-.213.355l68.655 42.943zm3.555-6.209a91.168 91.168 0 001.594-3.206l-73.21-34.613c-.059.124-.12.246-.183.368l71.799 37.451zm3.062-6.473a90.172 90.172 0 001.34-3.325l-75.699-28.77a9.052 9.052 0 01-.152.377l74.511 31.719zm2.549-6.703c.381-1.133.74-2.274 1.077-3.425l-77.728-22.731c-.038.128-.078.255-.12.383l76.771 25.773zm2.018-6.89c.29-1.16.559-2.328.804-3.503l-79.28-16.535a8.65 8.65 0 01-.089.387l78.565 19.65zm1.47-7.036c.198-1.18.374-2.366.526-3.558l-80.341-10.224c-.016.131-.036.261-.057.391l79.872 13.391zm.911-7.134a90.54 90.54 0 00.243-3.584l-80.899-3.853c-.007.133-.016.265-.027.396l80.683 7.04zm.345-7.172a93.339 93.339 0 00-.039-3.586l-80.956 2.517c.005.136.006.271.005.405l80.99.664zm-.219-7.164a93.08 93.08 0 00-.318-3.556l-80.516 8.823c.016.14.028.28.038.417l80.796-5.684zm-.772-7.084a97.007 97.007 0 00-.278-1.76l-79.873 13.467.035.218 80.116-11.925zm39.658-8.494a140.04 140.04 0 00-.449-2.524L149.797 64.975a27.465 27.465 0 01-.098-.552l159.745-26.935zm-1.492-7.538c-.383-1.675-.797-3.34-1.243-4.993l-156.401 42.25a30.374 30.374 0 01-.28-1.121L307.952 29.95zm-2.685-9.954a131.571 131.571 0 00-1.639-4.91L151.011 69.46a30.277 30.277 0 01-.376-1.125l154.632-48.34zm-3.472-9.759a130.99 130.99 0 00-2.025-4.777L151.902 71.683a30.75 30.75 0 01-.469-1.105l150.362-60.341zM297.555.76a131.738 131.738 0 00-2.399-4.61L152.972 73.844a30.987 30.987 0 01-.557-1.07L297.555.76zm-4.977-9.118a131.645 131.645 0 00-2.752-4.4L154.207 75.906a28.982 28.982 0 01-.637-1.018L292.578-8.358zm-5.673-8.684a132.975 132.975 0 00-3.085-4.164L155.591 77.853a30.224 30.224 0 01-.71-.958l132.024-93.937zm-6.329-8.199a131.558 131.558 0 00-3.397-3.9L157.111 79.669a28.786 28.786 0 01-.776-.89l124.241-104.02zm-6.939-7.66a132.842 132.842 0 00-3.684-3.616L158.755 81.348a29.317 29.317 0 01-.837-.822L273.637-32.9zm-7.505-7.082a131.723 131.723 0 00-3.951-3.314L160.515 82.883a28.61 28.61 0 01-.894-.75L266.132-39.982zm-8.028-6.47a132.01 132.01 0 00-4.196-2.993l-91.522 133.72a30.21 30.21 0 01-.949-.677l96.667-130.05zm-8.507-5.822a131.149 131.149 0 00-4.421-2.66L164.364 85.518a28.886 28.886 0 01-1.002-.603l86.235-137.189zm-8.945-5.145a131.382 131.382 0 00-4.621-2.309L166.444 86.608a30.738 30.738 0 01-1.053-.526L240.652-57.42zm-9.334-4.437a131.859 131.859 0 00-4.8-1.943L168.623 87.54a29.44 29.44 0 01-1.101-.446l63.796-148.95zm-9.678-3.699a131.473 131.473 0 00-4.949-1.563L170.892 88.306a30.714 30.714 0 01-1.145-.361l51.893-153.5zm-9.96-2.931a131.6 131.6 0 00-5.066-1.17L173.235 88.896a30.62 30.62 0 01-1.18-.272L211.68-68.487zm-10.18-2.139a131.18 131.18 0 00-5.151-.766L175.632 89.301a30.646 30.646 0 01-1.204-.179L201.5-70.626zm-10.328-1.327c-1.723-.152-3.453-.27-5.189-.355l-7.931 161.823a30.46 30.46 0 01-1.21-.083l14.33-161.385zm-10.383-.504c-1.726-.016-3.456.003-5.189.056l4.859 161.938c-.4.012-.799.016-1.2.013l1.53-162.007zm-10.364.315c-1.712.12-3.425.273-5.138.46L182.81 89.374a30.01 30.01 0 01-1.165.105l-11.22-161.62zm-10.231 1.118c-.846.126-1.692.26-2.538.403l26.853 159.758a29.19 29.19 0 01-.56.09L160.194-71.025zm-2.538.403c-.846.142-1.689.293-2.53.451l29.942 159.208c-.187.035-.373.068-.559.1l-26.853-159.76zm-7.557 1.5c-1.68.386-3.349.802-5.005 1.25l42.233 156.39a29.67 29.67 0 01-1.135.284L150.099-69.12zm-9.979 2.702a131.545 131.545 0 00-4.922 1.65l54.407 152.575a30.43 30.43 0 01-1.138.38L140.12-66.418zm-9.781 3.494a131.492 131.492 0 00-4.787 2.036l66.299 147.79c-.369.166-.741.325-1.117.476L130.339-62.925zm-9.495 4.264a131.92 131.92 0 00-4.617 2.413L194.03 85.817c-.355.195-.715.383-1.079.564L120.844-58.66zm-9.132 5.006a132.146 132.146 0 00-4.404 2.767l88.801 135.456c-.337.22-.678.436-1.026.644L111.712-53.655zm-8.692 5.702a131.555 131.555 0 00-4.165 3.1L198.068 83.17c-.316.244-.637.483-.964.717L103.02-47.953zm-8.2 6.36a131.723 131.723 0 00-3.9 3.41l108.972 119.82c-.292.265-.59.526-.895.782L94.819-41.594zm-7.658 6.966a131.927 131.927 0 00-3.612 3.697L201.574 79.98c-.268.286-.542.567-.823.843L87.162-34.627zm-7.074 7.53a130.105 130.105 0 00-3.307 3.962L203.11 78.212a30.6 30.6 0 01-.75.898L80.088-27.098zm-6.456 8.048a132.23 132.23 0 00-2.987 4.205l133.853 91.18c-.218.322-.444.639-.675.951L73.632-19.049zm-5.807 8.523a132.244 132.244 0 00-2.65 4.427l140.561 80.457c-.194.338-.394.672-.6 1.002L67.826-10.526zM62.698-1.57A132.205 132.205 0 0060.4 3.054L206.82 72.28c-.168.354-.342.704-.523 1.05L62.698-1.57zm-4.417 9.34a131.95 131.95 0 00-1.934 4.798L207.744 70.11c-.14.37-.288.735-.442 1.097L58.282 7.768zm-3.68 9.675a131.567 131.567 0 00-1.554 4.946l155.455 45.463a30.51 30.51 0 01-.357 1.138L54.601 17.444zm-2.914 9.952c-.42 1.675-.807 3.362-1.161 5.06l158.559 33.071c-.082.393-.172.784-.269 1.17L51.687 27.397zM49.563 37.56a132.89 132.89 0 00-.76 5.142L209.484 63.15c-.051.4-.109.798-.176 1.194L49.563 37.56zm-1.316 10.31a131.65 131.65 0 00-.352 5.177l161.8 7.706c-.019.4-.047.8-.082 1.198L48.247 47.871zm-.499 10.36a133.5 133.5 0 00.057 5.176l161.911-5.034c.012.395.016.79.013 1.187l-161.98-1.33zm.316 10.338c.12 1.707.272 3.416.459 5.125l161.031-17.645c.042.382.076.766.103 1.152L48.064 68.569zm1.112 10.205c.125.844.259 1.688.4 2.531L209.323 54.37c.03.184.06.368.087.554L49.176 78.774zm.4 2.531c.142.844.292 1.685.45 2.524l159.197-30.011c.035.184.068.368.099.552L49.577 81.305zm1.493 7.538c.382 1.675.797 3.34 1.242 4.993l156.402-42.25c.101.373.194.747.279 1.12L51.069 88.844zm2.685 9.954a130.212 130.212 0 001.639 4.911L208.01 49.333c.132.373.258.748.375 1.125L53.754 98.798zm3.472 9.759c.644 1.609 1.32 3.201 2.024 4.777L207.12 47.11c.163.365.319.733.468 1.105L57.226 108.556zm4.24 9.477a130.927 130.927 0 002.398 4.609L206.048 44.95c.192.352.378.709.557 1.07l-145.14 72.013zm4.976 9.118c.89 1.488 1.808 2.954 2.752 4.4l135.62-88.664c.218.334.431.674.637 1.018L66.442 127.151zm5.673 8.684a130.982 130.982 0 003.086 4.164L203.43 40.94c.242.314.479.633.71.958L72.115 135.835zm6.33 8.199a131.942 131.942 0 003.396 3.9L201.91 39.124c.263.29.522.588.776.89L78.445 144.035zm6.939 7.66a131.067 131.067 0 003.684 3.616L200.265 37.445c.284.268.563.542.837.822L85.384 151.694zm7.504 7.082a131.286 131.286 0 003.952 3.314L198.505 35.91c.303.243.601.493.894.75L92.889 158.775zm8.028 6.469a129.806 129.806 0 004.196 2.994l91.522-133.72c.321.22.637.445.949.677l-96.667 130.049zm8.507 5.823c1.456.915 2.93 1.801 4.421 2.659l80.813-140.451c.338.195.672.395 1.002.603l-86.236 137.189zm8.945 5.145c1.524.799 3.064 1.569 4.621 2.309l69.587-146.337c.355.17.706.344 1.053.526l-75.261 143.502zm9.335 4.437c1.584.678 3.184 1.326 4.799 1.943l57.895-151.34c.371.142.739.29 1.101.446L127.703 180.65zm9.677 3.699c1.637.552 3.287 1.074 4.95 1.563l45.798-155.425c.386.113.767.234 1.145.361L137.38 184.35zm9.961 2.931c1.677.422 3.366.813 5.066 1.17l33.379-158.553c.396.083.789.174 1.179.272L147.341 187.28zm10.179 2.139c1.708.289 3.425.544 5.151.766l20.717-160.693c.404.052.805.111 1.204.179L157.52 189.419zm10.329 1.327c1.723.152 3.453.271 5.188.355l7.932-161.823c.404.02.807.047 1.21.082l-14.33 161.386zm10.382.504c1.727.016 3.457-.003 5.19-.056l-4.859-161.938c.399-.012.799-.017 1.199-.013l-1.53 162.007zm10.364-.315c1.712-.12 3.425-.274 5.138-.461L176.211 29.42c.386-.042.774-.077 1.165-.105l11.219 161.62zm10.231-1.118c.847-.126 1.693-.26 2.538-.403L174.511 29.656c.186-.032.373-.061.561-.09l23.754 160.251zm2.538-.403c.846-.142 1.689-.293 2.53-.451L173.952 29.755c.187-.035.373-.068.559-.1l26.853 159.759zm7.557-1.501a131.16 131.16 0 005.006-1.25l-42.234-156.39a31.34 31.34 0 011.135-.283l36.093 157.923zm9.98-2.701a132.096 132.096 0 004.922-1.649L169.416 30.987a30.92 30.92 0 011.137-.38l48.348 154.605zm9.781-3.494a131.607 131.607 0 004.786-2.036L167.17 31.892c.368-.166.741-.325 1.116-.476l60.396 150.302zm9.495-4.264a131.895 131.895 0 004.616-2.414L164.991 32.976a29 29 0 011.079-.564l72.107 145.042zm9.131-5.006a129.9 129.9 0 004.405-2.767L162.912 34.225c.336-.22.678-.436 1.025-.644l83.371 138.867zm8.692-5.702c1.411-1.008 2.8-2.042 4.166-3.101L160.953 35.623c.315-.244.636-.483.963-.717L256 166.746zm8.201-6.359a132.24 132.24 0 003.899-3.41L159.128 37.157c.292-.266.591-.527.895-.783l104.178 124.013zm7.657-6.967a129.74 129.74 0 003.612-3.697L157.446 38.813c.268-.286.543-.567.823-.843l113.589 115.45zm7.074-7.529a131.41 131.41 0 003.308-3.963L155.91 40.581a30.6 30.6 0 01.75-.898L278.932 145.89zm6.457-8.049a133.12 133.12 0 002.986-4.205l-133.853-91.18c.219-.322.444-.639.675-.951l130.192 96.336zm5.806-8.523a132.71 132.71 0 002.651-4.427L153.284 44.435c.194-.338.394-.672.6-1.002l137.311 85.886zm5.127-8.955a131.704 131.704 0 002.299-4.625l-146.42-69.227c.167-.354.341-.704.522-1.05l143.599 74.902zm4.417-9.339c.675-1.585 1.32-3.185 1.934-4.799L151.276 48.683c.141-.37.288-.735.442-1.096l149.021 63.438zm3.68-9.676a131.81 131.81 0 001.555-4.946L150.518 50.94c.112-.383.231-.763.358-1.138l153.543 51.547zm2.914-9.952c.42-1.675.807-3.362 1.162-5.06l-158.56-33.071c.083-.393.172-.784.269-1.17l157.129 39.301zm2.124-10.165c.287-1.705.54-3.42.76-5.142L149.536 55.642c.051-.4.11-.797.176-1.193l159.745 26.783zm1.317-10.31c.15-1.72.268-3.445.351-5.177l-161.799-7.706c.019-.4.046-.8.081-1.198l161.367 14.08zm.498-10.36a131.56 131.56 0 00-.057-5.176l-161.91 5.034a29.3 29.3 0 01-.013-1.187l161.98 1.33zm-.316-10.338a132.437 132.437 0 00-.458-5.125L149.467 62.744a29.015 29.015 0 01-.103-1.152l161.592-11.368zm-1.112-10.205c-.125-.844-.258-1.688-.4-2.531L149.699 64.423c-.031-.183-.06-.368-.088-.554l160.233-23.85z" fill="url(#paint2_linear_21_16)" mask="url(#c)"/><path stroke="#DD63BD" d="M143.202 182.353v103.363"/><path transform="rotate(60.038 -41.177 230.553) skewX(.077)" stroke="#DD63BD" d="M0-.5h103.323"/><defs><linearGradient id="paint0_linear_21_16" x1="117.976" y1="54.124" x2="140.317" y2="186.626" gradientUnits="userSpaceOnUse"><stop stop-color="#EF4DB1"/><stop offset=".471" stop-color="#4BC3FA"/><stop offset="1" stop-color="#F355B4"/></linearGradient><linearGradient id="paint1_linear_21_16" x1="50.536" y1="101.344" x2="68.052" y2="205.426" gradientUnits="userSpaceOnUse"><stop stop-color="#EF4DB1"/><stop offset=".471" stop-color="#4BC3FA"/><stop offset="1" stop-color="#F355B4"/></linearGradient><linearGradient id="paint2_linear_21_16" x1="171.083" y1="9.258" x2="188.631" y2="113.334" gradientUnits="userSpaceOnUse"><stop stop-color="#EF4DB1"/><stop offset=".471" stop-color="#4BC3FA"/><stop offset="1" stop-color="#F355B4"/></linearGradient></defs></svg>