<svg width="35" height="29" fill="none" xmlns="http://www.w3.org/2000/svg"><path d="M32.41.003c-.453.02-.88.14-1.258.276h-.005c-.384.141-2.21.85-4.98 1.922l-9.942 3.862C9.095 8.833 2.082 11.56 2.082 11.56l.085-.03s-.484.146-.99.466a2.652 2.652 0 00-.788.704c-.247.335-.447.849-.374 1.378.121.897.753 1.436 1.205 1.732.458.3.894.441.894.441h.01L8.7 18.294c.295.873 2.004 6.055 2.414 7.248.242.714.479 1.16.773 1.5.142.174.31.32.51.436.08.044.164.078.248.107a.24.24 0 00.084.024l-.069-.014c.022.005.037.02.053.024.053.015.09.02.158.03 1.041.29 1.878-.306 1.878-.306l.047-.035 3.882-3.26 6.506 4.605.147.058c1.357.548 2.73.242 3.455-.296.732-.544 1.015-1.238 1.015-1.238l.048-.111 5.028-23.76c.142-.586.179-1.135.021-1.668a2.271 2.271 0 00-1.052-1.3A2.689 2.689 0 0032.41.002zm-.137 2.547c-.006.078.01.068-.027.218v.015l-4.98 23.512c-.022.033-.058.106-.158.179-.106.078-.19.126-.626-.034l-7.958-5.628-4.807 4.041 1.01-5.948 13-11.178c.537-.461.358-.558.358-.558.037-.563-.81-.165-.81-.165l-16.394 9.369-.005-.025-7.858-2.44v-.005c-.006 0-.016-.005-.021-.005a.381.381 0 00.042-.014l.042-.02.042-.014 14.148-5.497c3.571-1.388 7.169-2.785 9.936-3.862a1157.13 1157.13 0 014.928-1.902c.11-.04.058-.04.136-.04z" fill="#E1E1E1"/></svg>