<svg width="47" height="47" fill="none" xmlns="http://www.w3.org/2000/svg"><path d="M35.25 17.625h-5.875v-4.406h5.875v4.406zM8.812 10.281h29.376v17.625h-11.75V26.47a4.858 4.858 0 00-2.688-4.346 4.387 4.387 0 001.128-3.93c-.347-1.732-1.785-3.135-3.524-3.437a4.41 4.41 0 00-5.198 4.337c0 1.176.469 2.238 1.22 3.028a4.857 4.857 0 00-2.689 4.346v1.438H8.814V10.281zm19.094 7.344c0 .81.658 1.469 1.469 1.469h5.875a1.47 1.47 0 001.469-1.469v-4.406a1.47 1.47 0 00-1.469-1.469h-5.875a1.47 1.47 0 00-1.469 1.469v4.406zm-4.829 5.803l-.68-.34a4.36 4.36 0 01-1.834.412 4.36 4.36 0 01-1.835-.411l-.68.339a4.397 4.397 0 00-1.892 3.619v.86h8.813v-.86a4.397 4.397 0 00-1.892-3.619zm-2.515-1.397a2.94 2.94 0 002.938-2.937 2.94 2.94 0 00-2.938-2.938 2.94 2.94 0 00-2.937 2.938 2.94 2.94 0 002.938 2.937zm22.032 10.282H4.406V10.28a4.406 4.406 0 014.407-4.406h29.374a4.406 4.406 0 014.407 4.406v22.032zM39.656 10.28a1.47 1.47 0 00-1.468-1.469H8.811a1.47 1.47 0 00-1.468 1.47v17.624a1.47 1.47 0 001.468 1.469h29.376a1.47 1.47 0 001.468-1.469V10.281zm2.938 23.5H27.906a1.47 1.47 0 01-1.468 1.469h-5.875a1.47 1.47 0 01-1.47-1.469H4.407a2.937 2.937 0 100 5.875h38.188a2.937 2.937 0 100-5.875z" fill="#4DEF7A"/></svg>