<svg width="46" height="43" fill="none" xmlns="http://www.w3.org/2000/svg"><g clip-path="url(#clip0_67_13)"><path d="M14.77 24.154l-5.91 3.197-1.918-3.545 5.91-3.197 1.917 3.545zM35.752 3.636l8.951 16.546a4.031 4.031 0 01-1.627 5.464L14.71 40.992a4.031 4.031 0 01-5.463-1.628L.296 22.818a4.031 4.031 0 011.628-5.464L30.289 2.008a4.031 4.031 0 015.463 1.628zm-12.468 23.55l-4.728 2.558a.672.672 0 00.64 1.182l4.727-2.557a.672.672 0 00-.64-1.182zm-15.607.805a1.344 1.344 0 001.821.542l5.91-3.197a1.344 1.344 0 00.542-1.82l-1.918-3.547a1.344 1.344 0 00-1.821-.542l-5.91 3.197a1.344 1.344 0 00-.542 1.821l1.918 3.546zm3.517 6.5a.672.672 0 00.91.271l4.728-2.557a.672.672 0 00-.64-1.182l-4.727 2.558a.672.672 0 00-.271.91zm17.825-6.588a.672.672 0 00-.91-.27l-15.365 8.311a.672.672 0 00.64 1.182l15.364-8.312a.672.672 0 00.27-.91zm2.267-4.281a.672.672 0 00-.91-.272l-4.728 2.558a.672.672 0 00.639 1.182l4.727-2.558a.672.672 0 00.272-.91zm7.091-3.837a.672.672 0 00-.91-.271l-4.728 2.558a.672.672 0 00.64 1.181l4.727-2.557a.672.672 0 00.271-.91z" fill="#4DEF7A"/></g><defs><clipPath id="clip0_67_13"><path fill="#fff" d="M0 0h46v43H0z"/></clipPath></defs></svg>