<svg width="51" height="51" fill="none" xmlns="http://www.w3.org/2000/svg"><path d="M39.844 3.188c-3.167 0-6.313.51-9.317 1.512l-2.004.668a9.553 9.553 0 01-6.048 0L20.472 4.7a29.417 29.417 0 00-9.316-1.513 9.562 9.562 0 00-9.562 9.563 9.562 9.562 0 009.562 9.563h2.14c3.732 0 7.311-1.483 9.95-4.122a3.187 3.187 0 014.508 0 14.07 14.07 0 009.95 4.122h2.14a9.562 9.562 0 009.562-9.563 9.562 9.562 0 00-9.562-9.563zM17.84 13.243c-.758.564-1.918 1.1-3.585 1.1-1.668 0-2.826-.536-3.586-1.1a1.603 1.603 0 010-2.582c.76-.564 1.92-1.1 3.585-1.1 1.666 0 2.826.536 3.586 1.1a1.601 1.601 0 010 2.582zm22.313 0c-.759.564-1.919 1.1-3.586 1.1-1.667 0-2.826-.536-3.586-1.1a1.603 1.603 0 010-2.582c.76-.564 1.92-1.1 3.586-1.1s2.826.536 3.586 1.1a1.601 1.601 0 010 2.582zM2.305 5.988l-.689-4.131a1.593 1.593 0 113.143-.525l.344 2.061a11.18 11.18 0 00-2.798 2.595zm6.16 17.576l4.263 25.58a1.594 1.594 0 11-3.143.524L4.979 22.03a11.03 11.03 0 003.485 1.534z" fill="#4DEF7A"/></svg>