<svg width="42" height="42" fill="none" xmlns="http://www.w3.org/2000/svg"><path d="M19.688 3.938c-4.585 0-8.744 1.826-11.813 4.778V5.25a3.937 3.937 0 013.938-3.938h15.75A3.937 3.937 0 0131.5 5.25v3.466c-3.069-2.951-7.228-4.778-11.813-4.778zM7.874 33.284v3.466a3.937 3.937 0 003.938 3.938h15.75A3.937 3.937 0 0031.5 36.75v-3.466c-3.069 2.952-7.228 4.779-11.813 4.779-4.584 0-8.743-1.828-11.812-4.78zm30.188-13.596v2.625c0 .724-.589 1.312-1.313 1.312H35.2c-1.25 7.446-7.71 13.125-15.513 13.125-8.697 0-15.75-7.052-15.75-15.75S10.99 5.25 19.688 5.25c7.802 0 14.262 5.68 15.514 13.125h1.549c.724 0 1.313.588 1.313 1.313zm-19.688-10.5A1.313 1.313 0 1021 9.187a1.313 1.313 0 00-2.626 0zM9.187 21a1.313 1.313 0 10-2.625.001A1.313 1.313 0 009.187 21zM21 32.813a1.313 1.313 0 10-2.626 0 1.313 1.313 0 002.626 0zm7.027-4.403l-7.091-7.091c.026-.104.064-.206.064-.319 0-.48-.27-.883-.656-1.112v-6.763a.656.656 0 00-1.313 0v6.763c-.386.229-.656.632-.656 1.112 0 .724.588 1.313 1.313 1.313.112 0 .215-.039.32-.065l7.091 7.092a.654.654 0 00.928 0 .658.658 0 000-.93zM32.812 21a1.313 1.313 0 10-2.625.001A1.313 1.313 0 0032.812 21z" fill="#4DEF7A"/></svg>