<svg width="29" height="24" fill="none" xmlns="http://www.w3.org/2000/svg"><path d="M19.049 4.97c5.26 0 9.524 4.197 9.524 9.374 0 1.603-.41 3.11-1.13 4.43l1.124 3.935a.59.59 0 01-.676.66l-3.805-1.08a9.584 9.584 0 01-5.037 1.429c-5.26 0-9.525-4.197-9.525-9.374 0-5.177 4.265-9.375 9.525-9.375z" fill="#FF6AA7"/><path d="M19.049 4.97c5.26 0 9.524 4.197 9.524 9.374 0 1.603-.41 3.11-1.13 4.43l1.124 3.935a.59.59 0 01-.676.66l-3.805-1.08a9.584 9.584 0 01-5.037 1.429c-5.26 0-9.525-4.197-9.525-9.374 0-5.177 4.265-9.375 9.525-9.375z" fill="#4DEF7A"/><path d="M8.334 14.344c0-4.89 3.404-9 7.997-10.189A8.957 8.957 0 008.929.282C3.998.282 0 4.217 0 9.071a8.63 8.63 0 001.049 4.13l-1.043 3.65a.59.59 0 00.676.66l3.515-.997a8.982 8.982 0 004.732 1.345l.03-.001a10.316 10.316 0 01-.625-3.514z" fill="#C65584"/><path d="M8.334 14.344c0-4.89 3.404-9 7.997-10.189A8.957 8.957 0 008.929.282C3.998.282 0 4.217 0 9.071a8.63 8.63 0 001.049 4.13l-1.043 3.65a.59.59 0 00.676.66l3.515-.997a8.982 8.982 0 004.732 1.345l.03-.001a10.316 10.316 0 01-.625-3.514z" fill="#63D081"/></svg>