<svg width="27" height="28" fill="none" xmlns="http://www.w3.org/2000/svg"><path d="M.06 19.613v7.297c0 .31.251.56.56.56h25.82c.31 0 .56-.25.56-.56v-7.297H.06zm3.367 5.613a1.123 1.123 0 11.001-2.246 1.123 1.123 0 010 2.246zm3.368 0a1.123 1.123 0 110-2.246 1.123 1.123 0 010 2.246zm3.367 0a1.123 1.123 0 11.001-2.246 1.123 1.123 0 010 2.246zm16.839-17.4V18.49h-4.49V7.265h3.928c.31 0 .562.251.562.561zM16.898 18.49H.06V7.826a.56.56 0 01.56-.561h16.278V18.49z" fill="#4DEF7A"/><path d="M.06 19.613v7.297c0 .31.251.56.56.56h25.82c.31 0 .56-.25.56-.56v-7.297H.06zm3.367 5.613a1.123 1.123 0 11.001-2.246 1.123 1.123 0 010 2.246zm3.368 0a1.123 1.123 0 110-2.246 1.123 1.123 0 010 2.246zm3.367 0a1.123 1.123 0 11.001-2.246 1.123 1.123 0 010 2.246zm16.839-17.4V18.49h-4.49V7.265h3.928c.31 0 .562.251.562.561zM16.898 18.49H.06V7.826a.56.56 0 01.56-.561h16.278V18.49zM.495 6.142c-.669 0-.652-.96 0-1.109L20.192.557c1.458-.327 1.94 1.86.497 2.19L5.691 6.142H.495zm20.892 1.123H18.02V18.49h3.367V7.265z" fill="#4DEF7A"/></svg>