<svg width="30" height="23" fill="none" xmlns="http://www.w3.org/2000/svg"><path d="M14.175 22.265l-4.447-4.53c-.236-.24-.245-.642.006-.868 1.284-1.155 3-1.71 4.891-1.71 1.892 0 3.608.555 4.892 1.712.251.225.242.626.006.867l-4.447 4.53a.6.6 0 01-.9 0zm.45-14.421c-3.73 0-7.123 1.309-9.682 3.634a.603.603 0 00-.037.842l2.386 2.705a.602.602 0 00.864.031c1.707-1.563 3.977-2.337 6.47-2.337 2.492 0 4.76.774 6.47 2.337.252.23.637.225.864-.031l2.386-2.705a.603.603 0 00-.038-.842c-2.56-2.325-5.953-3.634-9.683-3.634zM.152 6.934l2.38 2.696c.223.252.6.266.85.04 2.98-2.69 6.92-4.264 11.243-4.264s8.263 1.574 11.243 4.266c.249.224.628.21.85-.04l2.38-2.697a.61.61 0 00-.043-.852C25.228 2.638 20.178.53 14.625.53 9.073.531 4.022 2.638.196 6.081a.61.61 0 00-.044.852z" fill="#4DEF7A"/></svg>