<svg width="77" height="132" fill="none" xmlns="http://www.w3.org/2000/svg"><path d="M60.616 130.656v-1.552h4.48v-5.52h-4.48v-1.552H71v1.552h-4.816v5.52H71v1.552H60.616zm10.544-13.601c0 .736-.07 1.307-.208 1.712a1.482 1.482 0 01-.736.864c-.352.171-.859.256-1.52.256-.587 0-1.04-.08-1.36-.24-.33-.17-.565-.453-.704-.848-.139-.405-.208-.976-.208-1.712v-2.32h-1.232c-.288 0-.507.059-.656.176-.16.107-.272.294-.336.56-.064.256-.096.635-.096 1.136 0 .8.064 1.686.192 2.656H63.24a31.894 31.894 0 01-.144-2.864c0-.896.07-1.557.208-1.984.128-.426.357-.72.688-.88.33-.16.843-.24 1.536-.24H71v1.392h-.736c.597.118.896.896.896 2.336zm-.944-.24a6.71 6.71 0 00-.112-1.328c-.096-.48-.32-.72-.672-.72H67.32v2.224c0 .459.037.79.112.992a.579.579 0 00.384.4c.192.064.501.096.928.096.384 0 .683-.037.896-.112a.786.786 0 00.448-.4c.085-.192.128-.48.128-.864v-.288zm.8-5.681c0 .16-.016.315-.048.464h-1.232c.032-.149.048-.299.048-.448 0-.459-.33-.821-.992-1.088-.672-.277-1.91-.416-3.712-.416h-1.824v-5.264H71v1.44h-6.8v2.544h1.12c1.76 0 3.152.208 4.176.624 1.013.416 1.52 1.131 1.52 2.144zm-7.76-16.153H71v1.44h-5.712L71 100.453v1.44h-7.744v-1.44h5.904l-5.904-4.112v-1.36zm4.256-7.727c.736.139 1.104.987 1.104 2.544 0 .992-.176 1.691-.528 2.096-.363.395-.928.592-1.696.592h-3.136v-1.44h3.04c.49 0 .827-.128 1.008-.384.181-.256.272-.682.272-1.28 0-.586-.037-1.029-.112-1.328-.085-.309-.219-.517-.4-.624-.181-.117-.437-.176-.768-.176h-3.04v-1.44H71v1.44h-3.488zm-4.256-3.94v-1.44h3.216v-3.807h-3.216v-1.44H71v1.44h-3.472v3.808H71v1.44h-7.744zm0-9.187v-1.472h2.8v-1.504c0-.661.048-1.184.144-1.568.096-.395.267-.683.512-.864.235-.181.57-.272 1.008-.272h1.6c1.12 0 1.68.944 1.68 2.832v2.848h-7.744zm0-6.912v-1.44H71v1.44h-7.744zm6.816 4.16c0-.31-.043-.63-.128-.96-.096-.373-.368-.56-.816-.56h-.976c-.31 0-.544.043-.704.128-.16.075-.272.219-.336.432-.064.203-.096.512-.096.928v1.328h3.056v-1.296zm-6.816-15.004H71v1.44h-5.712L71 61.843v1.44h-7.744v-1.44h5.904l-5.904-4.112v-1.36zm-1.104 3.456c0 .715-.181 1.28-.544 1.696-.373.416-.87.64-1.488.672v-1.184c.832-.074 1.248-.47 1.248-1.184 0-.704-.416-1.098-1.248-1.184V57.46c.608.022 1.099.246 1.472.672.373.416.56.982.56 1.696zm1.104-9.637v-1.44h.832c-.661-.118-.992-.998-.992-2.64 0-.982.208-1.723.624-2.224a1.925 1.925 0 011.568-.753h3.184c.459 0 .859.07 1.2.209.341.127.608.298.8.511.181.192.325.46.432.8.107.331.176.662.208.992.032.3.048.662.048 1.088 0 .47-.053.902-.16 1.297-.117.383-.283.623-.496.72h3.664v1.44H63.256zm6.928-3.488c0-.555-.037-.977-.112-1.264-.085-.3-.235-.513-.448-.64-.213-.129-.539-.193-.976-.193H65.8c-.48 0-.837.065-1.072.193-.235.127-.39.34-.464.64-.085.287-.128.714-.128 1.28 0 .565.043.997.128 1.295.075.288.23.497.464.625.235.128.592.192 1.072.192h2.848c.427 0 .752-.064.976-.192.213-.14.363-.358.448-.657.075-.298.112-.725.112-1.28zm.976-8.162c0 .736-.07 1.306-.208 1.712a1.484 1.484 0 01-.736.864c-.352.17-.859.256-1.52.256-.587 0-1.04-.08-1.36-.24-.33-.17-.565-.453-.704-.848-.139-.405-.208-.976-.208-1.712v-2.32h-1.232c-.288 0-.507.058-.656.176-.16.107-.272.293-.336.56-.064.256-.096.635-.096 1.136 0 .8.064 1.685.192 2.656H63.24a31.907 31.907 0 01-.144-2.864c0-.896.07-1.557.208-1.984.128-.427.357-.72.688-.88.33-.16.843-.24 1.536-.24H71v1.392h-.736c.597.117.896.896.896 2.336zm-.944-.24a6.68 6.68 0 00-.112-1.328c-.096-.48-.32-.72-.672-.72H67.32v2.224c0 .459.037.79.112.992a.58.58 0 00.384.4c.192.064.501.096.928.096.384 0 .683-.038.896-.112a.788.788 0 00.448-.4c.085-.192.128-.48.128-.864V38.3zm.944-9.105c0 .533-.01.922-.032 1.168a4.738 4.738 0 01-.16.816c-.085.33-.213.586-.384.768-.17.18-.421.335-.752.463-.32.129-.72.193-1.2.193h-2.848c-.864 0-1.483-.166-1.856-.497a2.198 2.198 0 01-.48-.544 1.93 1.93 0 01-.24-.736 8.43 8.43 0 01-.08-.8 11.705 11.705 0 01-.032-.991c0-.736.08-1.473.24-2.209h1.056c-.213.854-.32 1.648-.32 2.384 0 .555.043.966.128 1.232a.836.836 0 00.432.544c.203.096.517.145.944.145h3.168c.395 0 .688-.054.88-.16.192-.118.33-.32.416-.608.075-.3.112-.736.112-1.313a9.24 9.24 0 00-.304-2.335h1.088c.15.725.224 1.552.224 2.48zm-3.648-9.534c.736.138 1.104.986 1.104 2.544 0 .992-.176 1.69-.528 2.096-.363.394-.928.592-1.696.592h-3.136v-1.44h3.04c.49 0 .827-.128 1.008-.384.181-.256.272-.683.272-1.28 0-.587-.037-1.03-.112-1.328-.085-.31-.219-.518-.4-.624-.181-.118-.437-.176-.768-.176h-3.04v-1.44H71v1.44h-3.488zm3.648-7.204c0 2.368-.79 3.552-2.368 3.552h-3.056c-.939 0-1.61-.267-2.016-.8-.416-.544-.624-1.419-.624-2.624 0-1.142.197-1.963.592-2.464.395-.512 1.077-.768 2.048-.768h1.712v5.2h1.168c.533 0 .917-.187 1.152-.56.235-.374.352-.95.352-1.728 0-.736-.128-1.606-.384-2.608h1.104c.213.981.32 1.914.32 2.8zm-4.656-1.664h-1.216c-.47 0-.79.144-.96.432-.181.277-.272.757-.272 1.44 0 .661.09 1.141.272 1.44.17.298.49.448.96.448h1.216v-3.76zm-2.192-5.587v2.72h-1.056V1.062h1.056v2.704H71v1.44h-6.688zM42.95 66.272c0 8.747-5.949 16.102-14.02 18.248V109h18.884V24.021H28.93v24.002C37 50.17 42.95 57.526 42.95 66.272zm-38.372 0c0-8.85 6.09-16.276 14.306-18.322V24.02H0V109h18.884V84.594c-8.217-2.046-14.306-9.472-14.306-18.322z" fill="#49494A"/><path d="M21.918 65.482c-.438.994-.87 1.672-1.298 2.035-.427.363-.984.544-1.67.544-.675 0-1.232-.169-1.67-.507-.437-.337-.656-.86-.656-1.565 0-.696.295-1.253.827-1.67.531-.418 1.306-.627 2.451-.627v-4.935l-.103-.03c-1.879-.03-3.439.554-4.652 1.598-1.212 1.043-1.962 2.61-2.221 4.326H9.602v2.29h3.264c.18 2.002.813 3.363 1.902 4.496 1.088 1.134 2.473 1.682 4.153 1.682 1.859 0 3.267-.543 4.227-1.612.96-1.068 1.905-2.78 2.84-5.126.418-.963.842-1.637 1.275-2.015.432-.377 1.041-.567 1.826-.567.676 0 1.223.183 1.64.55.418.368.627.91.627 1.626 0 .854-.255 1.55-.797 2.087-.541.536-1.5.804-2.645.804v4.906l.074.045c2.235.04 3.925-.547 5.083-1.82 1.158-1.271 1.824-2.768 2.012-4.77h3.131v-2.29h-3.116c-.189-2.002-.81-3.373-1.864-4.461-1.053-1.088-2.445-1.668-4.175-1.668-1.819 0-3.218.524-4.197 1.608-.979 1.083-1.96 2.76-2.944 5.066z" fill="#49494A"/></svg>