<svg width="68" height="55" fill="none" xmlns="http://www.w3.org/2000/svg"><g opacity=".5" clip-path="url(#clip0_44_101)"><path d="M67.139 54.699v.141h.127a.13.13 0 00.068-.018.064.064 0 00.026-.054.061.061 0 00-.026-.053.118.118 0 00-.068-.018h-.127v.002zm.128-.1a.23.23 0 01.153.046.157.157 0 01.053.125.148.148 0 01-.043.11.205.205 0 01-.122.052l.17.202h-.13l-.157-.2h-.05v.2h-.11v-.535h.238-.002zm-.034.72a.395.395 0 00.167-.036.436.436 0 00.228-.237.462.462 0 00-.092-.491.412.412 0 00-.303-.129.43.43 0 00-.309.128.472.472 0 000 .636.433.433 0 00.31.132v-.004zm0-1.022a.558.558 0 01.52.353.59.59 0 01-.12.63.605.605 0 01-.18.124.546.546 0 01-.443 0 .58.58 0 01-.18-.124.597.597 0 01-.119-.19.587.587 0 01.12-.63.536.536 0 01.18-.123.545.545 0 01.224-.046l-.002.006zm-52.06-2.066c0-1.02.642-1.857 1.692-1.857 1.004 0 1.681.801 1.681 1.857s-.677 1.858-1.68 1.858c-1.051 0-1.694-.838-1.694-1.858zm4.517 0V49.33h-1.213v.707c-.385-.522-.969-.85-1.763-.85-1.564 0-2.791 1.276-2.791 3.047 0 1.771 1.227 3.046 2.791 3.046.794 0 1.378-.328 1.763-.85v.705h1.212V52.23h.001zm41.002 0c0-1.02.642-1.857 1.693-1.857 1.005 0 1.68.801 1.68 1.857s-.675 1.858-1.68 1.858c-1.05 0-1.693-.838-1.693-1.858zm4.519 0V47h-1.215v3.036c-.385-.522-.968-.85-1.762-.85-1.564 0-2.792 1.276-2.792 3.047 0 1.771 1.227 3.046 2.792 3.046.794 0 1.377-.328 1.762-.85v.705h1.215V52.23zm-30.46-1.917c.782 0 1.284.51 1.412 1.407h-2.895c.13-.837.619-1.407 1.483-1.407zm.024-1.131c-1.635 0-2.78 1.237-2.78 3.047 0 1.844 1.19 3.046 2.862 3.046.84 0 1.61-.218 2.287-.813l-.594-.935a2.599 2.599 0 01-1.624.607c-.782 0-1.494-.376-1.669-1.42h4.144c.011-.158.024-.316.024-.486-.012-1.809-1.088-3.046-2.65-3.046zm14.65 3.046c0-1.02.643-1.857 1.693-1.857 1.004 0 1.681.801 1.681 1.857s-.677 1.858-1.68 1.858c-1.051 0-1.694-.838-1.694-1.858zm4.518 0v-2.9H52.73v.707c-.386-.522-.968-.85-1.762-.85-1.564 0-2.792 1.276-2.792 3.047 0 1.771 1.227 3.046 2.792 3.046.793 0 1.376-.328 1.762-.85v.705h1.213v-2.905zm-11.37 0c0 1.76 1.178 3.047 2.977 3.047.84 0 1.4-.195 2.006-.692l-.583-1.02c-.456.34-.934.523-1.462.523-.969-.013-1.681-.74-1.681-1.858 0-1.117.712-1.844 1.68-1.857.528 0 1.006.182 1.463.522l.583-1.02c-.607-.497-1.167-.691-2.006-.691-1.799 0-2.977 1.286-2.977 3.046zm15.643-3.046c-.7 0-1.156.34-1.471.85v-.704h-1.203v5.801h1.215v-3.25c0-.96.397-1.494 1.19-1.494a1.9 1.9 0 01.759.146l.374-1.189a2.493 2.493 0 00-.865-.158l.001-.001zm-32.526.608c-.584-.4-1.389-.607-2.276-.607-1.414 0-2.324.704-2.324 1.857 0 .946.678 1.53 1.925 1.711l.574.085c.665.097.98.28.98.607 0 .449-.443.705-1.273.705-.84 0-1.447-.28-1.856-.607l-.57.983c.665.51 1.506.753 2.416.753 1.612 0 2.546-.789 2.546-1.893 0-1.02-.735-1.553-1.95-1.735l-.572-.087c-.525-.07-.946-.18-.946-.57 0-.423.397-.678 1.063-.678.712 0 1.401.279 1.74.497l.525-1.02-.002-.001zm15.657-.606c-.7 0-1.156.34-1.47.85v-.706h-1.202v5.801h1.213v-3.25c0-.96.397-1.494 1.19-1.494a1.9 1.9 0 01.759.146l.374-1.189a2.493 2.493 0 00-.865-.158h.001zm-10.355.144h-1.984v-1.76H27.78v1.76h-1.132v1.153h1.132v2.647c0 1.346.503 2.148 1.938 2.148.527 0 1.133-.17 1.518-.449l-.35-1.08c-.363.218-.76.328-1.075.328-.606 0-.804-.389-.804-.971v-2.621h1.984v-1.155zM12.85 55.132v-3.64c0-1.372-.84-2.294-2.195-2.307-.713-.012-1.448.218-1.962 1.032-.385-.643-.991-1.032-1.844-1.032-.596 0-1.179.182-1.635.862v-.718H4v5.801h1.224v-3.216c0-1.007.537-1.542 1.367-1.542.806 0 1.213.546 1.213 1.53v3.228h1.227v-3.217c0-1.007.56-1.542 1.365-1.542.829 0 1.224.546 1.224 1.53v3.228l1.23.003zM67.352 35.39v-.848h-.212l-.246.582-.245-.582h-.213v.848h.151v-.639l.23.552h.156l.23-.553v.64h.15zm-1.348 0v-.703h.272v-.143h-.695v.143h.272v.703h.151z" fill="#E1E1E1"/><path d="M43.2 39.028H24.81V4.671H43.2v34.357z" fill="#8D8D8E"/><path d="M25.976 21.85c0-6.97 3.139-13.178 8.027-17.179C30.303 1.638 25.727-.008 21.015 0 9.408 0 0 9.782 0 21.85 0 33.918 9.408 43.7 21.015 43.7c4.712.008 9.288-1.638 12.988-4.671-4.887-4-8.027-10.21-8.027-17.179z" fill="#7F7F80"/><path d="M68.009 21.85c0 12.068-9.409 21.851-21.015 21.851-4.713.007-9.29-1.639-12.99-4.672 4.89-4 8.028-10.209 8.028-17.179 0-6.97-3.139-13.177-8.028-17.178 3.7-3.033 8.277-4.68 12.99-4.672C58.6 0 68.007 9.783 68.007 21.85" fill="#A8A8A9"/></g><defs><clipPath id="clip0_44_101"><path fill="#fff" d="M0 0h68v55H0z"/></clipPath></defs></svg>