<svg width="71" height="43" fill="none" xmlns="http://www.w3.org/2000/svg"><g opacity=".5" fill-rule="evenodd" clip-rule="evenodd"><path d="M35.5 37.26a21.417 21.417 0 006.982-15.861A21.416 21.416 0 0035.5 5.539 21.07 21.07 0 0021.241 0C9.511 0 0 9.58 0 21.399c0 11.818 9.51 21.399 21.241 21.399 5.488 0 10.49-2.097 14.259-5.539z" fill="#7F7F80"/><path d="M49.759 0a21.076 21.076 0 00-14.26 5.538 21.53 21.53 0 00-2.144 2.266h4.288a21.49 21.49 0 011.62 2.266h-7.527a21.5 21.5 0 00-1.225 2.266h9.975c.343.737.644 1.494.901 2.266H29.612a21.41 21.41 0 00-.617 2.265h13.01a21.63 21.63 0 01.478 4.532c0 2.376-.386 4.661-1.095 6.797H29.612a21.2 21.2 0 00.9 2.266h9.974c-.362.779-.77 1.536-1.223 2.266h-7.527c.49.79 1.03 1.546 1.619 2.266h4.288A21.408 21.408 0 0135.5 37.26a21.077 21.077 0 0014.259 5.538c11.73 0 21.24-9.58 21.24-21.399S61.49 0 49.76 0z" fill="#A8A8A9"/><path d="M63.68 26.037a.69.69 0 01.686-.692.69.69 0 01.686.692c0 .382-.307.69-.686.69a.688.688 0 01-.686-.69zm.686.524a.523.523 0 00.52-.524.523.523 0 00-.52-.526.523.523 0 00-.521.526c0 .29.233.524.52.524zm-.093-.221h-.14v-.607h.254c.053 0 .108 0 .154.03a.18.18 0 01.077.152c0 .069-.04.133-.105.157l.111.267h-.155l-.093-.24h-.103v.24-.343h.078c.029 0 .06.002.086-.012a.084.084 0 00.035-.07.077.077 0 00-.034-.062c-.024-.014-.064-.01-.09-.01h-.074v.498h-.001zm-45.685.388h-2.644l1.571-8.34-3.617 8.34h-2.41l-.441-8.293-1.576 8.293h-2.4l2.05-10.85h4.126l.218 6.717 2.909-6.716h4.298l-2.084 10.849zm29.544-.109c-.723.2-1.288.287-1.9.287-1.352 0-2.09-.684-2.09-1.938 0-.248.027-.512.077-.791l.161-.863.124-.698 1.226-6.738h2.629l-.381 2.027h1.349l-.363 2.144H47.61l-.696 3.682a2.07 2.07 0 00-.045.365c0 .456.273.654.902.654.3 0 .534-.027.713-.082l-.35 1.951zm7.722-8.642c-.222-.088-.274-.088-.3-.095-.14-.031-.214-.05-.227-.052a1.474 1.474 0 00-.266-.022c-.868 0-1.494.39-2.303 1.433l.233-1.337h-2.394l-1.611 8.823h2.645c.947-5.396 1.352-6.34 2.62-6.34.097 0 .207.007.335.021l.31.064.958-2.495zm-18.201 2.715c0 1.115.623 1.882 2.036 2.46 1.083.442 1.25.572 1.25.973 0 .55-.477.797-1.534.797-.799 0-1.54-.108-2.397-.35l-.367 2.036.118.02.49.09c.158.028.39.054.7.078.635.05 1.128.073 1.474.073 2.822 0 4.126-.932 4.126-2.944 0-1.211-.545-1.921-1.885-2.456-1.122-.447-1.251-.546-1.251-.958 0-.475.445-.72 1.309-.72.525 0 1.242.05 1.921.133l.381-2.043a20.93 20.93 0 00-2.353-.172c-2.992 0-4.027 1.356-4.018 2.983zm-10.47 6.036h-2.198l.052-.915c-.67.724-1.561 1.067-2.773 1.067-1.433 0-2.416-.983-2.416-2.41 0-2.15 1.708-3.402 4.643-3.402.301 0 .684.024 1.078.068.082-.29.104-.415.104-.573 0-.584-.461-.803-1.696-.803-.755 0-1.608.096-2.197.246l-.366.094-.237.057.367-1.984c1.317-.34 2.187-.468 3.165-.468 2.272 0 3.472.896 3.472 2.588 0 .435-.04.766-.214 1.748l-.553 3.13-.093.562-.068.448-.045.307-.026.24zm-1.93-3.931a4.763 4.763 0 00-.59-.037c-1.499 0-2.258.451-2.258 1.343 0 .549.37.9.949.9 1.078 0 1.854-.902 1.9-2.206zm10.602 3.74c-.883.24-1.794.36-2.709.358-2.956-.002-4.496-1.358-4.496-3.953 0-3.029 1.96-5.259 4.62-5.259 2.176 0 3.566 1.25 3.566 3.207 0 .65-.095 1.284-.324 2.179h-5.257a1.705 1.705 0 00-.025.277c0 1.023.784 1.544 2.319 1.544.944 0 1.798-.172 2.745-.558l-.44 2.205zm-1.408-5.25c.014-.184.022-.334.022-.45 0-.716-.463-1.137-1.25-1.137-.842 0-1.443.564-1.687 1.582l2.915.005zm29.624 1.44c-.395 2.935-2.43 4.237-5.134 4.237-2.991 0-4.2-1.828-4.2-4.067 0-3.127 2.047-5.246 5.206-5.246 2.743 0 4.2 1.742 4.2 3.982 0 .545-.002.581-.072 1.094zm-2.722-1.129c0-.923-.372-1.794-1.456-1.794-1.349 0-2.185 1.606-2.185 3.025 0 1.196.573 2 1.518 1.982.573 0 1.795-.786 2.037-2.16.056-.32.086-.671.086-1.053z" fill="#E1E1E1"/></g></svg>