<svg width="95" height="27" fill="none" xmlns="http://www.w3.org/2000/svg"><g opacity=".5" clip-path="url(#clip0_44_121)" fill="#E1E1E1"><path d="M25.6.004v.012c-.012 0-3.712-.012-4.699 3.537a3805.624 3805.624 0 01-3.524 12.48h-.704s-2.608-9.18-3.524-12.492c-.987-3.548-4.7-3.537-4.7-3.537H0v26.989h8.454v-16.03h.705l4.933 16.03h5.87l4.933-16.017h.705v16.017h8.454V.003H25.6zm30.882 0s-2.478.224-3.641 2.83l-5.987 13.2h-.705V.003h-8.454v26.989h7.984s2.596-.236 3.76-2.83l5.869-13.2h.705v16.03h8.453V.004h-7.984zm11.743 12.257v14.732h8.454V18.39h9.159c3.994 0 7.373-2.558 8.63-6.126H68.225v-.004zM85.803 0H67c.94 5.14 4.78 9.262 9.746 10.606 1.152.313 2.341.472 3.535.472h14.492c.13-.614.188-1.238.188-1.887 0-5.077-4.1-9.191-9.158-9.191z"/></g><defs><clipPath id="clip0_44_121"><path fill="#fff" d="M0 0h95v27H0z"/></clipPath></defs></svg>