<svg width="84" height="28" fill="none" xmlns="http://www.w3.org/2000/svg"><path d="M36.415 26.797H29.56L33.844.47H40.7l-4.284 26.327zM23.795.47L17.26 18.578l-.773-3.9v.002L14.181 2.84S13.902.47 10.93.47H.127L0 .916s3.304.688 7.17 3.01l5.955 22.872h7.141L31.171.47h-7.377zm53.911 26.327H84L78.513.47h-5.51c-2.544 0-3.164 1.962-3.164 1.962L59.616 26.797h7.145l1.43-3.91h8.712l.803 3.91zm-7.542-9.313l3.602-9.852 2.025 9.853h-5.627zM60.152 6.802l.978-5.653S58.112 0 54.965 0c-3.4 0-11.478 1.487-11.478 8.715 0 6.802 9.48 6.886 9.48 10.459 0 3.573-8.504 2.932-11.31.68l-1.019 5.91s3.06 1.487 7.737 1.487 11.733-2.421 11.733-9.013c0-6.845-9.565-7.482-9.565-10.458 0-2.977 6.676-2.595 9.61-.979z" fill="#E1E1E1" opacity=".5"/></svg>