<svg width="478" height="597" fill="none" xmlns="http://www.w3.org/2000/svg"><path d="M67 94.618l4.015 12.356.112.346h13.355l-10.51 7.636-.294.214.112.345 4.015 12.356-10.511-7.636-.294-.214-.294.214-10.51 7.636 4.014-12.356.112-.345-.294-.214-10.51-7.636h13.355l.112-.346L67 94.618zM448.737 542.25l-.68-12.974-.019-.363-.351-.094-12.549-3.362 12.129-4.656.339-.13-.019-.363-.68-12.974 8.176 10.096.229.283.339-.13 12.129-4.656-7.076 10.896-.198.304.229.283 8.176 10.096-12.549-3.362-.351-.094-.198.304-7.076 10.896zM84.46 584.745l-.394-7.508-.02-.363-.35-.094-7.262-1.945 7.019-2.695.339-.13-.02-.362-.393-7.508 4.731 5.842.229.283.34-.13 7.018-2.695-4.095 6.305-.198.305.229.282 4.731 5.843-7.262-1.946-.35-.094-.198.305-4.095 6.305zm-56.219-44.01l-.977-18.648-.019-.363-.35-.094-18.038-4.833 17.433-6.692.34-.13-.02-.363-.977-18.647 11.752 14.512.228.282.34-.13 17.432-6.692-10.17 15.661-.198.304.229.282 11.751 14.512-18.037-4.833-.35-.094-.198.305-10.17 15.661zM127.5 1.618l7.495 23.066.112.346h24.617l-19.622 14.256-.294.213.113.346 7.494 23.066-19.621-14.256-.294-.213-.294.213-19.621 14.256 7.494-23.066.113-.346-.294-.213L95.276 25.03h24.617l.112-.346L127.5 1.618zm214.209 584.588l-1.269-24.22-.019-.363-.351-.094-23.427-6.277 22.643-8.692.339-.13-.019-.363-1.269-24.22 15.263 18.848.228.283.339-.131 22.643-8.691-13.209 20.34-.198.305.228.282 15.264 18.849-23.427-6.277-.351-.094-.198.304-13.21 20.341z" stroke="#fff" stroke-opacity=".22"/></svg>