<svg width="1246" height="715" viewBox="0 0 1246 715" fill="none" xmlns="http://www.w3.org/2000/svg">
<path d="M166.045 153L104 230.411H139.795L120.328 287L183 208.695H147.331L166.045 153Z" fill="#1C1C20"/>
<path d="M1212.66 408.205L1153.57 487.891L1189.34 486.547L1172.01 543.827L1231.69 463.224L1196.05 464.563L1212.66 408.205Z" fill="#1C1C20"/>
<path d="M188.766 0L144 54.8808H169.827L155.781 95L201 39.4852H175.264L188.766 0Z" fill="#1C1C20"/>
<path d="M1229.62 254.46L1186.94 310.983L1212.75 310.013L1200.22 350.632L1243.33 293.458L1217.61 294.424L1229.62 254.46Z" fill="#1C1C20"/>
<path d="M37.0588 391L8 427.395H24.7647L15.6471 454L45 417.185H28.2941L37.0588 391Z" fill="#1C1C20"/>
<path d="M1092.7 650.882L1065.03 688.342L1081.79 687.712L1073.67 714.641L1101.62 676.75L1084.93 677.377L1092.7 650.882Z" fill="#1C1C20"/>
<path d="M29.0588 240L0 276.395H16.7647L7.64706 303L37 266.185H20.2941L29.0588 240Z" fill="#1C1C20"/>
<path d="M1079.04 500.289L1051.37 537.749L1068.12 537.12L1060.01 564.049L1087.96 526.157L1071.26 526.785L1079.04 500.289Z" fill="#1C1C20"/>
</svg>
