<svg width="279" height="221" viewBox="0 0 279 221" fill="none" xmlns="http://www.w3.org/2000/svg">
<path d="M1 209.614V10.5077C1 4.09691 6.9474 -0.658079 13.201 0.75293L270.201 58.7403C274.761 59.7692 278 63.8202 278 68.4951V199.872C278 205.247 273.75 209.661 268.379 209.865L11.3788 219.607C5.71146 219.821 1 215.285 1 209.614Z" stroke="#E1E1E1"/>
<path d="M1 209.614V10.5077C1 4.09691 6.9474 -0.658079 13.201 0.75293L270.201 58.7403C274.761 59.7692 278 63.8202 278 68.4951V199.872C278 205.247 273.75 209.661 268.379 209.865L11.3788 219.607C5.71146 219.821 1 215.285 1 209.614Z" stroke="url(#paint0_linear_41_192)"/>
<defs>
<linearGradient id="paint0_linear_41_192" x1="139.5" y1="-2" x2="139.5" y2="228.43" gradientUnits="userSpaceOnUse">
<stop stop-color="#4DEF7A"/>
<stop offset="0.470732" stop-color="#4BC3FA"/>
<stop offset="1" stop-color="#4DEF7A"/>
</linearGradient>
</defs>
</svg>
