<svg width="29" height="29" viewBox="0 0 29 29" fill="none" xmlns="http://www.w3.org/2000/svg">
<path d="M26.9286 0H2.07143C0.932143 0 0 0.932143 0 2.07143V26.9286C0 28.0679 0.932143 29 2.07143 29H26.9286C28.0679 29 29 28.0679 29 26.9286V2.07143C29 0.932143 28.0679 0 26.9286 0ZM23.2145 12.8574L13.8931 22.1788C13.4891 22.5837 12.9589 22.7857 12.4286 22.7857C11.8983 22.7857 11.368 22.5837 10.9641 22.1788L5.7855 17.0002C4.97661 16.1913 4.97661 14.8801 5.7855 14.0712C6.59336 13.2623 7.90664 13.2623 8.7145 14.0712L12.4286 17.7842L20.2855 9.92836C21.0934 9.11946 22.4066 9.11946 23.2145 9.92836C24.0234 10.7373 24.0234 12.0485 23.2145 12.8574Z" fill="#52E0FF"/>
</svg>
