<svg width="16" height="33" viewBox="0 0 16 33" fill="none" xmlns="http://www.w3.org/2000/svg">
<path d="M16 20.9V30.8C16 32.01 14.9714 33 13.7143 33H2.28571C1.02857 33 0 32.01 0 30.8V20.9C0 20.0915 0.464 19.3897 1.14286 19.0069V13.1999C1.14286 12.5949 1.65714 12.0999 2.28571 12.0999H13.7143C14.3429 12.0999 14.8571 12.5949 14.8571 13.1999V19.0069C15.536 19.3897 16 20.0915 16 20.9ZM13.7143 0.712702C13.7143 0.1077 13.2549 -0.166201 12.6926 0.1044L3.30857 4.62101C2.74514 4.89051 2.28571 5.60772 2.28571 6.21272V10.9999H13.7143V0.712702Z" fill="#FF6AA7"/>
</svg>
