<svg width="34" height="34" viewBox="0 0 34 34" fill="none" xmlns="http://www.w3.org/2000/svg">
<path d="M28.3354 21.0481V7.9699C28.3273 6.3509 26.3888 4.34335 24.4389 6.45452C25.2098 8.14961 25.0478 10.0341 23.945 11.7778C23.1514 13.0325 21.4219 13.1766 20.4226 12.121L16.008 7.46477C15.0703 6.47557 15.2031 4.86953 16.2784 4.03413C17.7019 2.92997 19.3133 2.69198 20.8761 3.21653C21.9757 1.98772 23.7264 0.684429 26.2042 0.684429C28.5799 0.684429 30.3889 1.88896 31.5743 3.461C31.5743 -1.58864 31.5743 5.83768 31.5743 0.81233C31.5743 -0.270777 24.2867 -0.270777 24.2867 0.81233C24.2867 -0.270777 16.9991 -0.270777 16.9991 0.81233C16.9991 -0.270777 9.71145 -0.270777 9.71145 0.81233C9.71145 -0.270777 2.42383 -0.270777 2.42383 0.81233V21.0481H28.3354Z" fill="#C65584"/>
<path d="M32.9162 23.6918L31.7372 28.5456C31.6416 28.8985 31.3226 29.143 30.9566 29.143H3.04339C2.67739 29.143 2.35836 28.8985 2.26281 28.5456L1.08383 23.6918C0.942937 23.177 1.33161 22.6703 1.86442 22.6703H32.134C32.6684 22.6686 33.0571 23.177 32.9162 23.6918ZM33.1947 1.62012H31.5752V3.23911H33.1947C34.2684 3.23911 34.2684 1.62012 33.1947 1.62012ZM21.5977 11.007C21.8811 11.3066 22.354 11.2645 22.5758 10.9115C23.154 9.99679 23.8747 8.20456 22.5013 6.3411C25.3354 1.76907 30.04 4.4744 30.04 7.96819V21.048H31.5752V7.96981C31.5752 2.78903 25.0164 -0.298389 21.3564 5.24019C20.0122 4.36269 18.5725 4.30441 17.2721 5.31304C16.9514 5.56075 16.9028 6.05454 17.1846 6.35081L21.5977 11.007ZM2.42475 1.62012H0.805282C-0.268427 1.62012 -0.268427 3.23911 0.805282 3.23911H2.42475V1.62012ZM7.28317 30.762C6.38922 30.762 5.6637 31.4873 5.6637 32.381C5.6637 33.2747 6.38922 34 7.28317 34C8.17712 34 8.90264 33.2747 8.90264 32.381C8.90264 31.4873 8.17712 30.762 7.28317 30.762ZM26.7168 30.762C25.8229 30.762 25.0974 31.4873 25.0974 32.381C25.0974 33.2747 25.8229 34 26.7168 34C27.6108 34 28.3363 33.2747 28.3363 32.381C28.3363 31.4873 27.6108 30.762 26.7168 30.762Z" fill="#FF6AA7"/>
</svg>
