<svg width="188" height="222" viewBox="0 0 188 222" fill="none" xmlns="http://www.w3.org/2000/svg">
<path d="M1.00004 10.5804L1 210.867C1 216.813 6.15723 221.445 12.0691 220.81L178.069 202.96C183.149 202.414 187 198.127 187 193.018L187 19.9514C187 14.6476 182.859 10.2663 177.564 9.96733L11.5637 0.596331C5.82841 0.272569 1.00004 4.83606 1.00004 10.5804Z" stroke="#E1E1E1"/>
<path d="M1.00004 10.5804L1 210.867C1 216.813 6.15723 221.445 12.0691 220.81L178.069 202.96C183.149 202.414 187 198.127 187 193.018L187 19.9514C187 14.6476 182.859 10.2663 177.564 9.96733L11.5637 0.596331C5.82841 0.272569 1.00004 4.83606 1.00004 10.5804Z" stroke="url(#paint0_linear_38_132)"/>
<defs>
<linearGradient id="paint0_linear_38_132" x1="-124.5" y1="120" x2="419.5" y2="111" gradientUnits="userSpaceOnUse">
<stop stop-color="#4BC3FA"/>
<stop offset="0.505208" stop-color="#EF4DB1"/>
<stop offset="1" stop-color="#4BC3FA"/>
</linearGradient>
</defs>
</svg>
