<svg width="188" height="222" viewBox="0 0 188 222" fill="none" xmlns="http://www.w3.org/2000/svg">
<path d="M187 211.42L187 11.1329C187 5.18696 181.843 0.55454 175.931 1.19023L9.93089 19.0397C4.85115 19.5859 0.999998 23.8733 0.999997 28.9824L0.999982 202.049C0.999982 207.352 5.14091 211.734 10.4364 212.033L176.436 221.404C182.172 221.727 187 217.164 187 211.42Z" stroke="#E1E1E1"/>
<path d="M187 211.42L187 11.1329C187 5.18696 181.843 0.55454 175.931 1.19023L9.93089 19.0397C4.85115 19.5859 0.999998 23.8733 0.999997 28.9824L0.999982 202.049C0.999982 207.352 5.14091 211.734 10.4364 212.033L176.436 221.404C182.172 221.727 187 217.164 187 211.42Z" stroke="url(#paint0_linear_38_133)"/>
<defs>
<linearGradient id="paint0_linear_38_133" x1="270" y1="135" x2="-202" y2="126.5" gradientUnits="userSpaceOnUse">
<stop stop-color="#4BC3FA"/>
<stop offset="0.505208" stop-color="#EF4DB1"/>
<stop offset="1" stop-color="#4BC3FA"/>
</linearGradient>
</defs>
</svg>
