<svg width="35" height="35" viewBox="0 0 35 35" fill="none" xmlns="http://www.w3.org/2000/svg">
<path d="M23.75 18.75H11.25V21.25H23.75V18.75Z" fill="#FF6AA7"/>
<path d="M23.75 22.5H11.25V32.5H23.75V22.5Z" fill="#FF6AA7"/>
<path d="M4.99984 11.25C8.44609 11.25 11.2498 14.0538 11.2498 17.5H23.7498C23.7498 14.0538 26.5536 11.25 29.9998 11.25C30.0861 11.25 30.1673 11.2725 30.2536 11.2762L29.6173 6.50875C29.1211 2.7825 25.9423 0 22.1836 0H12.8161C9.05734 0 5.87859 2.7825 5.38234 6.50875L4.74609 11.2762C4.83234 11.2725 4.91359 11.25 4.99984 11.25ZM16.1736 8.9325C15.9298 8.68875 15.9298 8.2925 16.1736 8.04875C16.4173 7.805 16.8136 7.805 17.0573 8.04875L17.4998 8.49125L17.9423 8.04875C18.1861 7.805 18.5823 7.805 18.8261 8.04875C19.0698 8.2925 19.0698 8.68875 18.8261 8.9325L18.3836 9.375L18.8261 9.8175C19.0698 10.0612 19.0698 10.4575 18.8261 10.7013C18.5823 10.945 18.1861 10.945 17.9423 10.7013L17.4998 10.2587L17.0573 10.7013C16.8136 10.945 16.4173 10.945 16.1736 10.7013C15.9298 10.4575 15.9298 10.0612 16.1736 9.8175L16.6161 9.375L16.1736 8.9325Z" fill="#FF6AA7"/>
<path d="M35 17.5C35 14.8837 32.9825 12.76 30.4225 12.5425L30.4212 12.5325C30.2812 12.5188 30.1438 12.5 30 12.5C27.2425 12.5 25 14.7425 25 17.5V32.5H27.5V33.75C27.5 34.44 28.06 35 28.75 35H31.25C31.94 35 32.5 34.44 32.5 33.75V32.5H33.5262C34.2987 32.5 34.8862 31.8063 34.7587 31.045L33.1437 21.3587C34.2675 20.4412 35 19.0625 35 17.5Z" fill="#FF6AA7"/>
<path d="M10 17.5C10 14.7425 7.7575 12.5 5 12.5C4.85625 12.5 4.71875 12.5188 4.57875 12.5325L4.5775 12.5425C2.0175 12.76 0 14.8825 0 17.5C0 19.0638 0.7325 20.4425 1.85625 21.3587L0.2425 31.0437C0.115 31.8062 0.7025 32.5 1.475 32.5H2.5V33.75C2.5 34.44 3.06 35 3.75 35H6.25C6.94 35 7.5 34.44 7.5 33.75V32.5H10V17.5Z" fill="#FF6AA7"/>
<path d="M23.75 18.75H11.25V21.25H23.75V18.75Z" fill="#FF6AA7"/>
<path d="M23.75 22.5H11.25V32.5H23.75V22.5Z" fill="#FF6AA7"/>
<path d="M4.99984 11.25C8.44609 11.25 11.2498 14.0538 11.2498 17.5H23.7498C23.7498 14.0538 26.5536 11.25 29.9998 11.25C30.0861 11.25 30.1673 11.2725 30.2536 11.2762L29.6173 6.50875C29.1211 2.7825 25.9423 0 22.1836 0H12.8161C9.05734 0 5.87859 2.7825 5.38234 6.50875L4.74609 11.2762C4.83234 11.2725 4.91359 11.25 4.99984 11.25ZM16.1736 8.9325C15.9298 8.68875 15.9298 8.2925 16.1736 8.04875C16.4173 7.805 16.8136 7.805 17.0573 8.04875L17.4998 8.49125L17.9423 8.04875C18.1861 7.805 18.5823 7.805 18.8261 8.04875C19.0698 8.2925 19.0698 8.68875 18.8261 8.9325L18.3836 9.375L18.8261 9.8175C19.0698 10.0612 19.0698 10.4575 18.8261 10.7013C18.5823 10.945 18.1861 10.945 17.9423 10.7013L17.4998 10.2587L17.0573 10.7013C16.8136 10.945 16.4173 10.945 16.1736 10.7013C15.9298 10.4575 15.9298 10.0612 16.1736 9.8175L16.6161 9.375L16.1736 8.9325Z" fill="#FF6AA7"/>
<path d="M35 17.5C35 14.8837 32.9825 12.76 30.4225 12.5425L30.4212 12.5325C30.2812 12.5188 30.1438 12.5 30 12.5C27.2425 12.5 25 14.7425 25 17.5V32.5H27.5V33.75C27.5 34.44 28.06 35 28.75 35H31.25C31.94 35 32.5 34.44 32.5 33.75V32.5H33.5262C34.2987 32.5 34.8862 31.8063 34.7587 31.045L33.1437 21.3587C34.2675 20.4412 35 19.0625 35 17.5Z" fill="#FF6AA7"/>
<path d="M10 17.5C10 14.7425 7.7575 12.5 5 12.5C4.85625 12.5 4.71875 12.5188 4.57875 12.5325L4.5775 12.5425C2.0175 12.76 0 14.8825 0 17.5C0 19.0638 0.7325 20.4425 1.85625 21.3587L0.2425 31.0437C0.115 31.8062 0.7025 32.5 1.475 32.5H2.5V33.75C2.5 34.44 3.06 35 3.75 35H6.25C6.94 35 7.5 34.44 7.5 33.75V32.5H10V17.5Z" fill="#FF6AA7"/>
</svg>
