<svg width="13" height="18" viewBox="0 0 13 18" fill="none" xmlns="http://www.w3.org/2000/svg">
<path d="M3.712 17.2L4 15.904C2.96 15.904 2.168 15.72 1.624 15.352C1.096 14.968 0.832 14.488 0.832 13.912C0.832 13.08 1.296 12.296 2.224 11.56C3.168 10.824 4.352 10.432 5.776 10.384C6.032 9.744 6.184 9.312 6.232 9.088C5.496 8.864 4.928 8.584 4.528 8.248C4.144 7.896 3.952 7.416 3.952 6.808C3.952 5.688 4.576 4.568 5.824 3.448C7.072 2.328 8.32 1.632 9.568 1.36C9.856 0.783999 10.096 0.335999 10.288 0.0159998L10.984 0.256L10.576 1.168C11.232 1.168 11.76 1.304 12.16 1.576C12.576 1.832 12.784 2.232 12.784 2.776C12.784 3.672 12.248 4.512 11.176 5.296C10.12 6.08 9.088 6.472 8.08 6.472L7.84 7.12C7.744 7.392 7.672 7.584 7.624 7.696C8.616 7.872 9.344 8.2 9.808 8.68C10.288 9.16 10.528 9.736 10.528 10.408C10.528 11.624 9.912 12.848 8.68 14.08C7.464 15.312 6.208 15.928 4.912 15.928L4.528 17.32L3.712 17.2ZM4.264 15.04L5.536 11.104C4.72 11.216 4.064 11.496 3.568 11.944C3.072 12.376 2.824 12.856 2.824 13.384C2.824 13.896 2.952 14.304 3.208 14.608C3.464 14.896 3.816 15.04 4.264 15.04ZM6.424 10.984L5.128 15.04C6.024 15.04 6.872 14.616 7.672 13.768C8.488 12.92 8.896 12.08 8.896 11.248C8.896 10.256 8.272 9.6 7.024 9.28C6.88 9.632 6.76 9.976 6.664 10.312C6.984 10.312 7.2 10.32 7.312 10.336L7.192 10.984H6.424ZM6.976 5.656L7.576 5.728L9.016 2.44C8.056 2.552 7.264 2.92 6.64 3.544C6.016 4.168 5.704 4.888 5.704 5.704C5.704 6.52 6.088 7.088 6.856 7.408L7.216 6.472C7.024 6.456 6.856 6.4 6.712 6.304L6.976 5.656ZM9.832 2.464L8.44 5.704C9.16 5.656 9.76 5.424 10.24 5.008C10.736 4.576 10.984 4.096 10.984 3.568C10.984 2.864 10.6 2.496 9.832 2.464Z" fill="#4DEF7A"/>
</svg>
