<svg width="36" height="37" viewBox="0 0 36 37" fill="none" xmlns="http://www.w3.org/2000/svg">
<rect x="0.516602" y="1.49219" width="34.0161" height="34.0161" rx="2.5" stroke="white"/>
<path d="M24.7906 11.7679C24.5701 11.7776 24.3624 11.8376 24.1779 11.9049H24.1753C23.9882 11.9746 23.0986 12.3255 21.7476 12.8567C20.3966 13.3902 18.6432 14.0824 16.9025 14.7698C13.4264 16.1421 10.0092 17.4928 10.0092 17.4928L10.0502 17.4784C10.0502 17.4784 9.81433 17.5505 9.56822 17.7092C9.44261 17.7861 9.30418 17.8918 9.18369 18.0576C9.06321 18.2235 8.96579 18.4782 9.00168 18.7402C9.06064 19.1848 9.36827 19.4516 9.58873 19.5982C9.81176 19.7472 10.0245 19.8169 10.0245 19.8169H10.0297L13.2341 20.8288C13.3777 21.2614 14.2108 23.8282 14.4108 24.4195C14.5287 24.7728 14.644 24.9939 14.7876 25.1621C14.8568 25.2486 14.9388 25.3207 15.0363 25.3784C15.0747 25.4 15.1157 25.4169 15.1568 25.4313C15.1696 25.4385 15.1824 25.4409 15.1978 25.4433L15.1644 25.4361C15.1747 25.4385 15.1824 25.4457 15.1901 25.4481C15.2157 25.4553 15.2337 25.4577 15.267 25.4625C15.7746 25.6067 16.1822 25.3111 16.1822 25.3111L16.2052 25.2943L18.0971 23.6792L21.2682 25.96L21.34 25.9889C22.0014 26.2605 22.6705 26.109 23.0243 25.8423C23.3806 25.5731 23.519 25.2294 23.519 25.2294L23.5421 25.1741L25.9929 13.4047C26.0621 13.1138 26.08 12.8423 26.0031 12.5779C25.9262 12.3135 25.7288 12.066 25.4904 11.9338C25.2494 11.7992 25.011 11.7583 24.7906 11.7679ZM24.7239 13.0297C24.7213 13.0682 24.729 13.0634 24.7111 13.1379V13.1451L22.2834 24.792C22.2732 24.8088 22.2552 24.8449 22.2065 24.8809C22.1552 24.9194 22.1142 24.9434 21.9014 24.8641L18.0228 22.0761L15.6797 24.0782L16.1719 21.1316C16.1719 21.1316 22.2475 15.8225 22.509 15.5942C22.7705 15.3658 22.6833 15.3178 22.6833 15.3178C22.7013 15.039 22.2885 15.2361 22.2885 15.2361L14.298 19.877L14.2954 19.865L10.4655 18.6561V18.6537C10.4629 18.6537 10.4578 18.6513 10.4552 18.6513C10.4578 18.6513 10.4757 18.6441 10.4757 18.6441L10.4962 18.6345L10.5167 18.6273C10.5167 18.6273 13.9365 17.2765 17.4127 15.9042C19.1533 15.2168 20.9068 14.5246 22.2552 13.9911C23.6036 13.4599 24.6008 13.0706 24.6572 13.049C24.7111 13.0297 24.6854 13.0297 24.7239 13.0297Z" fill="#E1E1E1"/>
</svg>
