<svg width="36" height="37" viewBox="0 0 36 37" fill="none" xmlns="http://www.w3.org/2000/svg">
<rect x="0.549805" y="1.49219" width="34.0161" height="34.0161" rx="2.5" stroke="white"/>
<path d="M14.1595 13.8779C13.9928 13.8535 13.8227 13.887 13.6776 13.9727H13.6652C13.3283 14.1702 13.0248 14.4198 12.766 14.7122C12.551 14.9608 12.4343 15.2124 12.4037 15.4546C12.3854 15.599 12.3978 15.7433 12.4408 15.8812L12.4561 15.8906C12.6983 16.6024 13.0147 17.2871 13.4012 17.9317C13.8991 18.8372 14.5119 19.6747 15.2242 20.4235L15.2455 20.4541L15.279 20.4789L15.3002 20.5035L15.325 20.5248C16.0764 21.2392 16.9159 21.8549 17.8233 22.3566C18.8603 22.9211 19.4896 23.188 19.8672 23.2988V23.3047C19.978 23.3383 20.0788 23.3536 20.1801 23.3536C20.502 23.33 20.8067 23.1993 21.0457 22.9824C21.3367 22.7236 21.5836 22.4188 21.7763 22.0804V22.0744C21.9572 21.7339 21.8959 21.4115 21.6349 21.1935C21.1121 20.7366 20.5469 20.3308 19.9468 19.9815C19.5449 19.7635 19.1367 19.8955 18.9711 20.1165L18.6181 20.5613C18.4372 20.7822 18.1084 20.7516 18.1084 20.7516L18.099 20.7576C15.6473 20.1312 14.9933 17.6488 14.9933 17.6488C14.9933 17.6488 14.9626 17.3112 15.1895 17.1392L15.6314 16.7833C15.8429 16.6112 15.9902 16.2035 15.7634 15.8011C15.4166 15.2002 15.0116 14.6347 14.5543 14.113C14.4543 13.99 14.3141 13.9063 14.1584 13.8767L14.1595 13.8779Z" fill="#E1E1E1"/>
<path d="M18.3024 12.7988C18.0545 12.7988 17.8535 12.9998 17.8535 13.2478C17.8535 13.4957 18.0545 13.6967 18.3024 13.6967C19.4378 13.6967 20.3811 14.0678 21.1264 14.7784C21.5101 15.1675 21.8087 15.6281 22.0048 16.1321C22.2016 16.6381 22.2911 17.1776 22.2682 17.718C22.2576 17.9656 22.4499 18.175 22.6976 18.1855C22.9453 18.1961 23.1547 18.0038 23.1652 17.756C23.1935 17.0913 23.0832 16.428 22.8415 15.8066C22.5998 15.1853 22.232 14.6191 21.7605 14.1424L21.7515 14.1338C20.8267 13.2494 19.6545 12.7988 18.3024 12.7988Z" fill="#E1E1E1"/>
<path d="M18.2702 14.2754C18.0223 14.2754 17.8213 14.4764 17.8213 14.7243C17.8213 14.9722 18.0223 15.1732 18.2702 15.1732H18.2848C19.1041 15.231 19.7002 15.504 20.1182 15.9523C20.546 16.4139 20.7676 16.9873 20.7512 17.6968C20.7454 17.9446 20.9418 18.1502 21.1896 18.156C21.4375 18.1617 21.6431 17.9654 21.6488 17.7175C21.6704 16.786 21.3708 15.9828 20.7762 15.3414L20.7754 15.3406C20.1679 14.6887 19.3344 14.3438 18.3304 14.2764L18.3154 14.2754H18.2702Z" fill="#E1E1E1"/>
<path d="M18.2538 15.779C18.0062 15.7659 17.7949 15.9561 17.7819 16.2037C17.7689 16.4513 17.959 16.6625 18.2066 16.6756C18.5825 16.6954 18.822 16.8081 18.9727 16.9602C19.1241 17.113 19.2372 17.3577 19.2579 17.7412C19.2712 17.9889 19.4827 18.1788 19.7303 18.1654C19.9778 18.1521 20.1677 17.9406 20.1544 17.693C20.1254 17.1543 19.9568 16.678 19.6107 16.3284C19.2639 15.9782 18.7903 15.8072 18.2538 15.779Z" fill="#E1E1E1"/>
<path fill-rule="evenodd" clip-rule="evenodd" d="M13.352 10.4487C16.2091 9.81007 19.1719 9.81007 22.0289 10.4487L22.3334 10.5167C24.0364 10.8974 25.3805 12.2036 25.8098 13.8951C26.535 16.7528 26.535 19.7464 25.8098 22.6041C25.3805 24.2955 24.0363 25.6017 22.3334 25.9824L22.0289 26.0505C20.2343 26.4516 18.3979 26.6008 16.5722 26.498L14.1901 28.6294C14.0071 28.7931 13.7497 28.8442 13.5181 28.763C13.2865 28.6817 13.1174 28.4809 13.0769 28.2387L12.6829 25.8852C11.1544 25.4102 9.96936 24.1728 9.57125 22.6041C8.84604 19.7464 8.84604 16.7528 9.57125 13.8951C10.0005 12.2036 11.3446 10.8974 13.0476 10.5167L13.352 10.4487ZM21.7351 11.763C19.0716 11.1677 16.3094 11.1677 13.6458 11.763L13.3414 11.8311C12.134 12.101 11.181 13.0271 10.8766 14.2263C10.2066 16.8667 10.2066 19.6325 10.8766 22.2728C11.181 23.472 12.134 24.3982 13.3414 24.6681L13.4219 24.686C13.6893 24.7458 13.8938 24.9618 13.9391 25.232L14.2033 26.8104L15.8844 25.3063C16.0202 25.1848 16.1993 25.1235 16.381 25.1364C18.1709 25.2631 19.9746 25.1296 21.7351 24.7361L22.0395 24.6681C23.247 24.3982 24.2 23.472 24.5044 22.2728C25.1744 19.6325 25.1744 16.8667 24.5044 14.2263C24.2 13.0271 23.247 12.101 22.0395 11.8311L21.7351 11.763Z" fill="#E1E1E1"/>
</svg>
