<svg width="36" height="37" viewBox="0 0 36 37" fill="none" xmlns="http://www.w3.org/2000/svg">
<rect x="0.533203" y="1.49219" width="34.0161" height="34.0161" rx="2.5" stroke="white"/>
<path d="M22.0274 20.2612C21.809 20.149 20.7207 19.6159 20.5183 19.5437C20.3159 19.4676 20.1676 19.4315 20.0213 19.656C19.873 19.8784 19.4521 20.3734 19.3199 20.5237C19.1916 20.672 19.0613 20.6901 18.8429 20.5798C17.5442 19.9305 16.6925 19.4215 15.8367 17.9525C15.6103 17.5617 16.0632 17.5897 16.4861 16.746C16.5582 16.5977 16.5221 16.4714 16.466 16.3592C16.4099 16.247 15.969 15.1608 15.7846 14.7178C15.6063 14.287 15.4219 14.3471 15.2876 14.3391C15.1593 14.3311 15.013 14.3311 14.8647 14.3311C14.7164 14.3311 14.478 14.3872 14.2755 14.6056C14.0731 14.8281 13.502 15.3632 13.502 16.4494C13.502 17.5356 14.2936 18.5878 14.4018 18.7361C14.514 18.8844 15.959 21.1129 18.1775 22.0729C19.5804 22.6781 20.1295 22.7303 20.831 22.626C21.2578 22.5619 22.1376 22.0929 22.32 21.5739C22.5024 21.0568 22.5024 20.6139 22.4483 20.5217C22.3942 20.4235 22.2458 20.3674 22.0274 20.2612Z" fill="#E1E1E1"/>
<path d="M26.2702 15.0207C25.8173 13.9445 25.1679 12.9786 24.3402 12.1489C23.5125 11.3212 22.5466 10.6698 21.4684 10.2189C20.3661 9.75596 19.1957 9.52148 17.9892 9.52148H17.9492C16.7347 9.5275 15.5583 9.76799 14.452 10.241C13.3838 10.6979 12.4258 11.3472 11.6062 12.1749C10.7865 13.0026 10.1432 13.9646 9.69826 15.0368C9.23732 16.147 9.00484 17.3275 9.01086 18.542C9.01687 19.9328 9.34955 21.3136 9.97283 22.5482V25.5944C9.97283 26.1034 10.3857 26.5163 10.8947 26.5163H13.943C15.1775 27.1396 16.5583 27.4722 17.9492 27.4782H17.9912C19.1917 27.4782 20.3561 27.2458 21.4523 26.7908C22.5245 26.3439 23.4885 25.7026 24.3142 24.8829C25.1419 24.0633 25.7932 23.1053 26.2481 22.0371C26.7211 20.9308 26.9616 19.7544 26.9676 18.5399C26.9736 17.3194 26.7371 16.135 26.2702 15.0207ZM23.242 23.7987C21.8371 25.1896 19.9733 25.9551 17.9892 25.9551H17.9552C16.7467 25.9491 15.5462 25.6485 14.4861 25.0833L14.3177 24.9932H11.4959V22.1714L11.4058 22.003C10.8406 20.9429 10.54 19.7424 10.534 18.5339C10.526 16.5358 11.2895 14.66 12.6904 13.2471C14.0893 11.8342 15.9591 11.0526 17.9572 11.0446H17.9912C18.9933 11.0446 19.9653 11.239 20.8812 11.6238C21.775 11.9986 22.5766 12.5377 23.266 13.2271C23.9534 13.9145 24.4946 14.7181 24.8693 15.612C25.2581 16.5378 25.4525 17.5199 25.4485 18.5339C25.4365 20.53 24.6529 22.3999 23.242 23.7987Z" fill="#E1E1E1"/>
</svg>
