<svg width="238" height="286" viewBox="0 0 238 286" fill="none" xmlns="http://www.w3.org/2000/svg">
<mask id="path-1-inside-1_21_16" fill="white">
<ellipse rx="64.6336" ry="64.7279" transform="matrix(0.986081 -0.166263 0.165765 0.986165 128.706 117.957)"/>
</mask>
<path d="M232.376 100.477C232.285 99.9354 232.19 99.3954 232.091 98.8567L152.435 113.555C152.459 113.684 152.482 113.814 152.503 113.944L232.376 100.477ZM231.448 95.6418C231.216 94.566 230.967 93.4964 230.702 92.4331L152.106 112.034C152.168 112.283 152.227 112.535 152.282 112.789L231.448 95.6418ZM229.858 89.2513C229.558 88.1897 229.242 87.1353 228.911 86.0881L151.69 110.56C151.767 110.801 151.84 111.045 151.909 111.292L229.858 89.2513ZM227.865 82.9527C227.499 81.9118 227.118 80.8788 226.721 79.854L151.188 109.131C151.279 109.364 151.366 109.601 151.45 109.839L227.865 82.9527ZM225.476 76.7833C225.045 75.7653 224.598 74.7561 224.136 73.7561L150.6 107.743C150.705 107.97 150.807 108.199 150.905 108.431L225.476 76.7833ZM222.702 70.7735C222.207 69.7838 221.696 68.8037 221.172 67.8336L149.927 106.398C150.046 106.618 150.162 106.841 150.274 107.066L222.702 70.7735ZM219.551 64.9471C218.995 63.9919 218.425 63.0472 217.84 62.1131L149.17 105.098C149.303 105.311 149.433 105.526 149.559 105.743L219.551 64.9471ZM216.041 59.3343C215.426 58.4174 214.798 57.5115 214.156 56.6168L148.33 103.845C148.476 104.049 148.62 104.256 148.76 104.465L216.041 59.3343ZM212.187 53.96C211.517 53.0841 210.833 52.2199 210.137 51.3677L147.408 102.642C147.569 102.838 147.725 103.036 147.879 103.237L212.187 53.96ZM208.008 48.8435C207.284 48.0126 206.548 47.1938 205.8 46.3874L146.409 101.494C146.582 101.68 146.752 101.869 146.919 102.061L208.008 48.8435ZM203.518 44.0033C202.745 43.2205 201.961 42.4504 201.165 41.6932L145.336 100.407C145.521 100.583 145.703 100.762 145.882 100.943L203.518 44.0033ZM198.739 39.4579C197.92 38.7255 197.089 38.0063 196.247 37.3005L144.193 99.3867C144.389 99.5509 144.582 99.7181 144.773 99.8883L198.739 39.4579ZM193.689 35.2225C192.825 34.5431 191.951 33.8773 191.067 33.2253L142.987 98.438C143.193 98.5898 143.397 98.7448 143.598 98.903L193.689 35.2225ZM188.384 31.3112C187.48 30.6872 186.566 30.0772 185.642 29.4815L141.724 97.5664C141.939 97.705 142.152 97.847 142.363 97.9923L188.384 31.3112ZM182.844 27.7383C181.903 27.1718 180.952 26.6199 179.992 26.0828L140.412 96.7768C140.634 96.9014 140.855 97.0295 141.074 97.1611L182.844 27.7383ZM177.088 24.5165C176.113 24.01 175.129 23.5183 174.136 23.0419L139.057 96.073C139.286 96.183 139.513 96.2967 139.739 96.4139L177.088 24.5165ZM171.137 21.6595C170.131 21.2146 169.116 20.785 168.094 20.3711L137.666 95.4582C137.901 95.5532 138.134 95.6519 138.365 95.7544L171.137 21.6595ZM165.012 19.179C163.979 18.7978 162.938 18.4325 161.89 18.0833L136.247 94.9348C136.486 95.0144 136.723 95.0978 136.96 95.185L165.012 19.179ZM158.734 17.0862C157.678 16.7708 156.616 16.4718 155.547 16.1892L134.805 94.5041C135.047 94.5682 135.288 94.6361 135.528 94.7077L158.734 17.0862ZM152.33 15.3924C151.255 15.1443 150.175 14.9128 149.089 14.6981L133.344 94.1669C133.589 94.2153 133.833 94.2676 134.076 94.3237L152.33 15.3924ZM145.828 14.1067C144.738 13.927 143.644 13.7642 142.545 13.6185L131.869 93.9235C132.117 93.9563 132.363 93.993 132.609 94.0335L145.828 14.1067ZM139.253 13.2353C138.155 13.1251 137.054 13.0321 135.949 12.9565L130.382 93.7743C130.632 93.7914 130.88 93.8123 131.127 93.8372L139.253 13.2353ZM132.635 12.7825C131.536 12.7423 130.433 12.7193 129.328 12.7137L128.883 93.7194C129.135 93.7207 129.385 93.7259 129.633 93.735L132.635 12.7825ZM126.017 12.7494C124.918 12.7786 123.816 12.8252 122.713 12.8892L127.371 93.7596C127.625 93.7449 127.878 93.7342 128.129 93.7275L126.017 12.7494ZM119.425 13.132C118.331 13.2299 117.237 13.3451 116.143 13.4777L125.845 93.8965C126.102 93.8654 126.357 93.8385 126.611 93.8158L119.425 13.132ZM112.889 13.9232C112.347 14.006 111.805 14.0931 111.263 14.1845L124.69 94.0639C124.819 94.0421 124.949 94.0213 125.077 94.0016L112.889 13.9232ZM111.263 14.1845C110.72 14.2759 110.18 14.3715 109.64 14.471L124.303 94.1322C124.431 94.1085 124.56 94.0858 124.69 94.0639L111.263 14.1845ZM106.42 15.1171C105.343 15.3507 104.271 15.6006 103.207 15.8666L122.793 94.4595C123.04 94.3978 123.29 94.3395 123.543 94.2847L106.42 15.1171ZM100.02 16.7156C98.9567 17.0167 97.9007 17.3339 96.8521 17.6669L121.33 94.8739C121.57 94.7978 121.812 94.7251 122.056 94.6558L100.02 16.7156ZM93.7123 18.7189C92.67 19.0865 91.6356 19.4698 90.6095 19.8686L119.911 95.3743C120.143 95.2841 120.378 95.1972 120.614 95.1136L93.7123 18.7189ZM87.5353 21.1197C86.5162 21.5534 85.5059 22.0024 84.5049 22.4664L118.533 95.9608C118.758 95.8562 118.986 95.7549 119.216 95.6571L87.5353 21.1197ZM81.5196 23.9081C80.529 24.406 79.5482 24.9187 78.5773 25.4459L117.197 96.632C117.416 96.5132 117.637 96.3977 117.86 96.2856L81.5196 23.9081ZM75.6889 27.0742C74.7334 27.633 73.7882 28.206 72.8538 28.793L115.905 97.3875C116.117 97.2548 116.33 97.1253 116.546 96.9992L75.6889 27.0742ZM70.0743 30.6008C69.1572 31.2182 68.2512 31.8492 67.3566 32.4934L114.659 98.2264C114.863 98.08 115.068 97.9368 115.276 97.7968L70.0743 30.6008ZM64.7002 34.4706C63.8246 35.144 62.9607 35.8305 62.1088 36.5295L113.462 99.1469C113.657 98.987 113.855 98.8302 114.054 98.6766L64.7002 34.4706ZM59.5861 38.6667C58.7558 39.3929 57.9377 40.1315 57.1321 40.882L112.32 100.146C112.506 99.9731 112.694 99.8033 112.884 99.6366L59.5861 38.6667ZM54.7504 43.1716C53.9685 43.9471 53.1994 44.7344 52.4433 45.533L111.238 101.219C111.413 101.035 111.591 100.853 111.771 100.674L54.7504 43.1716ZM50.2114 47.9651C49.4803 48.7874 48.7624 49.6206 48.0579 50.4646L110.221 102.363C110.385 102.167 110.551 101.974 110.721 101.783L50.2114 47.9651ZM45.9841 53.0293C45.3062 53.895 44.6419 54.7711 43.9916 55.6572L109.275 103.571C109.427 103.365 109.581 103.161 109.739 102.96L45.9841 53.0293ZM42.0823 58.3456C41.46 59.2516 40.8517 60.1673 40.2578 61.0925L108.406 104.837C108.544 104.621 108.686 104.408 108.831 104.197L42.0823 58.3456ZM38.5199 63.8948C37.9553 64.8378 37.4053 65.7899 36.87 66.7508L107.618 106.153C107.742 105.93 107.87 105.708 108.001 105.489L38.5199 63.8948ZM35.3093 69.6581C34.8047 70.6346 34.3149 71.6196 33.8404 72.6127L106.915 107.513C107.025 107.283 107.138 107.055 107.255 106.828L35.3093 69.6581ZM32.4638 75.6137C32.0207 76.6209 31.5931 77.6359 31.181 78.6583L106.3 108.909C106.395 108.674 106.494 108.44 106.596 108.207L32.4638 75.6137ZM29.9945 81.7415C29.6152 82.7751 29.2517 83.8159 28.9043 84.8634L105.777 110.335C105.857 110.095 105.94 109.856 106.027 109.619L29.9945 81.7415ZM27.9123 88.0195C27.5987 89.0752 27.3013 90.1372 27.0203 91.2051L105.346 111.785C105.41 111.542 105.478 111.299 105.55 111.058L27.9123 88.0195ZM26.2282 94.4209C25.9816 95.4951 25.7514 96.5748 25.5381 97.6597L105.009 113.254C105.057 113.008 105.11 112.762 105.166 112.518L26.2282 94.4209ZM24.9507 100.919C24.7721 102.007 24.6104 103.101 24.4659 104.198L104.766 114.739C104.798 114.49 104.835 114.241 104.876 113.994L24.9507 100.919ZM24.0855 107.487C23.9762 108.583 23.884 109.683 23.8091 110.786L104.616 116.236C104.633 115.985 104.654 115.734 104.679 115.485L24.0855 107.487ZM23.6369 114.096C23.5971 115.194 23.5745 116.296 23.5693 117.399L104.562 117.745C104.563 117.492 104.568 117.24 104.577 116.99L23.6369 114.096ZM23.6055 120.705C23.6349 121.803 23.6814 122.903 23.7454 124.004L104.602 119.268C104.588 119.013 104.577 118.758 104.57 118.505L23.6055 120.705ZM23.9874 127.287C24.085 128.379 24.1998 129.471 24.3318 130.564L104.74 120.805C104.709 120.547 104.682 120.29 104.659 120.034L23.9874 127.287ZM24.7754 133.812C24.8578 134.354 24.9445 134.895 25.0355 135.436L104.908 121.969C104.886 121.839 104.865 121.708 104.846 121.579L24.7754 133.812ZM25.0355 135.436C25.1265 135.978 25.2216 136.518 25.3207 137.056L104.977 122.359C104.953 122.229 104.93 122.1 104.908 121.969L25.0355 135.436ZM25.9636 140.271C26.196 141.347 26.4447 142.417 26.7093 143.48L105.305 123.879C105.243 123.63 105.185 123.379 105.13 123.124L25.9636 140.271ZM27.5539 146.662C27.8535 147.723 28.1691 148.778 28.5004 149.825L105.721 125.353C105.645 125.112 105.572 124.868 105.502 124.621L27.5539 146.662ZM29.5468 152.96C29.9125 154.001 30.2939 155.034 30.6905 156.059L106.223 126.783C106.133 126.549 106.045 126.312 105.962 126.074L29.5468 152.96ZM31.9352 159.13C32.3667 160.148 32.8134 161.157 33.2751 162.157L106.811 128.17C106.707 127.943 106.605 127.714 106.507 127.482L31.9352 159.13ZM34.7096 165.14C35.205 166.129 35.7152 167.109 36.2398 168.08L107.484 129.515C107.365 129.295 107.25 129.072 107.137 128.848L34.7096 165.14ZM37.8603 170.966C38.4165 171.921 38.9869 172.866 39.5711 173.8L108.242 130.815C108.109 130.602 107.979 130.388 107.852 130.171L37.8603 170.966ZM41.3708 176.579C41.9855 177.496 42.6137 178.402 43.2551 179.296L109.082 132.068C108.935 131.864 108.792 131.657 108.652 131.448L41.3708 176.579ZM45.2242 181.953C45.8949 182.829 46.5786 183.693 47.2749 184.546L110.003 133.272C109.843 133.076 109.686 132.877 109.532 132.677L45.2242 181.953ZM49.404 187.07C50.1275 187.901 50.8634 188.719 51.6113 189.526L111.002 134.419C110.83 134.233 110.66 134.044 110.493 133.852L49.404 187.07ZM53.8932 191.91C54.6662 192.693 55.4509 193.463 56.247 194.22L112.076 135.506C111.891 135.33 111.709 135.152 111.53 134.97L53.8932 191.91ZM58.6721 196.455C59.492 197.188 60.323 197.907 61.1647 198.613L113.218 136.527C113.022 136.362 112.829 136.195 112.639 136.025L58.6721 196.455ZM63.7229 200.691C64.5866 201.37 65.4607 202.036 66.3449 202.688L114.424 137.475C114.218 137.323 114.015 137.168 113.814 137.01L63.7229 200.691ZM69.0278 204.602C69.932 205.226 70.8461 205.836 71.7696 206.432L115.687 138.347C115.472 138.208 115.26 138.066 115.049 137.921L69.0278 204.602ZM74.5675 208.175C75.5091 208.741 76.4599 209.293 77.4195 209.83L117 139.136C116.777 139.012 116.556 138.884 116.338 138.752L74.5675 208.175ZM80.3234 211.397C81.299 211.903 82.283 212.395 83.2753 212.871L118.355 139.84C118.126 139.73 117.898 139.617 117.673 139.499L80.3234 211.397ZM86.2743 214.254C87.2808 214.699 88.2952 215.128 89.3172 215.542L119.746 140.455C119.511 140.36 119.278 140.261 119.046 140.159L86.2743 214.254ZM92.3996 216.734C93.4331 217.115 94.4737 217.481 95.5212 217.83L121.165 140.978C120.926 140.899 120.688 140.815 120.452 140.728L92.3996 216.734ZM98.6776 218.827C99.7335 219.142 100.796 219.441 101.864 219.724L122.607 141.409C122.365 141.345 122.124 141.277 121.884 141.205L98.6776 218.827ZM105.082 220.521C106.156 220.769 107.237 221 108.322 221.215L124.067 141.746C123.822 141.698 123.578 141.646 123.335 141.589L105.082 220.521ZM111.584 221.806C112.673 221.986 113.768 222.149 114.867 222.295L125.543 141.99C125.295 141.957 125.049 141.92 124.803 141.88L111.584 221.806ZM118.159 222.678C119.256 222.788 120.358 222.881 121.462 222.957L127.029 142.139C126.78 142.122 126.532 142.101 126.284 142.076L118.159 222.678ZM124.776 223.131C125.876 223.171 126.979 223.194 128.084 223.199L128.528 142.194C128.277 142.193 128.027 142.187 127.778 142.178L124.776 223.131ZM131.394 223.164C132.494 223.135 133.595 223.088 134.698 223.024L130.04 142.154C129.786 142.168 129.534 142.179 129.283 142.186L131.394 223.164ZM137.987 222.781C139.08 222.683 140.174 222.568 141.269 222.435L131.566 142.017C131.31 142.048 131.054 142.075 130.8 142.097L137.987 222.781ZM144.522 221.99C145.065 221.907 145.607 221.82 146.149 221.729L132.722 141.849C132.592 141.871 132.463 141.892 132.334 141.912L144.522 221.99ZM146.149 221.729C146.691 221.637 147.232 221.542 147.771 221.442L133.109 141.781C132.98 141.805 132.852 141.827 132.722 141.849L146.149 221.729ZM150.991 220.796C152.069 220.562 153.14 220.313 154.205 220.047L134.619 141.454C134.371 141.515 134.121 141.574 133.869 141.629L150.991 220.796ZM157.392 219.198C158.455 218.896 159.511 218.579 160.559 218.246L136.082 141.039C135.842 141.115 135.6 141.188 135.355 141.257L157.392 219.198ZM163.699 217.194C164.742 216.827 165.776 216.443 166.802 216.045L137.501 140.539C137.269 140.629 137.034 140.716 136.797 140.8L163.699 217.194ZM169.876 214.794C170.895 214.36 171.906 213.911 172.907 213.447L138.879 139.952C138.653 140.057 138.426 140.158 138.196 140.256L169.876 214.794ZM175.892 212.005C176.883 211.507 177.863 210.995 178.834 210.467L140.214 139.281C139.996 139.4 139.775 139.515 139.551 139.628L175.892 212.005ZM181.723 208.839C182.678 208.28 183.623 207.707 184.558 207.12L141.506 138.526C141.295 138.658 141.081 138.788 140.866 138.914L181.723 208.839ZM187.337 205.312C188.254 204.695 189.16 204.064 190.055 203.42L142.752 137.687C142.549 137.833 142.343 137.976 142.135 138.116L187.337 205.312ZM192.711 201.443C193.587 200.769 194.451 200.083 195.303 199.384L143.949 136.766C143.754 136.926 143.557 137.083 143.357 137.237L192.711 201.443ZM197.825 197.246C198.656 196.52 199.474 195.782 200.28 195.031L145.091 135.767C144.906 135.94 144.718 136.11 144.527 136.277L197.825 197.246ZM202.661 192.742C203.443 191.966 204.212 191.179 204.968 190.38L146.174 134.694C145.999 134.879 145.821 135.06 145.64 135.24L202.661 192.742ZM207.2 187.948C207.931 187.126 208.649 186.293 209.354 185.449L147.191 133.55C147.027 133.746 146.86 133.939 146.691 134.13L207.2 187.948ZM211.427 182.884C212.105 182.018 212.77 181.142 213.42 180.256L148.136 132.342C147.985 132.548 147.83 132.752 147.673 132.954L211.427 182.884ZM215.329 177.568C215.952 176.662 216.56 175.746 217.154 174.821L149.006 131.076C148.868 131.292 148.726 131.505 148.581 131.716L215.329 177.568ZM218.892 172.018C219.456 171.075 220.006 170.123 220.542 169.162L149.794 129.76C149.67 129.983 149.542 130.205 149.41 130.424L218.892 172.018ZM222.102 166.255C222.607 165.279 223.097 164.294 223.571 163.3L150.497 128.4C150.387 128.63 150.273 128.858 150.156 129.085L222.102 166.255ZM224.948 160.299C225.391 159.292 225.819 158.277 226.231 157.255L151.111 127.004C151.016 127.239 150.918 127.473 150.815 127.706L224.948 160.299ZM227.417 154.172C227.796 153.138 228.16 152.097 228.507 151.05L151.634 125.578C151.555 125.818 151.471 126.057 151.384 126.294L227.417 154.172ZM229.499 147.894C229.813 146.838 230.11 145.776 230.391 144.708L152.065 124.128C152.001 124.372 151.933 124.614 151.862 124.855L229.499 147.894ZM231.183 141.492C231.43 140.418 231.66 139.338 231.873 138.253L152.403 122.659C152.354 122.905 152.302 123.151 152.246 123.395L231.183 141.492ZM232.461 134.995C232.639 133.906 232.801 132.813 232.946 131.715L152.646 121.174C152.613 121.424 152.577 121.672 152.536 121.919L232.461 134.995ZM233.326 128.426C233.435 127.33 233.528 126.23 233.602 125.127L152.795 119.678C152.778 119.929 152.757 120.179 152.732 120.428L233.326 128.426ZM233.775 121.817C233.814 120.719 233.837 119.618 233.842 118.514L152.85 118.168C152.849 118.421 152.844 118.673 152.834 118.923L233.775 121.817ZM233.806 115.208C233.777 114.11 233.73 113.01 233.666 111.909L152.809 116.645C152.824 116.901 152.835 117.155 152.842 117.408L233.806 115.208ZM233.424 108.626C233.327 107.534 233.212 106.442 233.08 105.349L152.672 115.108C152.703 115.367 152.73 115.624 152.753 115.879L233.424 108.626ZM232.636 102.101C232.554 101.559 232.467 101.018 232.376 100.477L152.503 113.944C152.525 114.075 152.546 114.205 152.566 114.334L232.636 102.101ZM272.312 93.7431C272.187 92.9963 272.056 92.2512 271.919 91.5077L112.607 120.904C112.593 120.828 112.58 120.753 112.567 120.678L272.312 93.7431ZM271.031 87.068C270.71 85.5817 270.366 84.1032 270 82.6328L112.808 121.834C112.769 121.676 112.733 121.519 112.699 121.363L271.031 87.068ZM268.832 78.2311C268.417 76.762 267.98 75.3022 267.522 73.8522L113.08 122.796C113.029 122.634 112.981 122.473 112.935 122.312L268.832 78.2311ZM266.072 69.5094C265.566 68.0673 265.037 66.6359 264.487 65.2157L113.422 123.769C113.359 123.607 113.3 123.445 113.243 123.283L266.072 69.5094ZM262.762 60.9595C262.164 59.5483 261.545 58.1493 260.905 56.7629L113.832 124.736C113.758 124.577 113.687 124.416 113.619 124.255L262.762 60.9595ZM258.916 52.6275C258.229 51.2552 257.521 49.8963 256.794 48.5513L114.305 125.681C114.221 125.526 114.14 125.369 114.061 125.212L258.916 52.6275ZM254.547 44.5493C253.776 43.2251 252.986 41.9154 252.176 40.6206L114.835 126.591C114.742 126.443 114.652 126.292 114.563 126.14L254.547 44.5493ZM249.681 36.7689C248.829 35.498 247.959 34.2426 247.07 33.0029L115.417 127.459C115.316 127.318 115.217 127.175 115.12 127.031L249.681 36.7689ZM244.342 29.3216C243.412 28.1082 242.465 26.9111 241.501 25.7306L116.044 128.279C115.936 128.146 115.83 128.012 115.725 127.875L244.342 29.3216ZM238.552 22.2349C237.55 21.0842 236.531 19.9505 235.496 18.8341L116.714 129.048C116.599 128.924 116.486 128.798 116.374 128.669L238.552 22.2349ZM232.337 15.5335C231.267 14.45 230.181 13.3841 229.079 12.3362L117.422 129.764C117.301 129.649 117.181 129.532 117.063 129.413L232.337 15.5335ZM225.723 9.24268C224.588 8.2292 223.438 7.23399 222.274 6.25737L118.166 130.43C118.039 130.323 117.914 130.214 117.79 130.104L225.723 9.24268ZM218.734 3.38225C217.539 2.44221 216.33 1.52102 215.106 0.619024L118.948 131.044C118.814 130.946 118.683 130.846 118.552 130.743L218.734 3.38225ZM211.394 -2.02928C210.143 -2.89271 208.879 -3.7367 207.601 -4.56091L119.766 131.609C119.626 131.519 119.488 131.427 119.352 131.333L211.394 -2.02928ZM203.729 -6.97315C202.426 -7.75699 201.11 -8.5208 199.782 -9.26423L120.622 132.124C120.476 132.042 120.332 131.958 120.189 131.873L203.729 -6.97315ZM195.763 -11.4321C194.412 -12.1334 193.05 -12.814 191.676 -13.4737L121.517 132.589C121.364 132.515 121.214 132.44 121.065 132.363L195.763 -11.4321ZM187.523 -15.3879C186.129 -16.0041 184.724 -16.5991 183.309 -17.1724L122.452 133.002C122.293 132.937 122.135 132.871 121.979 132.802L187.523 -15.3879ZM179.038 -18.8241C177.606 -19.3522 176.164 -19.8585 174.712 -20.3424L123.425 133.361C123.259 133.305 123.096 133.248 122.934 133.188L179.038 -18.8241ZM170.337 -21.7246C168.873 -22.1618 167.4 -22.5764 165.919 -22.9683L124.433 133.662C124.262 133.616 124.093 133.569 123.925 133.519L170.337 -21.7246ZM161.457 -24.0732C159.966 -24.4174 158.468 -24.7385 156.962 -25.0363L125.472 133.901C125.296 133.867 125.122 133.829 124.949 133.789L161.457 -24.0732ZM152.437 -25.8566C150.926 -26.106 149.407 -26.3319 147.883 -26.5339L126.531 134.076C126.353 134.052 126.176 134.026 125.999 133.997L152.437 -25.8566ZM143.316 -27.0656C141.793 -27.2185 140.265 -27.3475 138.733 -27.4523L127.599 134.183C127.42 134.171 127.242 134.156 127.065 134.138L143.316 -27.0656ZM134.137 -27.6937C132.611 -27.7495 131.082 -27.7814 129.55 -27.7891L128.661 134.222C128.485 134.221 128.309 134.218 128.132 134.211L134.137 -27.6937ZM124.961 -27.7397C123.438 -27.6992 121.912 -27.6347 120.384 -27.5459L129.7 134.195C129.53 134.205 129.358 134.212 129.185 134.217L124.961 -27.7397ZM115.831 -27.2099C114.318 -27.0743 112.805 -26.915 111.292 -26.7317L130.696 134.106C130.534 134.125 130.37 134.143 130.204 134.158L115.831 -27.2099ZM106.795 -26.116C106.046 -26.0016 105.298 -25.8814 104.549 -25.7552L131.403 134.004C131.327 134.017 131.249 134.029 131.171 134.041L106.795 -26.116ZM104.549 -25.7552C103.801 -25.629 103.054 -25.4971 102.309 -25.3595L131.634 133.963C131.557 133.977 131.48 133.991 131.403 134.004L104.549 -25.7552ZM97.8587 -24.4667C96.369 -24.1437 94.887 -23.798 93.4133 -23.4299L132.586 133.756C132.425 133.796 132.264 133.834 132.104 133.868L97.8587 -24.4667ZM89.0015 -22.2545C87.5292 -21.8375 86.0663 -21.398 84.6132 -20.9366L133.569 133.477C133.404 133.53 133.239 133.579 133.075 133.626L89.0015 -22.2545ZM80.2613 -19.4785C78.8162 -18.9688 77.3819 -18.4373 75.9589 -17.8843L134.561 133.127C134.397 133.191 134.231 133.253 134.065 133.311L80.2613 -19.4785ZM71.6949 -16.1491C70.2812 -15.5474 68.8798 -14.9245 67.491 -14.2808L135.547 132.708C135.384 132.783 135.221 132.856 135.056 132.926L71.6949 -16.1491ZM63.3493 -12.2807C61.975 -11.5899 60.6142 -10.8786 59.2674 -10.1472L136.507 132.225C136.35 132.31 136.191 132.394 136.03 132.474L63.3493 -12.2807ZM55.2605 -7.88837C53.9349 -7.1132 52.624 -6.31834 51.3281 -5.50432L137.431 131.685C137.281 131.779 137.129 131.872 136.974 131.962L55.2605 -7.88837ZM47.4734 -2.99717C46.2017 -2.14111 44.9455 -1.26626 43.7053 -0.373167L138.31 131.093C138.168 131.195 138.024 131.296 137.877 131.395L47.4734 -2.99717ZM40.0231 2.36755C38.8096 3.30093 37.6124 4.25219 36.432 5.22079L139.139 130.456C139.006 130.565 138.87 130.673 138.731 130.78L40.0231 2.36755ZM32.9369 8.1818C31.7867 9.18775 30.6536 10.2107 29.5379 11.25L139.915 129.778C139.79 129.894 139.663 130.008 139.534 130.122L32.9369 8.1818ZM26.2399 14.4205C25.1574 15.4944 24.0926 16.5842 23.0459 17.6897L140.635 129.063C140.52 129.185 140.402 129.305 140.282 129.425L26.2399 14.4205ZM19.9567 21.0562C18.9448 22.1942 17.9512 23.3474 16.9763 24.5153L141.303 128.313C141.196 128.44 141.087 128.567 140.976 128.692L19.9567 21.0562ZM14.1067 28.0642C13.1687 29.262 12.2496 30.4742 11.3498 31.7003L141.917 127.528C141.819 127.662 141.719 127.794 141.616 127.925L14.1067 28.0642ZM8.70824 35.4198C7.84716 36.6733 7.00557 37.9403 6.18379 39.2204L142.48 126.709C142.39 126.848 142.298 126.986 142.205 127.123L8.70824 35.4198ZM3.77925 43.0978C2.99806 44.4025 2.23691 45.7199 1.49616 47.0496L142.991 125.854C142.91 126 142.827 126.144 142.742 126.286L3.77925 43.0978ZM-0.66361 51.0731C-1.36206 52.4246 -2.03989 53.7879 -2.69674 55.1626L143.452 124.963C143.379 125.115 143.305 125.265 143.228 125.413L-0.66361 51.0731ZM-4.60251 59.3171C-5.21591 60.7115 -5.80808 62.1169 -6.37864 63.5328L143.86 124.035C143.796 124.193 143.731 124.349 143.663 124.504L-4.60251 59.3171ZM-8.02196 67.8028C-8.5473 69.2345 -9.05083 70.6761 -9.53215 72.1274L144.214 123.071C144.159 123.235 144.103 123.397 144.044 123.558L-8.02196 67.8028ZM-10.9065 76.5004C-11.3411 77.9632 -11.7533 79.4349 -12.1427 80.9151L144.509 122.075C144.465 122.244 144.418 122.411 144.369 122.577L-10.9065 76.5004ZM-13.2406 85.3725C-13.5826 86.8616 -13.9016 88.3584 -14.1973 89.8624L144.744 121.052C144.711 121.224 144.674 121.396 144.635 121.566L-13.2406 85.3725ZM-15.0118 94.3806C-15.2594 95.8901 -15.4835 97.406 -15.684 98.9279L144.915 120.009C144.892 120.184 144.867 120.359 144.838 120.532L-15.0118 94.3806ZM-16.2113 103.488C-16.3628 105.007 -16.4907 106.532 -16.5945 108.062L145.02 118.96C145.008 119.135 144.993 119.31 144.976 119.485L-16.2113 103.488ZM-16.8332 112.649C-16.8883 114.172 -16.9196 115.697 -16.9269 117.226L145.058 117.918C145.057 118.091 145.054 118.263 145.047 118.437L-16.8332 112.649ZM-16.8767 121.805C-16.8361 123.325 -16.7717 124.848 -16.6832 126.372L145.031 116.9C145.041 117.067 145.048 117.236 145.052 117.405L-16.8767 121.805ZM-16.3483 130.914C-16.2133 132.424 -16.0547 133.933 -15.8722 135.443L144.944 115.926C144.963 116.084 144.98 116.245 144.995 116.407L-16.3483 130.914ZM-15.2597 139.929C-15.1459 140.676 -15.0263 141.423 -14.9008 142.17L144.844 115.235C144.857 115.31 144.869 115.386 144.881 115.462L-15.2597 139.929ZM-14.9008 142.17C-14.7752 142.917 -14.6441 143.662 -14.5073 144.405L144.805 115.01C144.819 115.085 144.832 115.161 144.844 115.235L-14.9008 142.17ZM-13.6194 148.845C-13.2983 150.331 -12.9546 151.81 -12.5887 153.28L144.603 114.079C144.643 114.237 144.679 114.394 144.713 114.55L-13.6194 148.845ZM-11.4202 157.682C-11.0056 159.151 -10.5687 160.611 -10.11 162.061L144.332 113.117C144.383 113.279 144.431 113.44 144.476 113.601L-11.4202 157.682ZM-8.66057 166.404C-8.15392 167.846 -7.62554 169.277 -7.07584 170.697L143.99 112.144C144.052 112.306 144.112 112.468 144.169 112.631L-8.66057 166.404ZM-5.35059 174.954C-4.75245 176.365 -4.13313 177.764 -3.49309 179.15L143.58 111.177C143.653 111.337 143.724 111.497 143.793 111.659L-5.35059 174.954ZM-1.50418 183.286C-0.817268 184.658 -0.109869 186.017 0.617521 187.362L143.107 110.233C143.19 110.387 143.272 110.544 143.351 110.702L-1.50418 183.286ZM2.86417 191.364C3.63531 192.688 4.42607 193.998 5.23594 195.293L142.577 109.322C142.669 109.471 142.76 109.621 142.849 109.773L2.86417 191.364ZM7.73051 199.144C8.58238 200.415 9.45298 201.671 10.3418 202.91L141.995 108.455C142.096 108.595 142.195 108.738 142.292 108.883L7.73051 199.144ZM13.07 206.592C13.9993 207.805 14.9463 209.002 15.9108 210.183L141.367 107.635C141.475 107.767 141.582 107.901 141.687 108.038L13.07 206.592ZM18.8594 213.678C19.8614 214.829 20.8804 215.963 21.9158 217.079L140.698 106.866C140.813 106.989 140.926 107.115 141.038 107.244L18.8594 213.678ZM25.0747 220.38C26.1448 221.463 27.2309 222.529 28.3327 223.577L139.99 106.149C140.111 106.264 140.23 106.381 140.349 106.501L25.0747 220.38ZM31.6888 226.67C32.8234 227.684 33.9733 228.679 35.1379 229.656L139.245 105.483C139.372 105.59 139.498 105.699 139.622 105.81L31.6888 226.67ZM38.6775 232.531C39.8725 233.471 41.0819 234.392 42.3053 235.294L138.464 104.869C138.597 104.967 138.729 105.067 138.859 105.17L38.6775 232.531ZM46.0172 237.942C47.2683 238.806 48.533 239.65 49.8109 240.474L137.646 104.304C137.785 104.394 137.923 104.486 138.06 104.58L46.0172 237.942ZM53.6824 242.886C54.9854 243.67 56.3012 244.434 57.6294 245.177L136.79 103.789C136.936 103.871 137.08 103.955 137.223 104.041L53.6824 242.886ZM61.6489 247.345C62.9993 248.047 64.3617 248.727 65.7356 249.387L135.895 103.325C136.047 103.398 136.198 103.473 136.347 103.551L61.6489 247.345ZM69.8883 251.301C71.2823 251.917 72.6873 252.512 74.103 253.086L134.96 102.911C135.119 102.976 135.276 103.043 135.432 103.111L69.8883 251.301ZM78.3734 254.737C79.8054 255.265 81.2476 255.772 82.6994 256.256L133.987 102.553C134.152 102.608 134.316 102.665 134.478 102.725L78.3734 254.737ZM87.0746 257.638C88.5384 258.075 90.0113 258.49 91.4928 258.881L132.978 102.252C133.149 102.297 133.319 102.345 133.487 102.395L87.0746 257.638ZM95.9546 259.986C97.4453 260.331 98.9438 260.652 100.45 260.949L131.94 102.012C132.115 102.047 132.289 102.084 132.462 102.124L95.9546 259.986ZM104.974 261.77C106.486 262.019 108.004 262.245 109.529 262.447L130.881 101.837C131.059 101.861 131.236 101.887 131.413 101.916L104.974 261.77ZM114.096 262.979C115.619 263.132 117.146 263.261 118.679 263.366L129.813 101.73C129.991 101.742 130.169 101.757 130.347 101.775L114.096 262.979ZM123.275 263.607C124.8 263.663 126.329 263.695 127.861 263.702L128.75 101.691C128.926 101.692 129.103 101.695 129.279 101.702L123.275 263.607ZM132.45 263.653C133.974 263.612 135.5 263.548 137.027 263.459L127.711 101.718C127.882 101.708 128.054 101.701 128.227 101.697L132.45 263.653ZM141.58 263.123C143.093 262.988 144.606 262.828 146.12 262.645L126.715 101.807C126.877 101.788 127.041 101.77 127.207 101.756L141.58 263.123ZM150.616 262.029C151.365 261.915 152.114 261.795 152.862 261.668L126.008 101.91C126.085 101.897 126.162 101.884 126.24 101.872L150.616 262.029ZM152.862 261.668C153.611 261.542 154.358 261.41 155.103 261.273L125.777 101.95C125.855 101.936 125.932 101.923 126.008 101.91L152.862 261.668ZM159.553 260.38C161.043 260.057 162.525 259.711 163.998 259.343L124.825 102.157C124.987 102.117 125.148 102.079 125.307 102.045L159.553 260.38ZM168.41 258.168C169.882 257.751 171.345 257.311 172.798 256.85L123.843 102.436C124.008 102.383 124.172 102.334 124.337 102.287L168.41 258.168ZM177.15 255.392C178.595 254.882 180.03 254.35 181.453 253.798L122.85 102.786C123.015 102.722 123.18 102.661 123.346 102.602L177.15 255.392ZM185.717 252.062C187.13 251.461 188.532 250.838 189.921 250.194L121.865 103.205C122.027 103.13 122.191 103.057 122.355 102.987L185.717 252.062ZM194.062 248.194C195.437 247.503 196.797 246.792 198.144 246.06L120.904 103.688C121.062 103.603 121.221 103.52 121.381 103.439L194.062 248.194ZM202.151 243.802C203.477 243.026 204.788 242.232 206.084 241.418L119.98 104.228C120.131 104.134 120.283 104.042 120.437 103.951L202.151 243.802ZM209.938 238.91C211.21 238.054 212.466 237.179 213.706 236.286L119.101 104.82C119.243 104.718 119.388 104.617 119.535 104.518L209.938 238.91ZM217.388 233.546C218.602 232.612 219.799 231.661 220.98 230.692L118.272 105.458C118.406 105.348 118.542 105.24 118.68 105.134L217.388 233.546ZM224.475 227.731C225.625 226.725 226.758 225.703 227.874 224.663L117.497 106.135C117.622 106.019 117.749 105.905 117.878 105.792L224.475 227.731ZM231.172 221.493C232.254 220.419 233.319 219.329 234.366 218.223L116.776 106.85C116.892 106.728 117.01 106.608 117.13 106.489L231.172 221.493ZM237.455 214.857C238.467 213.719 239.46 212.566 240.435 211.398L116.109 107.601C116.216 107.473 116.325 107.346 116.436 107.221L237.455 214.857ZM243.305 207.849C244.243 206.651 245.162 205.439 246.062 204.213L115.495 108.385C115.593 108.251 115.693 108.119 115.795 107.989L243.305 207.849ZM248.703 200.493C249.564 199.24 250.406 197.973 251.228 196.693L114.932 109.204C115.021 109.065 115.113 108.927 115.207 108.79L248.703 200.493ZM253.632 192.815C254.414 191.511 255.175 190.193 255.915 188.864L114.42 110.059C114.501 109.913 114.584 109.769 114.67 109.627L253.632 192.815ZM258.075 184.84C258.774 183.489 259.451 182.125 260.108 180.751L113.96 110.95C114.032 110.798 114.107 110.648 114.183 110.5L258.075 184.84ZM262.014 176.596C262.627 175.202 263.22 173.796 263.79 172.38L113.552 111.878C113.615 111.72 113.681 111.564 113.749 111.41L262.014 176.596ZM265.434 168.11C265.959 166.679 266.462 165.237 266.944 163.786L113.198 112.842C113.252 112.678 113.309 112.516 113.368 112.355L265.434 168.11ZM268.318 159.413C268.753 157.95 269.165 156.478 269.554 154.998L112.902 113.838C112.947 113.669 112.993 113.502 113.043 113.336L268.318 159.413ZM270.652 150.541C270.994 149.052 271.313 147.555 271.609 146.051L112.667 114.862C112.701 114.689 112.738 114.517 112.777 114.347L270.652 150.541ZM272.423 141.533C272.671 140.023 272.895 138.507 273.096 136.985L112.496 115.904C112.519 115.729 112.545 115.555 112.574 115.381L272.423 141.533ZM273.623 132.426C273.774 130.906 273.902 129.381 274.006 127.851L112.392 116.953C112.403 116.778 112.418 116.603 112.436 116.428L273.623 132.426ZM274.245 123.264C274.3 121.742 274.331 120.216 274.339 118.687L112.354 117.995C112.355 117.823 112.358 117.65 112.364 117.477L274.245 123.264ZM274.288 114.108C274.248 112.588 274.183 111.065 274.095 109.541L112.381 119.013C112.371 118.846 112.364 118.677 112.359 118.508L274.288 114.108ZM273.76 104.999C273.625 103.49 273.466 101.98 273.284 100.47L112.468 119.987C112.448 119.829 112.432 119.668 112.417 119.506L273.76 104.999ZM272.671 95.9841C272.558 95.2368 272.438 94.4897 272.312 93.7431L112.567 120.678C112.555 120.603 112.542 120.527 112.531 120.451L272.671 95.9841Z" fill="url(#paint0_linear_21_16)" mask="url(#path-1-inside-1_21_16)"/>
<mask id="path-3-inside-2_21_16" fill="white">
<ellipse rx="50.7678" ry="50.8419" transform="matrix(0.986133 -0.165957 0.166071 0.986114 58.9798 151.48)"/>
</mask>
<path d="M148.982 136.334C148.883 135.747 148.779 135.162 148.669 134.579L69.0666 149.559C69.0801 149.631 69.093 149.703 69.1053 149.776L148.982 136.334ZM147.943 131.097C147.678 129.933 147.39 128.778 147.08 127.632L68.8777 148.732C68.9136 148.865 68.9474 149.001 68.9791 149.139L147.943 131.097ZM146.079 124.193C145.722 123.049 145.343 121.915 144.943 120.792L68.6346 147.954C68.6794 148.079 68.7222 148.207 68.7628 148.337L146.079 124.193ZM143.673 117.435C143.226 116.321 142.758 115.219 142.27 114.128L68.3383 147.214C68.392 147.334 68.4437 147.456 68.4932 147.58L143.673 117.435ZM140.736 110.876C140.202 109.799 139.648 108.736 139.075 107.686L67.9872 146.506C68.0502 146.622 68.111 146.739 68.1696 146.857L140.736 110.876ZM137.29 104.565C136.673 103.536 136.038 102.52 135.384 101.52L67.5802 145.827C67.6526 145.938 67.7228 146.05 67.7907 146.163L137.29 104.565ZM133.361 98.5535C132.666 97.5767 131.953 96.6154 131.223 95.6698L67.1164 145.175C67.1984 145.281 67.2781 145.388 67.3555 145.497L133.361 98.5535ZM128.975 92.8744C128.207 91.957 127.422 91.056 126.621 90.1717L66.5963 144.554C66.6875 144.654 66.7765 144.756 66.8633 144.86L128.975 92.8744ZM124.164 87.5653C123.328 86.7124 122.477 85.8767 121.61 85.0585L66.0225 143.968C66.1224 144.062 66.2202 144.158 66.3159 144.256L124.164 87.5653ZM118.96 82.6545C118.061 81.8703 117.147 81.1041 116.219 80.3563L65.3997 143.425C65.5072 143.512 65.613 143.6 65.7169 143.691L118.96 82.6545ZM113.391 78.1674C112.434 77.4562 111.464 76.7638 110.48 76.0905L64.7343 142.93C64.8483 143.008 64.9609 143.089 65.0718 143.171L113.391 78.1674ZM107.49 74.1285C106.48 73.4941 105.458 72.8791 104.424 72.284L64.0343 142.49C64.1535 142.559 64.2714 142.63 64.3881 142.703L107.49 74.1285ZM101.287 70.56C100.231 70.0061 99.1626 69.4723 98.0834 68.9592L63.3083 142.11C63.4311 142.168 63.5531 142.229 63.6741 142.292L101.287 70.56ZM94.817 67.484C93.7191 67.0139 92.6107 66.5648 91.4923 66.137L62.5642 141.791C62.6895 141.839 62.8141 141.889 62.9381 141.942L94.817 67.484ZM88.1137 64.9207C86.9807 64.5378 85.8383 64.1766 84.6873 63.8375L61.8087 141.535C61.9354 141.573 62.0617 141.613 62.1875 141.655L88.1137 64.9207ZM81.2193 62.8901C80.0586 62.5975 78.8899 62.3273 77.7139 62.0799L61.0464 141.343C61.1741 141.37 61.3014 141.4 61.4283 141.432L81.2193 62.8901ZM74.1767 61.4087C72.9953 61.2087 71.8074 61.0316 70.6137 60.8779L60.2779 141.213C60.4069 141.23 60.5352 141.249 60.663 141.271L74.1767 61.4087ZM67.0326 60.4889C65.8408 60.3832 64.6442 60.3009 63.4434 60.2423L59.5013 141.144C59.632 141.151 59.7619 141.16 59.8908 141.171L67.0326 60.4889ZM59.8491 60.138C58.6544 60.1269 57.4567 60.1393 56.2565 60.1756L58.7103 141.137C58.8442 141.133 58.9769 141.132 59.1082 141.133L59.8491 60.138ZM52.672 60.3544C51.4855 60.437 50.2978 60.543 49.1093 60.6725L57.8955 141.194C58.0343 141.179 58.1712 141.167 58.3063 141.157L52.672 60.3544ZM45.5741 61.1274C44.9861 61.2147 44.3983 61.3078 43.8106 61.4067L57.2623 141.282C57.3343 141.27 57.4057 141.259 57.4765 141.248L45.5741 61.1274ZM43.8106 61.4067C43.2229 61.5056 42.6369 61.6101 42.0528 61.7201L57.0489 141.32C57.1192 141.307 57.1904 141.294 57.2623 141.282L43.8106 61.4067ZM38.5634 62.4473C37.3981 62.7139 36.2411 63.0025 35.093 63.3128L56.2351 141.506C56.3659 141.471 56.4992 141.437 56.6353 141.406L38.5634 62.4473ZM31.6475 64.3171C30.5015 64.6756 29.3657 65.0559 28.2405 65.4574L55.4694 141.745C55.5931 141.701 55.7189 141.659 55.8468 141.619L31.6475 64.3171ZM24.8786 66.7324C23.7632 67.1808 22.6595 67.6503 21.568 68.1401L54.7425 142.038C54.8606 141.985 54.9803 141.934 55.1017 141.885L24.8786 66.7324ZM18.3117 69.6799C17.2341 70.2158 16.1697 70.7719 15.1189 71.3476L54.0454 142.384C54.159 142.322 54.2741 142.262 54.3905 142.204L18.3117 69.6799ZM11.9966 73.1396C10.9664 73.7583 9.95065 74.3961 8.94975 75.0524L53.3751 142.787C53.4844 142.715 53.5951 142.646 53.707 142.578L11.9966 73.1396ZM5.98325 77.0827C5.00666 77.7798 4.04558 78.495 3.10041 79.2276L52.7309 143.247C52.8359 143.165 52.9421 143.086 53.0497 143.01L5.98325 77.0827ZM0.306523 81.4828C-0.610158 82.253 -1.51039 83.0402 -2.39377 83.8437L52.1158 143.764C52.2155 143.673 52.3168 143.584 52.4194 143.498L0.306523 81.4828ZM-4.99695 86.3067C-5.84861 87.1447 -6.68299 87.9986 -7.49971 88.8678L51.535 144.335C51.6286 144.236 51.7238 144.138 51.8207 144.043L-4.99695 86.3067ZM-9.89897 91.5235C-10.6814 92.4243 -11.4458 93.3399 -12.1917 94.2698L50.9949 144.957C51.0811 144.85 51.1693 144.744 51.2594 144.64L-9.89897 91.5235ZM-14.3745 97.1024C-15.0835 98.0606 -15.7737 99.0325 -16.4448 100.018L50.5021 145.623C50.58 145.509 50.66 145.396 50.7422 145.285L-14.3745 97.1024ZM-18.3998 103.011C-19.0318 104.022 -19.6443 105.045 -20.2369 106.08L50.0629 146.325C50.1314 146.206 50.2023 146.087 50.2755 145.97L-18.3998 103.011ZM-21.9532 109.219C-22.5045 110.276 -23.0356 111.344 -23.5461 112.424L49.682 147.055C49.7404 146.932 49.8014 146.809 49.8649 146.687L-21.9532 109.219ZM-25.0133 115.69C-25.4807 116.788 -25.9272 117.896 -26.3523 119.015L49.3626 147.805C49.4107 147.679 49.4613 147.553 49.5145 147.428L-25.0133 115.69ZM-27.5609 122.392C-27.9412 123.524 -28.2999 124.666 -28.6364 125.816L49.1063 148.568C49.1438 148.44 49.1839 148.313 49.2265 148.186L-27.5609 122.392ZM-29.5765 129.281C-29.8667 130.441 -30.1346 131.608 -30.3798 132.783L48.9131 149.34C48.9401 149.211 48.9697 149.082 49.0018 148.953L-29.5765 129.281ZM-31.0446 136.315C-31.2426 137.495 -31.4178 138.681 -31.5696 139.873L48.7823 150.12C48.7989 149.989 48.8182 149.858 48.8399 149.729L-31.0446 136.315ZM-31.9536 143.449C-32.0577 144.639 -32.1385 145.833 -32.1958 147.032L48.7133 150.908C48.7197 150.776 48.7286 150.644 48.7401 150.513L-31.9536 143.449ZM-32.2966 150.619C-32.3066 151.812 -32.2932 153.007 -32.2562 154.205L48.7067 151.713C48.7025 151.576 48.701 151.441 48.7021 151.308L-32.2966 150.619ZM-32.0755 157.783C-31.9924 158.967 -31.8861 160.152 -31.7564 161.338L48.765 152.541C48.7495 152.4 48.7371 152.261 48.7275 152.123L-32.0755 157.783ZM-31.3014 164.867C-31.2141 165.453 -31.1211 166.04 -31.0224 166.627L48.8544 153.184C48.8421 153.111 48.8306 153.039 48.8199 152.967L-31.3014 164.867ZM-31.0224 166.627C-30.9236 167.213 -30.8193 167.798 -30.7095 168.381L48.8931 153.401C48.8796 153.33 48.8667 153.257 48.8544 153.184L-31.0224 166.627ZM-29.9838 171.864C-29.7179 173.027 -29.43 174.182 -29.1207 175.328L49.0819 154.228C49.0461 154.095 49.0122 153.96 48.9806 153.821L-29.9838 171.864ZM-28.1197 178.767C-27.7623 179.911 -27.3833 181.045 -26.9833 182.169L49.325 155.007C49.2802 154.881 49.2375 154.753 49.1969 154.623L-28.1197 178.767ZM-25.713 185.526C-25.2663 186.64 -24.7986 187.742 -24.3106 188.832L49.6214 155.746C49.5677 155.626 49.516 155.504 49.4665 155.381L-25.713 185.526ZM-22.7767 192.085C-22.2428 193.161 -21.6888 194.225 -21.1153 195.275L49.9725 156.454C49.9095 156.339 49.8487 156.222 49.79 156.104L-22.7767 192.085ZM-19.33 198.395C-18.7136 199.425 -18.0781 200.44 -17.4241 201.441L50.3795 157.134C50.307 157.023 50.2369 156.911 50.1689 156.797L-19.33 198.395ZM-15.401 204.407C-14.7062 205.384 -13.9933 206.345 -13.2631 207.291L50.8433 157.786C50.7613 157.679 50.6816 157.572 50.6042 157.463L-15.401 204.407ZM-11.015 210.086C-10.2471 211.003 -9.4622 211.904 -8.66096 212.789L51.3634 158.407C51.2722 158.306 51.1832 158.204 51.0964 158.1L-11.015 210.086ZM-6.20469 215.395C-5.36878 216.248 -4.51698 217.084 -3.6499 217.902L51.9371 158.992C51.8373 158.898 51.7395 158.802 51.6438 158.704L-6.20469 215.395ZM-1.00014 220.306C-0.101137 221.09 0.812704 221.856 1.7408 222.604L52.56 159.535C52.4525 159.449 52.3467 159.36 52.2428 159.269L-1.00014 220.306ZM4.56861 224.793C5.52532 225.504 6.49583 226.197 7.47956 226.87L53.2253 160.03C53.1113 159.952 52.9988 159.872 52.8878 159.789L4.56861 224.793ZM10.4699 228.832C11.4793 229.466 12.5014 230.081 13.5357 230.676L53.9253 160.47C53.8062 160.401 53.6882 160.33 53.5715 160.257L10.4699 228.832ZM16.6726 232.4C17.729 232.954 18.797 233.488 19.8762 234.001L54.6514 160.851C54.5286 160.792 54.4066 160.731 54.2856 160.668L16.6726 232.4ZM23.1427 235.476C24.2405 235.946 25.349 236.396 26.4674 236.823L55.3955 161.169C55.2702 161.122 55.1456 161.071 55.0216 161.018L23.1427 235.476ZM29.8459 238.04C30.979 238.423 32.1213 238.784 33.2724 239.123L56.151 161.425C56.0242 161.388 55.8979 161.348 55.7722 161.305L29.8459 238.04ZM36.7404 240.07C37.9011 240.363 39.0698 240.633 40.2458 240.88L56.9133 161.617C56.7855 161.59 56.6582 161.561 56.5314 161.529L36.7404 240.07ZM43.783 241.552C44.9644 241.752 46.1523 241.929 47.346 242.082L57.6817 161.747C57.5528 161.731 57.4244 161.711 57.2966 161.69L43.783 241.552ZM50.9271 242.472C52.1189 242.577 53.3155 242.659 54.5163 242.718L58.4583 161.816C58.3276 161.81 58.1978 161.801 58.0689 161.789L50.9271 242.472ZM58.1105 242.822C59.3052 242.833 60.503 242.821 61.7032 242.785L59.2494 161.823C59.1154 161.827 58.9828 161.829 58.8515 161.827L58.1105 242.822ZM65.2877 242.606C66.4742 242.523 67.6619 242.417 68.8503 242.288L60.0641 161.766C59.9254 161.781 59.7885 161.794 59.6534 161.803L65.2877 242.606ZM72.3856 241.833C72.9735 241.746 73.5614 241.653 74.1491 241.554L60.6973 161.678C60.6254 161.691 60.554 161.702 60.4832 161.712L72.3856 241.833ZM74.1491 241.554C74.7368 241.455 75.3228 241.35 75.9069 241.24L60.9108 161.64C60.8404 161.654 60.7693 161.666 60.6973 161.678L74.1491 241.554ZM79.3963 240.513C80.5616 240.246 81.7186 239.958 82.8667 239.648L61.7245 161.454C61.5938 161.49 61.4605 161.523 61.3244 161.554L79.3963 240.513ZM86.3122 238.643C87.4581 238.285 88.5939 237.904 89.7192 237.503L62.4902 161.215C62.3665 161.259 62.2408 161.301 62.1129 161.341L86.3122 238.643ZM93.0811 236.228C94.1965 235.78 95.3002 235.31 96.3917 234.82L63.2172 160.923C63.0991 160.976 62.9794 161.027 62.858 161.076L93.0811 236.228ZM99.648 233.28C100.726 232.745 101.79 232.188 102.841 231.613L63.9143 160.576C63.8006 160.638 63.6856 160.699 63.5692 160.756L99.648 233.28ZM105.963 229.821C106.993 229.202 108.009 228.564 109.01 227.908L64.5846 160.174C64.4752 160.245 64.3646 160.315 64.2527 160.382L105.963 229.821ZM111.976 225.878C112.953 225.181 113.914 224.465 114.859 223.733L65.2287 159.714C65.1238 159.795 65.0175 159.874 64.91 159.951L111.976 225.878ZM117.653 221.478C118.57 220.707 119.47 219.92 120.353 219.117L65.8439 159.197C65.7441 159.287 65.6429 159.376 65.5402 159.462L117.653 221.478ZM122.957 216.654C123.808 215.816 124.643 214.962 125.459 214.093L66.4247 158.625C66.3311 158.725 66.2358 158.822 66.1389 158.918L122.957 216.654ZM127.859 211.437C128.641 210.536 129.405 209.62 130.151 208.691L66.9648 158.003C66.8786 158.111 66.7903 158.216 66.7002 158.32L127.859 211.437ZM132.334 205.858C133.043 204.9 133.733 203.928 134.404 202.943L67.4575 157.337C67.3797 157.451 67.2997 157.564 67.2175 157.675L132.334 205.858ZM136.359 199.949C136.991 198.939 137.604 197.916 138.197 196.88L67.8968 156.635C67.8283 156.755 67.7574 156.873 67.6842 156.99L136.359 199.949ZM139.913 193.742C140.464 192.685 140.995 191.616 141.506 190.537L68.2777 155.905C68.2192 156.029 68.1582 156.151 68.0948 156.273L139.913 193.742ZM142.973 187.27C143.44 186.172 143.887 185.064 144.312 183.946L68.597 155.155C68.549 155.281 68.4984 155.407 68.4452 155.532L142.973 187.27ZM145.521 180.569C145.901 179.436 146.26 178.295 146.596 177.144L68.8534 154.392C68.8159 154.52 68.7758 154.648 68.7332 154.775L145.521 180.569ZM147.536 173.679C147.826 172.52 148.094 171.352 148.339 170.178L69.0466 153.62C69.0196 153.75 68.99 153.879 68.9579 154.007L147.536 173.679ZM149.004 166.645C149.202 165.465 149.377 164.279 149.529 163.087L69.1774 152.841C69.1607 152.972 69.1415 153.102 69.1197 153.232L149.004 166.645ZM149.913 159.512C150.017 158.322 150.098 157.127 150.155 155.929L69.2464 152.052C69.24 152.185 69.2311 152.317 69.2196 152.448L149.913 159.512ZM150.256 152.341C150.266 151.149 150.253 149.953 150.216 148.755L69.253 151.248C69.2572 151.384 69.2587 151.519 69.2576 151.652L150.256 152.341ZM150.035 145.178C149.952 143.994 149.846 142.808 149.716 141.622L69.1947 150.42C69.2101 150.561 69.2226 150.7 69.2322 150.837L150.035 145.178ZM149.261 138.094C149.174 137.507 149.081 136.92 148.982 136.334L69.1053 149.776C69.1176 149.849 69.1291 149.922 69.1397 149.994L149.261 138.094ZM188.92 129.612C188.778 128.769 188.628 127.928 188.47 127.089L29.2653 157.049C29.2306 156.865 29.1978 156.681 29.1669 156.497L188.92 129.612ZM187.426 122.075C187.043 120.4 186.628 118.735 186.182 117.082L29.7764 159.282C29.6756 158.908 29.5824 158.534 29.4968 158.16L187.426 122.075ZM184.738 112.121C184.222 110.47 183.675 108.833 183.097 107.211L30.4804 161.534C30.3476 161.161 30.2223 160.786 30.1046 160.409L184.738 112.121ZM181.262 102.362C180.617 100.753 179.941 99.1606 179.236 97.5855L31.3723 163.757C31.2089 163.392 31.0525 163.024 30.9034 162.652L181.262 102.362ZM177.02 92.885C176.248 91.3293 175.448 89.7925 174.619 88.2752L32.4433 165.917C32.251 165.565 32.0653 165.208 31.8863 164.847L177.02 92.885ZM172.039 83.7664C171.148 82.2786 170.23 80.8117 169.286 79.3661L33.6784 167.98C33.4601 167.646 33.2476 167.307 33.0413 166.962L172.039 83.7664ZM166.363 75.0815C165.36 73.6708 164.33 72.2826 163.276 70.9173L35.0633 169.927C34.821 169.614 34.5842 169.294 34.3529 168.969L166.363 75.0815ZM160.03 66.8816C158.922 65.5573 157.789 64.2569 156.633 62.9808L36.5841 171.744C36.3203 171.453 36.0613 171.156 35.8075 170.853L160.03 66.8816ZM153.089 59.2199C151.883 57.9894 150.654 56.7838 149.403 55.6037L38.229 173.423C37.9452 173.155 37.666 172.881 37.3916 172.601L153.089 59.2199ZM145.581 52.1363C144.285 51.0053 142.967 49.9004 141.628 48.822L39.9901 174.959C39.6873 174.715 39.3891 174.465 39.0954 174.209L145.581 52.1363ZM137.551 45.6655C136.171 44.64 134.772 43.6415 133.353 42.6706L41.8614 176.35C41.5406 176.131 41.2241 175.905 40.9122 175.673L137.551 45.6655ZM129.041 39.8411C127.585 38.9261 126.111 38.0392 124.619 37.1808L43.8396 177.594C43.5011 177.399 43.167 177.198 42.8373 176.991L129.041 39.8411ZM120.094 34.6939C118.57 33.8946 117.028 33.1245 115.471 32.384L45.9208 178.685C45.5653 178.516 45.2142 178.34 44.8675 178.159L120.094 34.6939ZM110.756 30.2549C109.172 29.5762 107.571 28.9278 105.956 28.3101L48.1002 179.618C47.7288 179.476 47.3616 179.327 46.9986 179.172L110.756 30.2549ZM101.077 26.5533C99.4402 26.0003 97.7898 25.4784 96.1265 24.9885L50.3694 180.384C49.984 180.271 49.6022 180.15 49.2244 180.023L101.077 26.5533ZM91.1148 23.6194C89.4371 23.1965 87.7478 22.8059 86.0476 22.4483L52.7127 180.975C52.3162 180.892 51.9229 180.801 51.5328 180.702L91.1148 23.6194ZM80.9336 21.4778C79.2253 21.1886 77.5077 20.9326 75.7816 20.7103L55.1101 181.381C54.7066 181.329 54.3052 181.269 53.9062 181.201L80.9336 21.4778ZM70.6034 20.1477C68.8802 19.995 67.1502 19.876 65.4144 19.7913L57.5303 181.595C57.126 181.576 56.7224 181.548 56.3199 181.512L70.6034 20.1477ZM60.2196 19.6405C58.4932 19.6245 56.7629 19.6425 55.0295 19.6948L59.9372 181.618C59.538 181.63 59.1381 181.634 58.7378 181.63L60.2196 19.6405ZM49.8548 19.953C48.1426 20.0722 46.4295 20.225 44.7162 20.4118L62.2886 181.455C61.9026 181.497 61.5141 181.532 61.1235 181.559L49.8548 19.953ZM39.6229 21.0672C38.7764 21.1928 37.9302 21.3268 37.0847 21.4691L63.9882 181.22C63.8023 181.251 63.6155 181.28 63.4277 181.308L39.6229 21.0672ZM37.0847 21.4691C36.2391 21.6114 35.3958 21.7617 34.5547 21.9201L64.547 181.12C64.3604 181.155 64.1741 181.188 63.9882 181.22L37.0847 21.4691ZM29.5275 22.9679C27.8475 23.3522 26.1787 23.7685 24.5219 24.2163L66.8062 180.602C66.4282 180.705 66.0498 180.799 65.6712 180.886L29.5275 22.9679ZM19.5478 25.6661C17.8929 26.1839 16.252 26.7333 14.6261 27.3134L69.0839 179.889C68.7068 180.024 68.3276 180.151 67.9464 180.27L19.5478 25.6661ZM9.76698 29.1562C8.15458 29.8045 6.55893 30.4831 4.98073 31.1914L71.3297 178.986C70.9611 179.152 70.5889 179.31 70.2133 179.461L9.76698 29.1562ZM0.272286 33.4178C-1.28591 34.1928 -2.82501 34.9969 -4.34436 35.8293L73.5086 177.903C73.1537 178.097 72.7941 178.285 72.4299 178.466L0.272286 33.4178ZM-8.85865 38.4201C-10.348 39.3146 -11.8162 40.2366 -13.2629 41.1852L75.5877 176.654C75.2513 176.875 74.9094 177.089 74.5622 177.298L-8.85865 38.4201ZM-17.55 44.1193C-18.9611 45.1265 -20.3496 46.1598 -21.7148 47.2181L77.5462 175.256C77.231 175.501 76.9099 175.74 76.5829 175.973L-17.55 44.1193ZM-25.7499 50.4751C-27.0736 51.5873 -28.3734 52.7238 -29.6486 53.8838L79.3706 173.724C79.0785 173.989 78.7802 174.25 78.4759 174.506L-25.7499 50.4751ZM-33.4058 57.4386C-34.6348 58.648 -35.8388 59.8801 -37.0171 61.1341L81.0524 172.069C80.7843 172.354 80.5101 172.635 80.2296 172.911L-33.4058 57.4386ZM-40.4782 64.9651C-41.6067 66.2644 -42.7092 67.5851 -43.785 68.9261L82.5881 170.301C82.3446 170.605 82.0947 170.904 81.8386 171.199L-40.4782 64.9651ZM-46.9329 73.0111C-47.9553 74.3928 -48.9506 75.7943 -49.9183 77.2148L83.9756 168.426C83.7568 168.747 83.5318 169.064 83.3005 169.376L-46.9329 73.0111ZM-52.7374 81.5319C-53.6488 82.989 -54.5321 84.4644 -55.3868 85.9573L85.2128 166.448C85.0192 166.786 84.8193 167.12 84.6131 167.45L-52.7374 81.5319ZM-57.8622 90.4845C-58.6575 92.009 -59.4237 93.5503 -60.1602 95.1077L86.296 164.371C86.1285 164.726 85.9544 165.076 85.7739 165.422L-57.8622 90.4845ZM-62.2772 99.8213C-62.9517 101.406 -63.5962 103.005 -64.2098 104.619L87.2201 162.201C87.0796 162.57 86.9323 162.936 86.7784 163.297L-62.2772 99.8213ZM-65.9546 109.495C-66.5037 111.13 -67.0217 112.779 -67.5078 114.44L87.9776 159.945C87.8656 160.328 87.7464 160.707 87.6202 161.082L-65.9546 109.495ZM-68.8657 119.445C-69.2849 121.12 -69.672 122.807 -70.0263 124.504L88.5595 157.619C88.4775 158.012 88.3879 158.402 88.291 158.789L-68.8657 119.445ZM-70.9869 129.608C-71.273 131.313 -71.5261 133.027 -71.7456 134.75L88.9582 155.243C88.9073 155.642 88.8486 156.04 88.7822 156.436L-70.9869 129.608ZM-72.3005 139.917C-72.4508 141.636 -72.5676 143.362 -72.6504 145.093L89.1679 152.847C89.1488 153.247 89.1217 153.646 89.0869 154.045L-72.3005 139.917ZM-72.7959 150.275C-72.8104 151.997 -72.7911 153.723 -72.7377 155.451L89.1881 150.466C89.2003 150.861 89.2048 151.256 89.2015 151.652L-72.7959 150.275ZM-72.477 160.612C-72.3572 162.32 -72.204 164.028 -72.0171 165.737L89.0257 148.142C89.0674 148.524 89.1019 148.908 89.1289 149.294L-72.477 160.612ZM-71.362 170.817C-71.2365 171.661 -71.1028 172.505 -70.9607 173.348L88.7928 146.463C88.8237 146.647 88.853 146.831 88.8806 147.017L-71.362 170.817ZM-70.9607 173.348C-70.8187 174.191 -70.6687 175.032 -70.5107 175.871L88.6943 145.911C88.7291 146.095 88.7619 146.279 88.7928 146.463L-70.9607 173.348ZM-69.466 180.885C-69.083 182.561 -68.6681 184.225 -68.222 185.878L88.1833 143.678C88.2841 144.052 88.3773 144.426 88.4628 144.8L-69.466 180.885ZM-66.778 190.84C-66.2622 192.491 -65.7152 194.128 -65.1375 195.75L87.4792 141.426C87.612 141.799 87.7374 142.174 87.8551 142.551L-66.778 190.84ZM-63.3028 200.598C-62.6574 202.207 -61.9818 203.8 -61.2767 205.375L86.5874 139.203C86.7508 139.568 86.9072 139.936 87.0563 140.308L-63.3028 200.598ZM-59.0601 210.075C-58.2885 211.631 -57.4879 213.168 -56.6592 214.685L85.5164 137.043C85.7087 137.395 85.8944 137.752 86.0734 138.113L-59.0601 210.075ZM-54.0795 219.194C-53.1888 220.682 -52.2707 222.149 -51.3259 223.594L84.2813 134.98C84.4996 135.314 84.7121 135.654 84.9184 135.998L-54.0795 219.194ZM-48.4035 227.879C-47.4001 229.29 -46.3707 230.678 -45.3162 232.043L82.8964 133.033C83.1386 133.347 83.3755 133.666 83.6068 133.991L-48.4035 227.879ZM-42.0707 236.079C-40.9622 237.403 -39.8294 238.703 -38.6731 239.98L81.3756 131.216C81.6394 131.507 81.8983 131.804 82.1521 132.107L-42.0707 236.079ZM-35.1289 243.74C-33.9229 244.971 -32.6941 246.177 -31.4434 247.357L79.7307 129.537C80.0145 129.805 80.2937 130.079 80.568 130.359L-35.1289 243.74ZM-27.6216 250.824C-26.3251 251.955 -25.0072 253.06 -23.6688 254.138L77.9696 128.001C78.2723 128.245 78.5706 128.495 78.8643 128.751L-27.6216 250.824ZM-19.591 257.295C-18.2114 258.32 -16.8119 259.319 -15.3933 260.29L76.0982 126.61C76.4191 126.83 76.7355 127.055 77.0474 127.287L-19.591 257.295ZM-11.0809 263.119C-9.62523 264.034 -8.151 264.921 -6.65904 265.78L74.1201 125.367C74.4586 125.562 74.7927 125.763 75.1223 125.97L-11.0809 263.119ZM-2.13394 268.267C-0.609866 269.066 0.931282 269.836 2.48869 270.576L72.0389 124.276C72.3943 124.445 72.7454 124.62 73.0921 124.802L-2.13394 268.267ZM7.20318 272.705C8.78802 273.384 10.3884 274.033 12.0034 274.65L69.8595 123.343C70.2308 123.485 70.5981 123.633 70.9611 123.789L7.20318 272.705ZM16.8828 276.407C18.5195 276.96 20.1699 277.482 21.8331 277.972L67.5903 122.576C67.9757 122.689 68.3574 122.81 68.7353 122.938L16.8828 276.407ZM26.8449 279.341C28.5225 279.764 30.2119 280.154 31.912 280.512L65.247 121.985C65.6434 122.069 66.0368 122.16 66.4269 122.258L26.8449 279.341ZM37.0261 281.483C38.7344 281.772 40.452 282.028 42.1781 282.25L62.8496 121.58C63.2531 121.632 63.6545 121.691 64.0535 121.759L37.0261 281.483ZM47.3562 282.813C49.0794 282.965 50.8094 283.084 52.5453 283.169L60.4293 121.365C60.8337 121.385 61.2373 121.412 61.6397 121.448L47.3562 282.813ZM57.7401 283.32C59.4665 283.336 61.1968 283.318 62.9301 283.266L58.0224 121.342C58.4216 121.33 58.8216 121.326 59.2219 121.33L57.7401 283.32ZM68.1049 283.007C69.817 282.888 71.5302 282.735 73.2434 282.549L55.671 121.506C56.0571 121.463 56.4456 121.429 56.8362 121.402L68.1049 283.007ZM78.3367 281.893C79.1833 281.768 80.0294 281.634 80.875 281.491L53.9714 121.741C54.1573 121.71 54.3442 121.68 54.532 121.652L78.3367 281.893ZM80.875 281.491C81.7205 281.349 82.5639 281.199 83.405 281.04L53.4127 121.84C53.5993 121.805 53.7855 121.772 53.9714 121.741L80.875 281.491ZM88.4322 279.992C90.1122 279.608 91.781 279.192 93.4378 278.744L51.1534 122.358C51.5314 122.256 51.9099 122.161 52.2885 122.075L88.4322 279.992ZM98.4118 277.294C100.067 276.776 101.708 276.227 103.334 275.647L48.8758 123.071C49.2528 122.937 49.6321 122.81 50.0132 122.69L98.4118 277.294ZM108.193 273.804C109.805 273.156 111.401 272.477 112.979 271.769L46.63 123.974C46.9985 123.809 47.3708 123.65 47.7464 123.499L108.193 273.804ZM117.687 269.543C119.246 268.768 120.785 267.963 122.304 267.131L44.451 125.058C44.806 124.863 45.1656 124.675 45.5298 124.494L117.687 269.543ZM126.818 264.54C128.308 263.646 129.776 262.724 131.223 261.775L42.372 126.306C42.7084 126.086 43.0502 125.871 43.3975 125.662L126.818 264.54ZM135.51 258.841C136.921 257.834 138.309 256.801 139.675 255.742L40.4135 127.704C40.7287 127.46 41.0498 127.221 41.3768 126.987L135.51 258.841ZM143.71 252.485C145.033 251.373 146.333 250.237 147.608 249.077L38.5891 129.237C38.8812 128.971 39.1794 128.71 39.4838 128.455L143.71 252.485ZM151.365 245.522C152.595 244.312 153.798 243.08 154.977 241.826L36.9073 130.891C37.1753 130.606 37.4496 130.325 37.7301 130.049L151.365 245.522ZM158.438 237.995C159.566 236.696 160.669 235.375 161.745 234.034L35.3715 132.659C35.6151 132.356 35.865 132.056 36.121 131.762L158.438 237.995ZM164.893 229.949C165.915 228.568 166.91 227.166 167.878 225.746L33.9841 134.534C34.2029 134.213 34.4279 133.896 34.6592 133.584L164.893 229.949ZM170.697 221.428C171.608 219.971 172.492 218.496 173.346 217.003L32.7469 136.512C32.9405 136.174 33.1404 135.84 33.3466 135.511L170.697 221.428ZM175.822 212.476C176.617 210.951 177.383 209.41 178.12 207.853L31.6636 138.589C31.8312 138.235 32.0053 137.885 32.1857 137.539L175.822 212.476ZM180.237 203.139C180.911 201.555 181.556 199.955 182.169 198.341L30.7396 140.76C30.8801 140.39 31.0274 140.025 31.1813 139.663L180.237 203.139ZM183.914 193.466C184.463 191.831 184.981 190.182 185.467 188.52L29.9821 143.016C30.0941 142.633 30.2133 142.253 30.3394 141.878L183.914 193.466ZM186.825 183.516C187.245 181.84 187.632 180.154 187.986 178.457L29.4001 145.341C29.4822 144.948 29.5718 144.558 29.6687 144.171L186.825 183.516ZM188.947 173.352C189.233 171.647 189.486 169.933 189.705 168.21L29.0014 147.718C29.0524 147.318 29.1111 146.92 29.1775 146.525L188.947 173.352ZM190.26 163.044C190.41 161.324 190.527 159.599 190.61 157.867L28.7918 150.114C28.8109 149.714 28.8379 149.314 28.8728 148.916L190.26 163.044ZM190.756 152.685C190.77 150.963 190.751 149.238 190.697 147.509L28.7715 152.494C28.7593 152.099 28.7549 151.704 28.7582 151.308L190.756 152.685ZM190.437 142.348C190.317 140.64 190.164 138.932 189.977 137.223L28.934 154.818C28.8923 154.437 28.8578 154.053 28.8307 153.667L190.437 142.348ZM189.322 132.144C189.196 131.3 189.062 130.456 188.92 129.612L29.1669 156.497C29.136 156.314 29.1067 156.129 29.0791 155.944L189.322 132.144Z" fill="url(#paint1_linear_21_16)" mask="url(#path-3-inside-2_21_16)"/>
<mask id="path-5-inside-3_21_16" fill="white">
<ellipse rx="50.7678" ry="50.8419" transform="matrix(0.986081 -0.166268 0.165761 0.986166 179.51 59.3965)"/>
</mask>
<path d="M269.508 44.2216C269.409 43.635 269.305 43.0501 269.195 42.4671L189.597 57.4725C189.61 57.5439 189.623 57.6162 189.635 57.6893L269.508 44.2216ZM268.471 38.9842C268.205 37.821 267.918 36.6661 267.609 35.52L189.408 56.6453C189.444 56.7782 189.478 56.9138 189.509 57.0521L268.471 38.9842ZM266.609 32.0805C266.252 30.9365 265.873 29.8025 265.474 28.6791L189.165 55.8666C189.21 55.9924 189.253 56.1203 189.293 56.2503L266.609 32.0805ZM264.204 25.3222C263.758 24.2084 263.291 23.1062 262.803 22.0161L188.869 55.1275C188.923 55.2475 188.974 55.3692 189.024 55.4927L264.204 25.3222ZM261.27 18.7634C260.737 17.6869 260.183 16.6235 259.61 15.5736L188.518 54.4196C188.581 54.5349 188.642 54.6517 188.7 54.7699L261.27 18.7634ZM257.826 12.4535C257.21 11.4239 256.575 10.4086 255.921 9.40806L188.111 53.7399C188.184 53.8507 188.254 53.9628 188.322 54.0763L257.826 12.4535ZM253.899 6.44214C253.205 5.46549 252.492 4.50426 251.762 3.55885L187.648 53.0881C187.73 53.1941 187.809 53.3016 187.887 53.4105L253.899 6.44214ZM249.515 0.763799C248.748 -0.153456 247.963 -1.05435 247.162 -1.93848L187.128 52.4669C187.219 52.5675 187.308 52.6697 187.395 52.7733L249.515 0.763799ZM244.707 -4.54442C243.871 -5.39718 243.02 -6.23273 242.153 -7.05068L186.554 51.8816C186.654 51.9758 186.752 52.0717 186.848 52.1694L244.707 -4.54442ZM239.504 -9.4542C238.606 -10.2382 237.692 -11.0042 236.765 -11.7518L185.932 51.3385C186.039 51.4251 186.145 51.5138 186.249 51.6044L239.504 -9.4542ZM233.938 -13.9401C232.981 -14.651 232.011 -15.3432 231.028 -16.0163L185.267 50.8441C185.381 50.9221 185.493 51.0023 185.604 51.0848L233.938 -13.9401ZM228.038 -17.9776C227.029 -18.6118 226.007 -19.2266 224.973 -19.8214L184.567 50.4042C184.686 50.4727 184.804 50.5437 184.921 50.617L228.038 -17.9776ZM221.837 -21.5446C220.781 -22.0983 219.713 -22.6318 218.634 -23.1447L183.841 50.0236C183.964 50.082 184.086 50.1429 184.207 50.2063L221.837 -21.5446ZM215.369 -24.619C214.271 -25.0888 213.163 -25.5377 212.045 -25.9651L183.097 49.7051C183.222 49.753 183.347 49.8034 183.471 49.8565L215.369 -24.619ZM208.667 -27.1807C207.534 -27.5633 206.392 -27.9242 205.241 -28.2629L182.342 49.4499C182.468 49.4872 182.595 49.5271 182.721 49.5696L208.667 -27.1807ZM201.774 -29.2093C200.613 -29.5016 199.445 -29.7715 198.269 -30.0186L181.58 49.2579C181.707 49.2848 181.835 49.3141 181.961 49.3461L201.774 -29.2093ZM194.732 -30.6888C193.551 -30.8885 192.363 -31.0652 191.17 -31.2186L180.811 49.128C180.94 49.1446 181.069 49.1637 181.196 49.1853L194.732 -30.6888ZM187.589 -31.6066C186.398 -31.7119 185.201 -31.7939 184 -31.8522L180.035 49.0594C180.165 49.0658 180.295 49.0747 180.424 49.0861L187.589 -31.6066ZM180.407 -31.9554C179.212 -31.9661 178.014 -31.9533 176.814 -31.9167L179.244 49.0525C179.378 49.0484 179.51 49.047 179.642 49.0481L180.407 -31.9554ZM173.23 -31.7368C172.044 -31.6538 170.856 -31.5475 169.668 -31.4176L178.429 49.1096C178.568 49.0944 178.705 49.0822 178.84 49.0728L173.23 -31.7368ZM166.133 -30.9616C165.545 -30.8741 164.957 -30.7809 164.369 -30.6818L177.796 49.1977C177.868 49.1855 177.939 49.1742 178.01 49.1637L166.133 -30.9616ZM164.369 -30.6818C163.782 -30.5827 163.196 -30.478 162.612 -30.3679L177.583 49.2358C177.653 49.2225 177.724 49.2098 177.796 49.1977L164.369 -30.6818ZM159.122 -29.6395C157.957 -29.3726 156.8 -29.0835 155.652 -28.7729L176.769 49.422C176.899 49.3866 177.033 49.3532 177.169 49.3221L159.122 -29.6395ZM152.207 -27.7675C151.061 -27.4085 149.925 -27.0279 148.8 -26.626L176.003 49.6617C176.127 49.6175 176.253 49.5753 176.38 49.5353L152.207 -27.7675ZM145.438 -25.3499C144.322 -24.9011 143.219 -24.4313 142.127 -23.941L175.276 49.9541C175.394 49.9011 175.514 49.8501 175.635 49.8012L145.438 -25.3499ZM138.871 -22.4002C137.793 -21.8638 136.728 -21.3074 135.678 -20.7313L174.579 50.301C174.693 50.2387 174.808 50.1786 174.924 50.1207L138.871 -22.4002ZM132.555 -18.9382C131.525 -18.3192 130.509 -17.681 129.508 -17.0243L173.909 50.7039C174.018 50.6321 174.129 50.5626 174.241 50.4954L132.555 -18.9382ZM126.541 -14.9929C125.565 -14.2954 124.603 -13.5799 123.658 -12.8469L173.264 51.164C173.369 51.0826 173.476 51.0035 173.583 50.9267L126.541 -14.9929ZM120.864 -10.5907C119.947 -9.82011 119.047 -9.03256 118.163 -8.22867L172.649 51.6812C172.749 51.5904 172.85 51.5019 172.953 51.4156L120.864 -10.5907ZM115.559 -5.76469C114.708 -4.9263 113.873 -4.07205 113.056 -3.20253L172.068 52.253C172.162 52.1534 172.257 52.0559 172.354 51.9605L115.559 -5.76469ZM110.656 -0.545897C109.874 0.355258 109.109 1.27122 108.363 2.20139L171.528 52.8752C171.614 52.7676 171.703 52.6619 171.793 52.5582L110.656 -0.545897ZM106.18 5.03496C105.47 5.99342 104.78 6.96564 104.109 7.95101L171.035 53.5413C171.113 53.427 171.193 53.3143 171.275 53.2032L106.18 5.03496ZM102.153 10.9457C101.521 11.9564 100.908 12.9797 100.315 14.0152L170.596 54.2437C170.664 54.1241 170.735 54.0056 170.808 53.8885L102.153 10.9457ZM98.5981 17.1549C98.0465 18.212 97.5151 19.2807 97.0044 20.3605L170.215 54.974C170.273 54.8503 170.334 54.7276 170.398 54.6059L98.5981 17.1549ZM95.5364 23.6279C95.0687 24.726 94.6219 25.8345 94.1965 26.9529L169.895 55.724C169.943 55.5976 169.994 55.4719 170.047 55.347L95.5364 23.6279ZM92.9871 30.3307C92.6065 31.4634 92.2475 32.6053 91.9106 33.7558L169.639 56.4874C169.676 56.3592 169.716 56.2315 169.759 56.1044L92.9871 30.3307ZM90.9696 37.2214C90.6791 38.3811 90.4109 39.5487 90.1654 40.7236L169.445 57.2592C169.472 57.1297 169.502 57.0008 169.534 56.8723L90.9696 37.2214ZM89.4995 44.2568C89.3012 45.4367 89.1257 46.6231 88.9735 47.8152L169.314 58.0387C169.331 57.9078 169.35 57.7775 169.372 57.6479L89.4995 44.2568ZM88.5885 51.3913C88.4842 52.5812 88.403 53.7759 88.3453 54.9747L169.245 58.8277C169.251 58.6948 169.26 58.5629 169.272 58.4319L88.5885 51.3913ZM88.2435 58.5627C88.2331 59.7553 88.2461 60.9509 88.2828 62.1489L169.238 59.6319C169.234 59.4957 169.232 59.3608 169.234 59.2273L88.2435 58.5627ZM88.4624 65.7267C88.5451 66.911 88.651 68.0965 88.7804 69.2827L169.296 60.4603C169.281 60.3193 169.268 60.1801 169.259 60.0427L88.4624 65.7267ZM89.2344 72.8112C89.3214 73.398 89.4142 73.9848 89.5128 74.5714L169.385 61.1037C169.373 61.0306 169.362 60.9581 169.351 60.8862L89.2344 72.8112ZM89.5128 74.5714C89.6114 75.158 89.7155 75.7428 89.8251 76.3259L169.424 61.3205C169.41 61.249 169.398 61.1768 169.385 61.1037L89.5128 74.5714ZM90.5497 79.8087C90.8152 80.972 91.1027 82.1269 91.4117 83.273L169.613 62.1477C169.577 62.0148 169.543 61.8792 169.511 61.7409L90.5497 79.8087ZM92.4116 86.7125C92.7686 87.8565 93.1472 88.9904 93.5468 90.1139L169.855 62.9264C169.811 62.8006 169.768 62.6727 169.727 62.5426L92.4116 86.7125ZM94.816 93.4708C95.2623 94.5846 95.7296 95.6868 96.2172 96.7769L170.151 63.6654C170.098 63.5454 170.046 63.4237 169.997 63.3003L94.816 93.4708ZM97.7501 100.03C98.2836 101.106 98.8372 102.169 99.4103 103.219L170.502 64.3734C170.439 64.258 170.379 64.1413 170.32 64.0231L97.7501 100.03ZM101.194 106.339C101.811 107.369 102.446 108.384 103.099 109.385L170.909 65.053C170.837 64.9423 170.767 64.8301 170.699 64.7167L101.194 106.339ZM105.121 112.351C105.816 113.327 106.528 114.289 107.258 115.234L171.373 65.7049C171.291 65.5988 171.211 65.4913 171.134 65.3825L105.121 112.351ZM109.505 118.029C110.273 118.946 111.057 119.847 111.858 120.731L171.893 66.3261C171.801 66.2255 171.712 66.1233 171.626 66.0196L109.505 118.029ZM114.313 123.337C115.149 124.19 116 125.026 116.867 125.844L172.466 66.9113C172.366 66.8172 172.268 66.7212 172.173 66.6236L114.313 123.337ZM119.516 128.247C120.415 129.031 121.328 129.797 122.256 130.545L173.089 67.4545C172.981 67.3678 172.875 67.2792 172.772 67.1886L119.516 128.247ZM125.083 132.733C126.039 133.444 127.009 134.136 127.993 134.809L173.754 67.9489C173.64 67.8709 173.527 67.7906 173.416 67.7082L125.083 132.733ZM130.982 136.771C131.991 137.405 133.013 138.02 134.047 138.614L174.454 68.3887C174.334 68.3202 174.217 68.2493 174.1 68.1759L130.982 136.771ZM137.183 140.338C138.239 140.891 139.307 141.425 140.386 141.938L175.179 68.7693C175.057 68.711 174.935 68.6501 174.814 68.5867L137.183 140.338ZM143.652 143.412C144.749 143.882 145.858 144.331 146.976 144.758L175.923 69.0878C175.798 69.04 175.674 68.9895 175.55 68.9365L143.652 143.412ZM150.354 145.974C151.486 146.356 152.629 146.717 153.779 147.056L176.679 69.343C176.552 69.3057 176.426 69.2659 176.3 69.2234L150.354 145.974ZM157.247 148.002C158.407 148.295 159.576 148.564 160.752 148.812L177.441 69.535C177.313 69.5082 177.186 69.4788 177.059 69.4469L157.247 148.002ZM164.288 149.482C165.469 149.681 166.657 149.858 167.851 150.012L178.209 69.6649C178.08 69.6484 177.952 69.6293 177.824 69.6077L164.288 149.482ZM171.431 150.4C172.623 150.505 173.819 150.587 175.02 150.645L178.986 69.7335C178.855 69.7272 178.725 69.7183 178.596 69.7069L171.431 150.4ZM178.614 150.748C179.808 150.759 181.006 150.746 182.206 150.71L179.777 69.7405C179.643 69.7446 179.51 69.746 179.379 69.7448L178.614 150.748ZM185.79 150.53C186.977 150.447 188.164 150.34 189.353 150.211L180.591 69.6834C180.453 69.6985 180.316 69.7107 180.181 69.7202L185.79 150.53ZM192.888 149.755C193.476 149.667 194.063 149.574 194.651 149.475L181.225 69.5953C181.153 69.6074 181.081 69.6187 181.01 69.6293L192.888 149.755ZM194.651 149.475C195.239 149.376 195.825 149.271 196.409 149.161L181.438 69.5572C181.368 69.5704 181.296 69.5831 181.225 69.5953L194.651 149.475ZM199.898 148.432C201.063 148.165 202.22 147.876 203.368 147.566L182.252 69.371C182.121 69.4064 181.988 69.4397 181.852 69.4709L199.898 148.432ZM206.814 146.56C207.96 146.201 209.096 145.821 210.221 145.419L183.017 69.1313C182.894 69.1755 182.768 69.2176 182.64 69.2577L206.814 146.56ZM213.583 144.143C214.698 143.694 215.802 143.224 216.893 142.734L183.744 68.8388C183.626 68.8919 183.506 68.9429 183.385 68.9917L213.583 144.143ZM220.15 141.193C221.228 140.657 222.292 140.1 223.343 139.524L184.441 68.4919C184.328 68.5542 184.213 68.6144 184.096 68.6723L220.15 141.193ZM226.465 137.731C227.496 137.112 228.511 136.474 229.512 135.817L185.112 68.089C185.002 68.1608 184.892 68.2303 184.78 68.2976L226.465 137.731ZM232.479 133.786C233.456 133.088 234.417 132.373 235.362 131.64L185.756 67.6289C185.651 67.7103 185.545 67.7894 185.437 67.8662L232.479 133.786ZM238.157 129.384C239.074 128.613 239.974 127.826 240.857 127.022L186.371 67.1118C186.272 67.2025 186.17 67.2911 186.068 67.3774L238.157 129.384ZM243.461 124.558C244.313 123.719 245.147 122.865 245.964 121.995L186.952 66.5399C186.859 66.6395 186.763 66.7371 186.666 66.8325L243.461 124.558ZM248.364 119.339C249.147 118.438 249.911 117.522 250.657 116.592L187.492 65.9178C187.406 66.0253 187.318 66.131 187.228 66.2348L248.364 119.339ZM252.841 113.758C253.55 112.8 254.241 111.827 254.912 110.842L187.985 65.2516C187.907 65.3659 187.827 65.4786 187.745 65.5897L252.841 113.758ZM256.867 107.847C257.5 106.837 258.112 105.813 258.705 104.778L188.425 64.5492C188.356 64.6689 188.285 64.7873 188.212 64.9044L256.867 107.847ZM260.422 101.638C260.974 100.581 261.505 99.5123 262.016 98.4325L188.806 63.819C188.747 63.9426 188.686 64.0654 188.623 64.1871L260.422 101.638ZM263.484 95.165C263.952 94.067 264.399 92.9585 264.824 91.8401L189.125 63.0689C189.077 63.1953 189.027 63.321 188.973 63.446L263.484 95.165ZM266.033 88.4622C266.414 87.3295 266.773 86.1877 267.11 85.0371L189.382 62.3056C189.344 62.4338 189.304 62.5614 189.262 62.6885L266.033 88.4622ZM268.051 81.5716C268.341 80.4118 268.61 79.2442 268.855 78.0694L189.575 61.5338C189.548 61.6632 189.519 61.7922 189.486 61.9206L268.051 81.5716ZM269.521 74.5362C269.719 73.3562 269.895 72.1699 270.047 70.9777L189.706 60.7542C189.69 60.8851 189.67 61.0154 189.649 61.145L269.521 74.5362ZM270.432 67.4016C270.536 66.2117 270.618 65.0171 270.675 63.8183L189.776 59.9653C189.769 60.0981 189.76 60.23 189.749 60.361L270.432 67.4016ZM270.777 60.2302C270.787 59.0376 270.774 57.842 270.738 56.644L189.782 59.161C189.787 59.2972 189.788 59.4321 189.787 59.5656L270.777 60.2302ZM270.558 53.0662C270.475 51.882 270.369 50.6964 270.24 49.5103L189.724 58.3327C189.74 58.4737 189.752 58.6129 189.762 58.7502L270.558 53.0662ZM269.786 45.9818C269.699 45.3949 269.606 44.8082 269.508 44.2216L189.635 57.6893C189.647 57.7624 189.659 57.8349 189.67 57.9068L269.786 45.9818ZM309.444 37.4877C309.302 36.6444 309.152 35.8032 308.995 34.9644L149.797 64.9752C149.762 64.7908 149.73 64.6068 149.699 64.4231L309.444 37.4877ZM307.952 29.9503C307.569 28.2746 307.155 26.61 306.709 24.9574L150.308 67.2079C150.207 66.8342 150.114 66.4602 150.028 66.086L307.952 29.9503ZM305.267 19.9956C304.752 18.3446 304.205 16.7076 303.628 15.0853L151.011 69.4603C150.878 69.0873 150.753 68.7122 150.635 68.3352L305.267 19.9956ZM301.795 10.237C301.15 8.62793 300.475 7.03551 299.77 5.46037L151.902 71.6832C151.739 71.3182 151.582 70.9497 151.433 70.5779L301.795 10.237ZM297.555 0.760084C296.784 -0.795554 295.984 -2.33227 295.156 -3.84942L152.972 73.8426C152.78 73.4906 152.594 73.1341 152.415 72.7732L297.555 0.760084ZM292.578 -8.35795C291.688 -9.84563 290.77 -11.3125 289.826 -12.7579L154.207 75.9058C153.988 75.5717 153.776 75.2323 153.57 74.8877L292.578 -8.35795ZM286.905 -17.042C285.902 -18.4526 284.873 -19.8407 283.82 -21.2057L155.591 77.8527C155.349 77.5391 155.112 77.2197 154.881 76.8946L286.905 -17.042ZM280.576 -25.241C279.468 -26.565 278.335 -27.8653 277.179 -29.1412L157.111 79.6695C156.847 79.3784 156.588 79.0812 156.335 78.7781L280.576 -25.241ZM273.637 -32.9013C272.431 -34.1316 271.203 -35.337 269.953 -36.5168L158.755 81.3478C158.471 81.08 158.192 80.8062 157.918 80.5263L273.637 -32.9013ZM266.132 -39.9835C264.836 -41.1142 263.519 -42.2188 262.181 -43.2969L160.515 82.8836C160.213 82.6398 159.915 82.3897 159.621 82.1337L266.132 -39.9835ZM258.104 -46.4525C256.725 -47.4777 255.326 -48.4759 253.908 -49.4465L162.386 84.2742C162.065 84.0547 161.749 83.829 161.437 83.5972L258.104 -46.4525ZM249.597 -52.2749C248.142 -53.1896 246.668 -54.0763 245.176 -54.9343L164.364 85.5171C164.025 85.3224 163.691 85.1214 163.362 84.9143L249.597 -52.2749ZM240.652 -57.4201C239.129 -58.2189 237.588 -58.9887 236.031 -59.7288L166.444 86.6078C166.089 86.4389 165.738 86.2635 165.391 86.0818L240.652 -57.4201ZM231.318 -61.8567C229.733 -62.535 228.133 -63.183 226.518 -63.8003L168.623 87.5402C168.252 87.3983 167.885 87.2496 167.522 87.0942L231.318 -61.8567ZM221.64 -65.5558C220.004 -66.1084 218.354 -66.6298 216.691 -67.1193L170.892 88.3063C170.507 88.1929 170.125 88.0723 169.747 87.9447L221.64 -65.5558ZM211.68 -68.4871C210.003 -68.9095 208.313 -69.2996 206.614 -69.6568L173.235 88.8962C172.839 88.8129 172.445 88.722 172.055 88.6238L211.68 -68.4871ZM201.5 -70.6258C199.792 -70.9146 198.075 -71.1701 196.349 -71.3919L175.632 89.3013C175.229 89.2495 174.827 89.1898 174.428 89.1223L201.5 -70.6258ZM191.172 -71.953C189.449 -72.1052 187.719 -72.2237 185.983 -72.3079L178.052 89.5152C177.648 89.4956 177.244 89.468 176.842 89.4324L191.172 -71.953ZM180.789 -72.4572C179.063 -72.4727 177.333 -72.4542 175.6 -72.4013L180.459 89.537C180.059 89.5492 179.66 89.5535 179.259 89.5499L180.789 -72.4572ZM170.425 -72.1416C168.713 -72.0219 167 -71.8685 165.287 -71.6812L182.81 89.3732C182.424 89.4154 182.035 89.4502 181.645 89.4775L170.425 -72.1416ZM160.194 -71.0242C159.348 -70.8983 158.502 -70.7641 157.656 -70.6215L184.509 89.1374C184.323 89.1687 184.137 89.1984 183.949 89.2263L160.194 -71.0242ZM157.656 -70.6215C156.81 -70.4789 155.967 -70.3283 155.126 -70.1697L185.068 89.0376C184.881 89.0728 184.695 89.1061 184.509 89.1374L157.656 -70.6215ZM150.099 -69.1203C148.419 -68.7354 146.75 -68.3186 145.094 -67.8703L187.327 88.5194C186.949 88.6217 186.571 88.7162 186.192 88.8029L150.099 -69.1203ZM140.12 -66.4189C138.465 -65.9005 136.824 -65.3506 135.198 -64.7699L189.605 87.8055C189.228 87.9402 188.848 88.0672 188.467 88.1866L140.12 -66.4189ZM130.339 -62.9254C128.726 -62.2767 127.131 -61.5974 125.552 -60.8886L191.851 86.9017C191.482 87.0672 191.11 87.2257 190.734 87.3768L130.339 -62.9254ZM120.844 -58.6606C119.286 -57.8851 117.746 -57.0804 116.227 -56.2475L194.03 85.8172C193.675 86.0118 193.315 86.1998 192.951 86.3811L120.844 -58.6606ZM111.712 -53.655C110.223 -52.7601 108.755 -51.8375 107.308 -50.8884L196.109 84.568C195.772 84.7887 195.431 85.0035 195.083 85.2122L111.712 -53.655ZM103.02 -47.9527C101.609 -46.9449 100.22 -45.9112 98.8549 -44.8524L198.068 83.1695C197.752 83.4139 197.431 83.653 197.104 83.8866L103.02 -47.9527ZM94.8192 -41.5938C93.4953 -40.4811 92.1954 -39.3441 90.92 -38.1836L199.892 81.6361C199.6 81.9019 199.302 82.1629 198.997 82.4187L94.8192 -41.5938ZM87.1621 -34.6273C85.9328 -33.4174 84.7286 -32.1848 83.5501 -30.9303L201.574 79.9808C201.306 80.2661 201.032 80.547 200.751 80.8231L87.1621 -34.6273ZM80.0882 -27.0979C78.9593 -25.7981 77.8566 -24.477 76.7806 -23.1355L203.111 78.2121C202.867 78.5159 202.617 78.8153 202.361 79.1102L80.0882 -27.0979ZM73.6317 -19.0492C72.609 -17.667 71.6134 -16.2651 70.6454 -14.8441L204.498 76.3365C204.28 76.6578 204.054 76.9748 203.823 77.2874L73.6317 -19.0492ZM67.8253 -10.5257C66.9136 -9.06825 66.0299 -7.59243 65.1749 -6.09905L205.736 74.358C205.542 74.6962 205.342 75.0302 205.136 75.3599L67.8253 -10.5257ZM62.6983 -1.57065C61.9027 -0.0458341 61.1362 1.49589 60.3993 3.0537L206.82 72.2807C206.652 72.6351 206.478 72.9854 206.297 73.3314L62.6983 -1.57065ZM58.2811 7.7684C57.6061 9.35298 56.9613 10.9529 56.3472 12.5673L207.744 70.1096C207.604 70.4792 207.456 70.8449 207.302 71.2065L58.2811 7.7684ZM54.6012 17.4439C54.0516 19.0793 53.5332 20.7283 53.0467 22.3901L208.502 67.8532C208.39 68.2361 208.271 68.6156 208.145 68.9912L54.6012 17.4439ZM51.6874 27.3959C51.2677 29.0713 50.8802 30.7582 50.5255 32.4558L209.085 65.527C209.003 65.9202 208.913 66.3106 208.816 66.6978L51.6874 27.3959ZM49.5634 37.5612C49.2768 39.2663 49.0232 40.9807 48.8032 42.7035L209.484 63.1505C209.433 63.5502 209.375 63.9479 209.308 64.3435L49.5634 37.5612ZM48.2469 47.871C48.0961 49.5904 47.9788 51.3164 47.8955 53.0482L209.695 60.7542C209.676 61.1543 209.648 61.5538 209.613 61.9522L48.2469 47.871ZM47.7484 58.2305C47.7335 59.9525 47.7522 61.6785 47.8051 63.4074L209.716 58.3734C209.728 58.7681 209.732 59.1636 209.729 59.5596L47.7484 58.2305ZM48.0643 68.5688C48.1835 70.2765 48.3362 71.9851 48.5226 73.6939L209.554 56.0491C209.596 56.4306 209.63 56.8146 209.657 57.2007L48.0643 68.5688ZM49.1761 78.7736C49.3013 79.618 49.4348 80.4619 49.5765 81.3052L209.322 54.3698C209.352 54.5535 209.382 54.7381 209.409 54.9237L49.1761 78.7736ZM49.5765 81.3052C49.7183 82.1486 49.8681 82.9897 50.0257 83.8286L209.223 53.8178C209.258 54.0022 209.291 54.1862 209.322 54.3698L49.5765 81.3052ZM51.0689 88.8427C51.4514 90.5184 51.8657 92.1829 52.3113 93.8356L208.713 51.5851C208.814 51.9587 208.907 52.3328 208.992 52.7069L51.0689 88.8427ZM53.7537 98.7974C54.2689 100.448 54.8154 102.085 55.3925 103.708L208.01 49.3326C208.142 49.7057 208.268 50.0808 208.385 50.4577L53.7537 98.7974ZM57.2256 108.556C57.8704 110.165 58.5455 111.757 59.2501 113.333L207.119 47.1097C207.282 47.4747 207.438 47.8433 207.587 48.2151L57.2256 108.556ZM61.4651 118.033C62.2361 119.589 63.0361 121.125 63.8643 122.642L206.048 44.9504C206.24 45.3023 206.426 45.6588 206.605 46.0198L61.4651 118.033ZM66.4424 127.151C67.3326 128.639 68.2502 130.105 69.1944 131.551L204.814 42.8871C205.032 43.2212 205.245 43.5606 205.451 43.9052L66.4424 127.151ZM72.1152 135.835C73.1181 137.246 74.147 138.634 75.2009 139.999L203.43 40.9403C203.672 41.2539 203.909 41.5733 204.14 41.8983L72.1152 135.835ZM78.4449 144.034C79.5529 145.358 80.6852 146.658 81.841 147.934L201.91 39.1234C202.173 39.4146 202.432 39.7117 202.686 40.0149L78.4449 144.034ZM85.3837 151.694C86.5892 152.925 87.8175 154.13 89.0678 155.31L200.265 37.4452C200.549 37.7129 200.828 37.9868 201.102 38.2667L85.3837 151.694ZM92.8882 158.776C94.1842 159.907 95.5017 161.012 96.8396 162.09L198.505 35.9093C198.808 36.1532 199.106 36.4032 199.399 36.6593L92.8882 158.776ZM100.916 165.245C102.295 166.271 103.694 167.269 105.112 168.239L196.634 34.5187C196.955 34.7382 197.271 34.9639 197.583 35.1957L100.916 165.245ZM109.423 171.068C110.879 171.983 112.353 172.869 113.844 173.727L194.657 33.2759C194.995 33.4706 195.329 33.6715 195.659 33.8786L109.423 171.068ZM118.368 176.213C119.892 177.012 121.432 177.782 122.989 178.522L192.576 32.1852C192.931 32.3541 193.282 32.5295 193.629 32.7112L118.368 176.213ZM127.703 180.65C129.287 181.328 130.887 181.976 132.502 182.593L190.397 31.2527C190.768 31.3946 191.136 31.5434 191.498 31.6987L127.703 180.65ZM137.38 184.349C139.017 184.901 140.667 185.423 142.33 185.912L188.128 30.4866C188.514 30.6001 188.895 30.7207 189.273 30.8483L137.38 184.349ZM147.341 187.28C149.018 187.702 150.707 188.093 152.407 188.45L185.786 29.8968C186.182 29.9801 186.575 30.0709 186.965 30.1692L147.341 187.28ZM157.52 189.419C159.228 189.708 160.945 189.963 162.671 190.185L183.388 29.4916C183.792 29.5435 184.193 29.6032 184.592 29.6706L157.52 189.419ZM167.849 190.746C169.572 190.898 171.302 191.017 173.037 191.101L180.969 29.2777C181.373 29.2974 181.776 29.325 182.179 29.3605L167.849 190.746ZM178.231 191.25C179.958 191.266 181.688 191.247 183.421 191.194L178.562 29.2559C178.961 29.2437 179.361 29.2394 179.761 29.243L178.231 191.25ZM188.595 190.935C190.307 190.815 192.02 190.661 193.733 190.474L176.211 29.4198C176.597 29.3776 176.985 29.3427 177.376 29.3154L188.595 190.935ZM198.826 189.817C199.673 189.691 200.519 189.557 201.364 189.414L174.511 29.6556C174.697 29.6242 174.884 29.5946 175.072 29.5666L198.826 189.817ZM201.364 189.414C202.21 189.272 203.053 189.121 203.894 188.963L173.952 29.7553C174.139 29.7202 174.325 29.6869 174.511 29.6556L201.364 189.414ZM208.921 187.913C210.601 187.528 212.27 187.112 213.927 186.663L171.693 30.2736C172.071 30.1713 172.45 30.0768 172.828 29.9901L208.921 187.913ZM218.901 185.212C220.556 184.693 222.197 184.144 223.823 183.563L169.416 30.9874C169.793 30.8528 170.172 30.7257 170.553 30.6063L218.901 185.212ZM228.682 181.718C230.294 181.07 231.89 180.39 233.468 179.682L167.17 31.8913C167.538 31.7257 167.911 31.5673 168.286 31.4162L228.682 181.718ZM238.177 177.454C239.735 176.678 241.274 175.873 242.793 175.04L164.991 32.9757C165.346 32.7812 165.705 32.5931 166.07 32.4119L238.177 177.454ZM247.308 172.448C248.798 171.553 250.266 170.631 251.713 169.681L162.912 34.225C163.248 34.0042 163.59 33.7894 163.937 33.5808L247.308 172.448ZM256 166.746C257.411 165.738 258.8 164.704 260.166 163.645L160.953 35.6235C161.268 35.3791 161.589 35.1399 161.916 34.9064L256 166.746ZM264.201 160.387C265.525 159.274 266.825 158.137 268.1 156.977L159.128 37.1568C159.42 36.891 159.719 36.6301 160.023 36.3742L264.201 160.387ZM271.858 153.42C273.088 152.21 274.292 150.978 275.47 149.723L157.446 38.8122C157.714 38.5268 157.989 38.246 158.269 37.9699L271.858 153.42ZM278.932 145.891C280.061 144.591 281.164 143.27 282.24 141.928L155.91 40.5809C156.154 40.2771 156.404 39.9777 156.66 39.6828L278.932 145.891ZM285.389 137.842C286.411 136.46 287.407 135.058 288.375 133.637L154.522 42.4565C154.741 42.1352 154.966 41.8182 155.197 41.5056L285.389 137.842ZM291.195 129.319C292.107 127.861 292.991 126.385 293.846 124.892L153.284 44.4349C153.478 44.0967 153.678 43.7627 153.884 43.433L291.195 129.319ZM296.322 120.364C297.118 118.839 297.884 117.297 298.621 115.739L152.201 46.5122C152.368 46.1578 152.542 45.8076 152.723 45.4615L296.322 120.364ZM300.739 111.025C301.414 109.44 302.059 107.84 302.673 106.226L151.276 48.6833C151.417 48.3137 151.564 47.9481 151.718 47.5865L300.739 111.025ZM304.419 101.349C304.969 99.7136 305.487 98.0646 305.974 96.4029L150.518 50.9398C150.63 50.5568 150.749 50.1774 150.876 49.8017L304.419 101.349ZM307.333 91.397C307.753 89.7217 308.14 88.0348 308.495 86.3372L149.935 53.266C150.018 52.8727 150.107 52.4824 150.204 52.0951L307.333 91.397ZM309.457 81.2317C309.744 79.5266 309.997 77.8122 310.217 76.0895L149.536 55.6425C149.587 55.2428 149.646 54.845 149.712 54.4495L309.457 81.2317ZM310.774 70.9219C310.924 69.2026 311.042 67.4765 311.125 65.7447L149.326 58.0388C149.345 57.6386 149.372 57.2392 149.407 56.8407L310.774 70.9219ZM311.272 60.5625C311.287 58.8404 311.268 57.1144 311.215 55.3855L149.305 60.4196C149.293 60.0248 149.288 59.6293 149.292 59.2334L311.272 60.5625ZM310.956 50.2242C310.837 48.5165 310.684 46.8078 310.498 45.0991L149.467 62.7438C149.425 62.3623 149.391 61.9784 149.364 61.5922L310.956 50.2242ZM309.844 40.0193C309.719 39.1749 309.586 38.3311 309.444 37.4877L149.699 64.4231C149.668 64.2395 149.639 64.0548 149.611 63.8693L309.844 40.0193Z" fill="url(#paint2_linear_21_16)" mask="url(#path-5-inside-3_21_16)"/>
<line x1="143.202" y1="182.353" x2="143.202" y2="285.716" stroke="#DD63BD"/>
<line y1="-0.5" x2="103.323" y2="-0.5" transform="matrix(0.499422 0.866359 -0.865691 0.500579 179.129 151.084)" stroke="#DD63BD"/>
<defs>
<linearGradient id="paint0_linear_21_16" x1="117.976" y1="54.1242" x2="140.317" y2="186.626" gradientUnits="userSpaceOnUse">
<stop stop-color="#EF4DB1"/>
<stop offset="0.470732" stop-color="#4BC3FA"/>
<stop offset="1" stop-color="#F355B4"/>
</linearGradient>
<linearGradient id="paint1_linear_21_16" x1="50.5365" y1="101.344" x2="68.0524" y2="205.426" gradientUnits="userSpaceOnUse">
<stop stop-color="#EF4DB1"/>
<stop offset="0.470732" stop-color="#4BC3FA"/>
<stop offset="1" stop-color="#F355B4"/>
</linearGradient>
<linearGradient id="paint2_linear_21_16" x1="171.083" y1="9.25795" x2="188.631" y2="113.334" gradientUnits="userSpaceOnUse">
<stop stop-color="#EF4DB1"/>
<stop offset="0.470732" stop-color="#4BC3FA"/>
<stop offset="1" stop-color="#F355B4"/>
</linearGradient>
</defs>
</svg>
