<svg width="35" height="29" viewBox="0 0 35 29" fill="none" xmlns="http://www.w3.org/2000/svg">
<path d="M32.4093 0.00270129C31.9569 0.0221084 31.5309 0.143403 31.1522 0.279252H31.147C30.763 0.419954 28.9379 1.12831 26.1661 2.20056C23.3943 3.27765 19.7968 4.67497 16.2255 6.06257C9.09352 8.83294 2.08249 11.5596 2.08249 11.5596L2.16664 11.5305C2.16664 11.5305 1.68276 11.6761 1.17784 11.9963C0.920121 12.1516 0.636103 12.365 0.388903 12.6998C0.141702 13.0346 -0.0581626 13.5489 0.0154723 14.0777C0.136443 14.9753 0.767594 15.5138 1.21992 15.8098C1.6775 16.1106 2.11405 16.2513 2.11405 16.2513H2.12457L8.69905 18.2939C8.99359 19.1672 10.703 24.3489 11.1132 25.5425C11.3551 26.2557 11.5918 26.702 11.8864 27.0417C12.0284 27.2163 12.1967 27.3619 12.3965 27.4783C12.4754 27.522 12.5596 27.556 12.6437 27.5851C12.67 27.5996 12.6963 27.6045 12.7279 27.6093L12.6595 27.5948C12.6806 27.5996 12.6963 27.6142 12.7121 27.619C12.7647 27.6336 12.8015 27.6384 12.8699 27.6481C13.9113 27.9393 14.7476 27.3425 14.7476 27.3425L14.7949 27.3085L18.6765 24.0481L25.1826 28.6525L25.3299 28.7107C26.6868 29.2589 28.0596 28.9533 28.7854 28.4147C29.5165 27.8713 29.8005 27.1775 29.8005 27.1775L29.8479 27.0659L34.876 3.30676C35.018 2.7197 35.0548 2.17145 34.8971 1.63775C34.7393 1.10406 34.3343 0.604322 33.8451 0.337474C33.3507 0.0657741 32.8616 -0.0167058 32.4093 0.00270129ZM32.2725 2.54989C32.2673 2.62751 32.283 2.61781 32.2462 2.76822V2.78277L27.2654 26.2945C27.2444 26.3285 27.2075 26.4012 27.1076 26.474C27.0024 26.5516 26.9183 26.6002 26.4817 26.4401L18.524 20.812L13.7167 24.8535L14.7265 18.9052C14.7265 18.9052 27.1918 8.18765 27.7282 7.72674C28.2647 7.26582 28.0859 7.16878 28.0859 7.16878C28.1227 6.60597 27.2759 7.00382 27.2759 7.00382L10.8818 16.3726L10.8765 16.3483L3.0187 13.9079V13.9031C3.01344 13.9031 3.00292 13.8982 2.99766 13.8982C3.00292 13.8982 3.03974 13.8836 3.03974 13.8836L3.08181 13.8642L3.12389 13.8497C3.12389 13.8497 10.1402 11.123 17.2722 8.35262C20.8434 6.96501 24.441 5.56769 27.2075 4.4906C29.9741 3.41835 32.0201 2.63237 32.1358 2.5887C32.2462 2.54989 32.1936 2.54989 32.2725 2.54989Z" fill="#E1E1E1"/>
</svg>
