<svg width="51" height="51" viewBox="0 0 51 51" fill="none" xmlns="http://www.w3.org/2000/svg">
<path d="M39.8438 3.1875C36.677 3.1875 33.5309 3.6975 30.5267 4.69997L28.5233 5.36775C26.5598 6.02279 24.4386 6.02279 22.4751 5.36775L20.4717 4.69997C17.4691 3.6975 14.323 3.1875 11.1562 3.1875C5.87456 3.1875 1.59375 7.46832 1.59375 12.75C1.59375 18.0317 5.87456 22.3125 11.1562 22.3125H13.2967C17.0276 22.3125 20.6072 20.8303 23.2464 18.1911C24.4912 16.9463 26.5088 16.9463 27.7536 18.1911C30.3928 20.8303 33.9708 22.3125 37.7033 22.3125H39.8438C45.1254 22.3125 49.4062 18.0317 49.4062 12.75C49.4062 7.46832 45.1254 3.1875 39.8438 3.1875ZM17.8404 13.2441C17.0818 13.8083 15.9216 14.3438 14.2545 14.3438C12.5874 14.3438 11.4288 13.8083 10.6686 13.2441C9.79837 12.597 9.79837 11.3093 10.6686 10.6622C11.4288 10.098 12.589 9.5625 14.2545 9.5625C15.92 9.5625 17.0802 10.098 17.8404 10.6622C18.7122 11.3093 18.7122 12.597 17.8404 13.2441ZM40.1529 13.2441C39.3943 13.8083 38.2341 14.3438 36.567 14.3438C34.8999 14.3438 33.7413 13.8083 32.9811 13.2441C32.1109 12.597 32.1109 11.3093 32.9811 10.6622C33.7413 10.098 34.9015 9.5625 36.567 9.5625C38.2325 9.5625 39.3927 10.098 40.1529 10.6622C41.0247 11.3093 41.0247 12.597 40.1529 13.2441ZM2.30456 5.98772L1.61606 1.85672C1.47103 0.98813 2.05753 0.165755 2.92612 0.0223176C3.79472 -0.12112 4.6155 0.463786 4.75894 1.33238L5.10319 3.3931C4.02581 4.09116 3.08231 4.97091 2.30456 5.98772ZM8.46441 23.5636L12.7277 49.1433C12.8727 50.0119 12.2862 50.8327 11.4176 50.9777C10.5522 51.1227 9.72825 50.5378 9.58481 49.6676L4.97888 22.0304C6.02756 22.7333 7.20694 23.2512 8.46441 23.5636Z" fill="#4DEF7A"/>
</svg>
