<svg width="47" height="47" viewBox="0 0 47 47" fill="none" xmlns="http://www.w3.org/2000/svg">
<path d="M35.25 17.625H29.375V13.2188H35.25V17.625ZM8.8125 10.2812H38.1875V27.9062H26.4375V26.4698C26.4375 24.628 25.3962 22.9463 23.7497 22.1238C24.6882 21.1368 25.1847 19.7224 24.8777 18.1934C24.5311 16.4618 23.0932 15.0591 21.3542 14.7565C18.5723 14.2718 16.1562 16.4015 16.1562 19.0938C16.1562 20.2702 16.6248 21.3321 17.3753 22.1223C15.7274 22.9448 14.6875 24.628 14.6875 26.4683V27.9062H8.8125V10.2812ZM27.9062 17.625C27.9062 18.4358 28.5643 19.0938 29.375 19.0938H35.25C36.0607 19.0938 36.7188 18.4358 36.7188 17.625V13.2188C36.7188 12.408 36.0607 11.75 35.25 11.75H29.375C28.5643 11.75 27.9062 12.408 27.9062 13.2188V17.625ZM23.077 23.428L22.397 23.0888C21.8374 23.3472 21.219 23.5 20.5625 23.5C19.906 23.5 19.2876 23.3472 18.728 23.0888L18.048 23.428C16.8612 24.252 16.1562 25.5988 16.1562 27.047V27.9062H24.9688V27.047C24.9688 25.5988 24.2638 24.252 23.077 23.428ZM20.5625 22.0312C22.1825 22.0312 23.5 20.7138 23.5 19.0938C23.5 17.4737 22.1825 16.1562 20.5625 16.1562C18.9425 16.1562 17.625 17.4737 17.625 19.0938C17.625 20.7138 18.9425 22.0312 20.5625 22.0312ZM42.5938 32.3125H4.40625V10.2812C4.40625 7.84753 6.37878 5.875 8.8125 5.875H38.1875C40.6212 5.875 42.5938 7.84753 42.5938 10.2812V32.3125ZM39.6562 10.2812C39.6562 9.4705 38.9982 8.8125 38.1875 8.8125H8.8125C8.00175 8.8125 7.34375 9.4705 7.34375 10.2812V27.9062C7.34375 28.717 8.00175 29.375 8.8125 29.375H38.1875C38.9982 29.375 39.6562 28.717 39.6562 27.9062V10.2812ZM42.5938 33.7812H27.9062C27.9062 34.592 27.2482 35.25 26.4375 35.25H20.5625C19.7518 35.25 19.0938 34.592 19.0938 33.7812H4.40625C2.78328 33.7812 1.46875 35.0958 1.46875 36.7188C1.46875 38.3417 2.78328 39.6562 4.40625 39.6562H42.5938C44.2167 39.6562 45.5312 38.3417 45.5312 36.7188C45.5312 35.0958 44.2167 33.7812 42.5938 33.7812Z" fill="#4DEF7A"/>
</svg>
