<svg width="42" height="42" viewBox="0 0 42 42" fill="none" xmlns="http://www.w3.org/2000/svg">
<path d="M19.6875 3.9375C15.1029 3.9375 10.9436 5.7645 7.875 8.71631V5.25C7.875 3.07519 9.63769 1.3125 11.8125 1.3125H27.5625C29.7373 1.3125 31.5 3.07519 31.5 5.25V8.71631C28.4314 5.7645 24.2721 3.9375 19.6875 3.9375ZM7.875 33.2837V36.75C7.875 38.9248 9.63769 40.6875 11.8125 40.6875H27.5625C29.7373 40.6875 31.5 38.9248 31.5 36.75V33.2837C28.4314 36.2355 24.2721 38.0625 19.6875 38.0625C15.1029 38.0625 10.9436 36.2355 7.875 33.2837ZM38.0625 19.6875V22.3125C38.0625 23.037 37.4745 23.625 36.75 23.625H35.2013C33.9491 31.0708 27.489 36.75 19.6875 36.75C10.9896 36.75 3.9375 29.6979 3.9375 21C3.9375 12.3021 10.9896 5.25 19.6875 5.25C27.489 5.25 33.9491 10.9292 35.2013 18.375H36.75C37.4745 18.375 38.0625 18.963 38.0625 19.6875ZM18.375 9.1875C18.375 9.912 18.963 10.5 19.6875 10.5C20.412 10.5 21 9.912 21 9.1875C21 8.463 20.412 7.875 19.6875 7.875C18.963 7.875 18.375 8.463 18.375 9.1875ZM9.1875 21C9.1875 20.2755 8.5995 19.6875 7.875 19.6875C7.1505 19.6875 6.5625 20.2755 6.5625 21C6.5625 21.7245 7.1505 22.3125 7.875 22.3125C8.5995 22.3125 9.1875 21.7245 9.1875 21ZM21 32.8125C21 32.088 20.412 31.5 19.6875 31.5C18.963 31.5 18.375 32.088 18.375 32.8125C18.375 33.537 18.963 34.125 19.6875 34.125C20.412 34.125 21 33.537 21 32.8125ZM28.0271 28.4104L20.9357 21.3189C20.9619 21.2153 21 21.1129 21 21C21 20.5196 20.7296 20.1167 20.3438 19.8883V13.125C20.3438 12.7627 20.0497 12.4688 19.6875 12.4688C19.3252 12.4688 19.0312 12.7627 19.0312 13.125V19.8883C18.6454 20.1167 18.375 20.5196 18.375 21C18.375 21.7245 18.963 22.3125 19.6875 22.3125C19.8004 22.3125 19.9028 22.2744 20.0078 22.2482L27.0992 29.3396C27.2265 29.4669 27.3945 29.5312 27.5625 29.5312C27.7305 29.5312 27.8985 29.4669 28.0271 29.3396C28.2831 29.0824 28.2831 28.6676 28.0271 28.4104ZM32.8125 21C32.8125 20.2755 32.2245 19.6875 31.5 19.6875C30.7755 19.6875 30.1875 20.2755 30.1875 21C30.1875 21.7245 30.7755 22.3125 31.5 22.3125C32.2245 22.3125 32.8125 21.7245 32.8125 21Z" fill="#4DEF7A"/>
</svg>
