<svg width="46" height="43" viewBox="0 0 46 43" fill="none" xmlns="http://www.w3.org/2000/svg">
<g clip-path="url(#clip0_67_13)">
<path d="M14.7694 24.1545L8.85999 27.3514L6.94181 23.8058L12.8512 20.6088L14.7694 24.1545ZM35.7525 3.63593L44.704 20.1822C45.7635 22.1406 45.0349 24.5866 43.0766 25.6461L14.7114 40.9915C12.7531 42.051 10.3071 41.3224 9.24762 39.3641L0.29611 22.8177C-0.763365 20.8594 -0.0348056 18.4134 1.92357 17.3539L30.2887 2.00847C32.2471 0.948997 34.693 1.67756 35.7525 3.63593ZM23.2848 27.1866L18.5573 29.7442C18.2311 29.9206 18.1096 30.3286 18.2861 30.6548C18.4625 30.981 18.8705 31.1025 19.1967 30.9261L23.9242 28.3685C24.2504 28.192 24.3719 27.784 24.1955 27.4578C24.019 27.1316 23.611 27.0101 23.2848 27.1866ZM7.67811 27.9908C8.03106 28.6432 8.84699 28.8863 9.49938 28.5333L15.4088 25.3364C16.0612 24.9834 16.3042 24.1675 15.9513 23.5151L14.0331 19.9694C13.6801 19.317 12.8642 19.074 12.2118 19.427L6.30242 22.6239C5.65002 22.9769 5.40699 23.7928 5.75993 24.4452L7.67811 27.9908ZM11.1948 34.4912C11.3712 34.8174 11.7792 34.9389 12.1054 34.7624L16.8329 32.2048C17.1591 32.0284 17.2806 31.6204 17.1042 31.2942C16.9277 30.968 16.5197 30.8465 16.1935 31.023L11.466 33.5805C11.1398 33.757 11.0183 34.165 11.1948 34.4912ZM29.0199 27.9034C28.8434 27.5772 28.4354 27.4557 28.1092 27.6322L12.7448 35.9443C12.4186 36.1208 12.2971 36.5287 12.4736 36.8549C12.65 37.1811 13.058 37.3026 13.3842 37.1262L28.7486 28.8141C29.0748 28.6376 29.1964 28.2296 29.0199 27.9034ZM31.2867 23.6215C31.1103 23.2953 30.7023 23.1738 30.3761 23.3502L25.6486 25.9078C25.3224 26.0843 25.2009 26.4923 25.3773 26.8185C25.5538 27.1446 25.9618 27.2662 26.288 27.0897L31.0155 24.5321C31.3417 24.3556 31.4632 23.9477 31.2867 23.6215ZM38.378 19.7851C38.2015 19.4589 37.7936 19.3374 37.4674 19.5139L32.7399 22.0715C32.4137 22.2479 32.2921 22.6559 32.4686 22.9821C32.6451 23.3083 33.0531 23.4298 33.3792 23.2533L38.1068 20.6958C38.433 20.5193 38.5545 20.1113 38.378 19.7851Z" fill="#4DEF7A"/>
</g>
<defs>
<clipPath id="clip0_67_13">
<rect width="46" height="43" fill="white"/>
</clipPath>
</defs>
</svg>
