<svg width="27" height="28" viewBox="0 0 27 28" fill="none" xmlns="http://www.w3.org/2000/svg">
<path d="M0.0595703 19.6129V26.9095C0.0595703 27.2193 0.311021 27.4708 0.620845 27.4708H26.4395C26.7493 27.4708 27.0008 27.2193 27.0008 26.9095V19.6129H0.0595703ZM3.42722 25.2257C2.80757 25.2257 2.30467 24.7228 2.30467 24.1031C2.30467 23.4835 2.80757 22.9806 3.42722 22.9806C4.04687 22.9806 4.54977 23.4835 4.54977 24.1031C4.54977 24.7228 4.04687 25.2257 3.42722 25.2257ZM6.79487 25.2257C6.17522 25.2257 5.67232 24.7228 5.67232 24.1031C5.67232 23.4835 6.17522 22.9806 6.79487 22.9806C7.41451 22.9806 7.91742 23.4835 7.91742 24.1031C7.91742 24.7228 7.41451 25.2257 6.79487 25.2257ZM10.1625 25.2257C9.54287 25.2257 9.03997 24.7228 9.03997 24.1031C9.03997 23.4835 9.54287 22.9806 10.1625 22.9806C10.7822 22.9806 11.2851 23.4835 11.2851 24.1031C11.2851 24.7228 10.7822 25.2257 10.1625 25.2257ZM27.0008 7.82617V18.4904H22.5106V7.26489H26.4395C26.7493 7.26489 27.0008 7.51634 27.0008 7.82617ZM16.8978 18.4904H0.0595703V7.82617C0.0595703 7.51634 0.311021 7.26489 0.620845 7.26489H16.8978V18.4904Z" fill="#4DEF7A"/>
<path d="M0.0595703 19.6129V26.9095C0.0595703 27.2193 0.311021 27.4708 0.620845 27.4708H26.4395C26.7493 27.4708 27.0008 27.2193 27.0008 26.9095V19.6129H0.0595703ZM3.42722 25.2257C2.80757 25.2257 2.30467 24.7228 2.30467 24.1031C2.30467 23.4835 2.80757 22.9806 3.42722 22.9806C4.04687 22.9806 4.54977 23.4835 4.54977 24.1031C4.54977 24.7228 4.04687 25.2257 3.42722 25.2257ZM6.79487 25.2257C6.17522 25.2257 5.67232 24.7228 5.67232 24.1031C5.67232 23.4835 6.17522 22.9806 6.79487 22.9806C7.41451 22.9806 7.91742 23.4835 7.91742 24.1031C7.91742 24.7228 7.41451 25.2257 6.79487 25.2257ZM10.1625 25.2257C9.54287 25.2257 9.03997 24.7228 9.03997 24.1031C9.03997 23.4835 9.54287 22.9806 10.1625 22.9806C10.7822 22.9806 11.2851 23.4835 11.2851 24.1031C11.2851 24.7228 10.7822 25.2257 10.1625 25.2257ZM27.0008 7.82617V18.4904H22.5106V7.26489H26.4395C26.7493 7.26489 27.0008 7.51634 27.0008 7.82617ZM16.8978 18.4904H0.0595703V7.82617C0.0595703 7.51634 0.311021 7.26489 0.620845 7.26489H16.8978V18.4904Z" fill="#4DEF7A"/>
<path d="M0.495485 6.14238C-0.173554 6.14238 -0.156716 5.1826 0.495485 5.03331L20.1917 0.556579C21.6499 0.229917 22.1315 2.41777 20.689 2.74667L5.69064 6.14238H0.495485ZM21.3873 7.26493H18.0196V18.4904H21.3873V7.26493Z" fill="#4DEF7A"/>
</svg>
