<svg width="30" height="23" viewBox="0 0 30 23" fill="none" xmlns="http://www.w3.org/2000/svg">
<path d="M14.1754 22.2652L9.72821 17.7351C9.49177 17.495 9.48324 17.0928 9.7343 16.8674C11.0176 15.712 12.7336 15.1562 14.6251 15.1562C16.5166 15.1562 18.2326 15.712 19.5172 16.8686C19.7683 17.0941 19.7585 17.495 19.5233 17.7363L15.0761 22.2664C14.836 22.537 14.4143 22.537 14.1754 22.2652ZM14.6251 7.84375C10.8958 7.84375 7.50155 9.15269 4.94339 11.4781C4.70208 11.6974 4.68989 12.0765 4.90561 12.3202L7.29192 15.0246C7.51861 15.2806 7.90374 15.2879 8.15602 15.0563C9.86349 13.4927 12.1328 12.7188 14.6251 12.7188C17.1175 12.7188 19.3868 13.4927 21.0955 15.0563C21.3478 15.2867 21.7329 15.2806 21.9596 15.0246L24.3459 12.3202C24.5616 12.0765 24.5494 11.6974 24.3081 11.4781C21.7487 9.15269 18.3545 7.84375 14.6251 7.84375ZM0.152486 6.93334L2.5327 9.63044C2.75452 9.8815 3.13233 9.89612 3.38217 9.67066C6.36202 6.97966 10.3022 5.40625 14.6251 5.40625C18.948 5.40625 22.8883 6.97966 25.8681 9.67188C26.1167 9.89612 26.4958 9.88272 26.7176 9.63166L29.0978 6.93456C29.316 6.68716 29.3001 6.30325 29.0551 6.08266C25.2283 2.63847 20.1778 0.53125 14.6251 0.53125C9.07252 0.53125 4.02202 2.63847 0.196361 6.08144C-0.0486081 6.30203 -0.0656703 6.68594 0.152486 6.93334Z" fill="#4DEF7A"/>
</svg>
