<svg width="29" height="24" viewBox="0 0 29 24" fill="none" xmlns="http://www.w3.org/2000/svg">
<path d="M19.0488 4.96942C24.3086 4.96942 28.5732 9.16676 28.5732 14.3437C28.5732 15.9467 28.1624 17.4536 27.4421 18.7731L28.5672 22.7091C28.622 23.0958 28.2827 23.4262 27.891 23.3688L24.086 22.2896C22.6228 23.1895 20.9001 23.718 19.0488 23.718C13.789 23.718 9.52441 19.5207 9.52441 14.3437C9.52441 9.16676 13.789 4.96942 19.0488 4.96942Z" fill="#FF6AA7"/>
<path d="M19.0488 4.96942C24.3086 4.96942 28.5732 9.16676 28.5732 14.3437C28.5732 15.9467 28.1624 17.4536 27.4421 18.7731L28.5672 22.7091C28.622 23.0958 28.2827 23.4262 27.891 23.3688L24.086 22.2896C22.6228 23.1895 20.9001 23.718 19.0488 23.718C13.789 23.718 9.52441 19.5207 9.52441 14.3437C9.52441 9.16676 13.789 4.96942 19.0488 4.96942Z" fill="#4DEF7A"/>
<path d="M8.33382 14.3437C8.33382 9.4538 11.7376 5.34317 16.3307 4.15498C14.7259 1.81844 12.0102 0.282227 8.9291 0.282227C3.99785 0.282227 0 4.21708 0 9.07062C0 10.5647 0.380975 11.9696 1.04887 13.2012L0.00595287 16.8513C-0.0488123 17.238 0.290493 17.5684 0.682183 17.511L4.19668 16.5138C5.56938 17.361 7.18852 17.859 8.9291 17.859C8.93862 17.859 8.94814 17.8578 8.95886 17.8578C8.56122 16.7564 8.33382 15.5776 8.33382 14.3437Z" fill="#C65584"/>
<path d="M8.33382 14.3437C8.33382 9.4538 11.7376 5.34317 16.3307 4.15498C14.7259 1.81844 12.0102 0.282227 8.9291 0.282227C3.99785 0.282227 0 4.21708 0 9.07062C0 10.5647 0.380975 11.9696 1.04887 13.2012L0.00595287 16.8513C-0.0488123 17.238 0.290493 17.5684 0.682183 17.511L4.19668 16.5138C5.56938 17.361 7.18852 17.859 8.9291 17.859C8.93862 17.859 8.94815 17.8578 8.95886 17.8578C8.56122 16.7564 8.33382 15.5776 8.33382 14.3437Z" fill="#63D081"/>
</svg>
