<svg width="77" height="132" viewBox="0 0 77 132" fill="none" xmlns="http://www.w3.org/2000/svg">
<path d="M60.616 130.656L60.616 129.104L65.096 129.104L65.096 123.584L60.616 123.584L60.616 122.032L71 122.032L71 123.584L66.184 123.584L66.184 129.104L71 129.104L71 130.656L60.616 130.656ZM71.16 117.055C71.16 117.791 71.0907 118.362 70.952 118.767C70.8133 119.162 70.568 119.45 70.216 119.631C69.864 119.802 69.3573 119.887 68.696 119.887C68.1093 119.887 67.656 119.807 67.336 119.647C67.0053 119.477 66.7707 119.194 66.632 118.799C66.4933 118.394 66.424 117.823 66.424 117.087L66.424 114.767L65.192 114.767C64.904 114.767 64.6853 114.826 64.536 114.943C64.376 115.05 64.264 115.237 64.2 115.503C64.136 115.759 64.104 116.138 64.104 116.639C64.104 117.439 64.168 118.325 64.296 119.295L63.24 119.295C63.144 118.239 63.096 117.285 63.096 116.431C63.096 115.535 63.1653 114.874 63.304 114.447C63.432 114.021 63.6613 113.727 63.992 113.567C64.3227 113.407 64.8347 113.327 65.528 113.327L71 113.327L71 114.719L70.264 114.719C70.8613 114.837 71.16 115.615 71.16 117.055ZM70.216 116.815C70.216 116.293 70.1787 115.85 70.104 115.487C70.008 115.007 69.784 114.767 69.432 114.767L67.32 114.767L67.32 116.991C67.32 117.45 67.3573 117.781 67.432 117.983C67.496 118.186 67.624 118.319 67.816 118.383C68.008 118.447 68.3173 118.479 68.744 118.479C69.128 118.479 69.4267 118.442 69.64 118.367C69.8427 118.293 69.992 118.159 70.088 117.967C70.1733 117.775 70.216 117.487 70.216 117.103L70.216 116.815ZM71.016 111.134C71.016 111.294 71 111.449 70.968 111.598L69.736 111.598C69.768 111.449 69.784 111.299 69.784 111.15C69.784 110.691 69.4533 110.329 68.792 110.062C68.12 109.785 66.8827 109.646 65.08 109.646L63.256 109.646L63.256 104.382L71 104.382L71 105.822L64.2 105.822L64.2 108.366L65.32 108.366C67.08 108.366 68.472 108.574 69.496 108.99C70.5093 109.406 71.016 110.121 71.016 111.134ZM63.256 94.9806L71 94.9806L71 96.4206L65.288 96.4206L71 100.453L71 101.893L63.256 101.893L63.256 100.453L69.16 100.453L63.256 96.3406L63.256 94.9806ZM67.512 87.2544C68.248 87.393 68.616 88.241 68.616 89.7984C68.616 90.7904 68.44 91.489 68.088 91.8944C67.7253 92.289 67.16 92.4864 66.392 92.4864L63.256 92.4864L63.256 91.0464L66.296 91.0464C66.7867 91.0464 67.1227 90.9184 67.304 90.6624C67.4853 90.4064 67.576 89.9797 67.576 89.3824C67.576 88.7957 67.5387 88.353 67.464 88.0544C67.3787 87.745 67.2453 87.537 67.064 87.4304C66.8827 87.313 66.6267 87.2544 66.296 87.2544L63.256 87.2544L63.256 85.8144L71 85.8144L71 87.2544L67.512 87.2544ZM63.256 83.3145L63.256 81.8745L66.472 81.8745L66.472 78.0665L63.256 78.0665L63.256 76.6265L71 76.6265L71 78.0665L67.528 78.0665L67.528 81.8745L71 81.8745L71 83.3145L63.256 83.3145ZM63.256 74.127L63.256 72.655L66.056 72.655L66.056 71.151C66.056 70.4897 66.104 69.967 66.2 69.583C66.296 69.1883 66.4667 68.9003 66.712 68.719C66.9467 68.5377 67.2827 68.447 67.72 68.447L69.32 68.447C70.44 68.447 71 69.391 71 71.279L71 74.127L63.256 74.127ZM63.256 67.215L63.256 65.775L71 65.775L71 67.215L63.256 67.215ZM70.072 71.375C70.072 71.0657 70.0293 70.7457 69.944 70.415C69.848 70.0417 69.576 69.855 69.128 69.855L68.152 69.855C67.8427 69.855 67.608 69.8977 67.448 69.983C67.288 70.0577 67.176 70.2017 67.112 70.415C67.048 70.6177 67.016 70.927 67.016 71.343L67.016 72.671L70.072 72.671L70.072 71.375ZM63.256 56.3712L71 56.3712L71 57.8112L65.288 57.8112L71 61.8432L71 63.2832L63.256 63.2832L63.256 61.8432L69.16 61.8432L63.256 57.7312L63.256 56.3712ZM62.152 59.8272C62.152 60.5419 61.9707 61.1072 61.608 61.5232C61.2347 61.9392 60.7387 62.1632 60.12 62.1952L60.12 61.0112C60.952 60.9366 61.368 60.5419 61.368 59.8272C61.368 59.1232 60.952 58.7286 60.12 58.6432L60.12 57.4592C60.728 57.4806 61.2187 57.7046 61.592 58.1312C61.9653 58.5472 62.152 59.1126 62.152 59.8272ZM63.256 50.1895L63.256 48.7495L64.088 48.7495C63.4267 48.6322 63.096 47.7522 63.096 46.1095C63.096 45.1282 63.304 44.3868 63.72 43.8855C64.1253 43.3842 64.648 43.1335 65.288 43.1335L68.472 43.1335C68.9307 43.1335 69.3307 43.2028 69.672 43.3415C70.0133 43.4695 70.28 43.6402 70.472 43.8535C70.6533 44.0455 70.7973 44.3122 70.904 44.6535C71.0107 44.9842 71.08 45.3148 71.112 45.6455C71.144 45.9442 71.16 46.3068 71.16 46.7335C71.16 47.2028 71.1067 47.6348 71 48.0295C70.8827 48.4135 70.7173 48.6535 70.504 48.7495L74.168 48.7495L74.168 50.1895L63.256 50.1895ZM70.184 46.7015C70.184 46.1468 70.1467 45.7255 70.072 45.4375C69.9867 45.1388 69.8373 44.9255 69.624 44.7975C69.4107 44.6695 69.0853 44.6055 68.648 44.6055L65.8 44.6055C65.32 44.6055 64.9627 44.6695 64.728 44.7975C64.4933 44.9255 64.3387 45.1388 64.264 45.4375C64.1787 45.7255 64.136 46.1522 64.136 46.7175C64.136 47.2828 64.1787 47.7148 64.264 48.0135C64.3387 48.3015 64.4933 48.5095 64.728 48.6375C64.9627 48.7655 65.32 48.8295 65.8 48.8295L68.648 48.8295C69.0747 48.8295 69.4 48.7655 69.624 48.6375C69.8373 48.4988 69.9867 48.2802 70.072 47.9815C70.1467 47.6828 70.184 47.2562 70.184 46.7015ZM71.16 38.5399C71.16 39.2759 71.0907 39.8465 70.952 40.2519C70.8133 40.6465 70.568 40.9345 70.216 41.1159C69.864 41.2865 69.3573 41.3719 68.696 41.3719C68.1093 41.3719 67.656 41.2919 67.336 41.1319C67.0053 40.9612 66.7707 40.6785 66.632 40.2839C66.4933 39.8785 66.424 39.3079 66.424 38.5719L66.424 36.2519L65.192 36.2519C64.904 36.2519 64.6853 36.3105 64.536 36.4279C64.376 36.5345 64.264 36.7212 64.2 36.9879C64.136 37.2439 64.104 37.6225 64.104 38.1239C64.104 38.9239 64.168 39.8092 64.296 40.7799L63.24 40.7799C63.144 39.7239 63.096 38.7692 63.096 37.9159C63.096 37.0199 63.1653 36.3585 63.304 35.9319C63.432 35.5052 63.6613 35.2119 63.992 35.0519C64.3227 34.8919 64.8347 34.8119 65.528 34.8119L71 34.8119L71 36.2039L70.264 36.2039C70.8613 36.3212 71.16 37.0999 71.16 38.5399ZM70.216 38.2999C70.216 37.7772 70.1787 37.3345 70.104 36.9719C70.008 36.4919 69.784 36.2519 69.432 36.2519L67.32 36.2519L67.32 38.4759C67.32 38.9345 67.3573 39.2652 67.432 39.4679C67.496 39.6705 67.624 39.8039 67.816 39.8679C68.008 39.9319 68.3173 39.9639 68.744 39.9639C69.128 39.9639 69.4267 39.9265 69.64 39.8519C69.8427 39.7772 69.992 39.6439 70.088 39.4519C70.1733 39.2599 70.216 38.9719 70.216 38.5879L70.216 38.2999ZM71.16 29.1945C71.16 29.7278 71.1493 30.1172 71.128 30.3625C71.1067 30.5972 71.0533 30.8692 70.968 31.1785C70.8827 31.5092 70.7547 31.7652 70.584 31.9465C70.4133 32.1278 70.1627 32.2825 69.832 32.4105C69.512 32.5385 69.112 32.6025 68.632 32.6025L65.784 32.6025C64.92 32.6025 64.3013 32.4372 63.928 32.1065C63.7147 31.9252 63.5547 31.7438 63.448 31.5625C63.3307 31.3705 63.2507 31.1252 63.208 30.8265C63.1653 30.5278 63.1387 30.2612 63.128 30.0265C63.1067 29.7918 63.096 29.4612 63.096 29.0345C63.096 28.2985 63.176 27.5625 63.336 26.8265L64.392 26.8265C64.1787 27.6798 64.072 28.4745 64.072 29.2105C64.072 29.7652 64.1147 30.1758 64.2 30.4425C64.2747 30.6985 64.4187 30.8798 64.632 30.9865C64.8347 31.0825 65.1493 31.1305 65.576 31.1305L68.744 31.1305C69.1387 31.1305 69.432 31.0772 69.624 30.9705C69.816 30.8532 69.9547 30.6505 70.04 30.3625C70.1147 30.0638 70.152 29.6265 70.152 29.0505C70.152 28.2718 70.0507 27.4932 69.848 26.7145L70.936 26.7145C71.0853 27.4398 71.16 28.2665 71.16 29.1945ZM67.512 19.6606C68.248 19.7993 68.616 20.6473 68.616 22.2046C68.616 23.1966 68.44 23.8953 68.088 24.3006C67.7253 24.6953 67.16 24.8926 66.392 24.8926L63.256 24.8926L63.256 23.4526L66.296 23.4526C66.7867 23.4526 67.1227 23.3246 67.304 23.0686C67.4853 22.8126 67.576 22.386 67.576 21.7886C67.576 21.202 67.5387 20.7593 67.464 20.4606C67.3787 20.1513 67.2453 19.9433 67.064 19.8366C66.8827 19.7193 66.6267 19.6606 66.296 19.6606L63.256 19.6606L63.256 18.2206L71 18.2206L71 19.6606L67.512 19.6606ZM71.16 12.4567C71.16 14.8247 70.3707 16.0087 68.792 16.0087L65.736 16.0087C64.7973 16.0087 64.1253 15.7421 63.72 15.2087C63.304 14.6647 63.096 13.7901 63.096 12.5847C63.096 11.4434 63.2933 10.6221 63.688 10.1207C64.0827 9.60875 64.7653 9.35275 65.736 9.35275L67.448 9.35275L67.448 14.5527L68.616 14.5527C69.1493 14.5527 69.5333 14.3661 69.768 13.9927C70.0027 13.6194 70.12 13.0434 70.12 12.2647C70.12 11.5287 69.992 10.6594 69.736 9.65675L70.84 9.65675C71.0533 10.6381 71.16 11.5714 71.16 12.4567ZM66.504 10.7927L65.288 10.7927C64.8187 10.7927 64.4987 10.9367 64.328 11.2247C64.1467 11.5021 64.056 11.9821 64.056 12.6647C64.056 13.3261 64.1467 13.8061 64.328 14.1047C64.4987 14.4034 64.8187 14.5527 65.288 14.5527L66.504 14.5527L66.504 10.7927ZM64.312 5.20625L64.312 7.92625L63.256 7.92625L63.256 1.06225L64.312 1.06225L64.312 3.76625L71 3.76625L71 5.20625L64.312 5.20625Z" fill="#49494A"/>
<path d="M42.9498 66.2719C42.9498 75.0193 37.0013 82.3744 28.9297 84.5203L28.9297 109L47.8139 109L47.8139 24.0211L28.9297 24.0211L28.9297 48.0235C37.0013 50.1694 42.9498 57.5245 42.9498 66.2719Z" fill="#49494A"/>
<path d="M4.57799 66.2719C4.57799 57.4215 10.6673 49.996 18.8842 47.9496L18.8842 24.0211L-3.71455e-06 24.0211L0 109L18.8842 109L18.8842 84.5942C10.6673 82.5478 4.57799 75.1223 4.57799 66.2719Z" fill="#49494A"/>
<path d="M21.9175 65.4818C21.4803 66.4758 21.0477 67.1542 20.6202 67.517C20.193 67.8798 19.6362 68.0613 18.9504 68.0613C18.2746 68.0613 17.7175 67.8922 17.28 67.5542C16.8428 67.2166 16.6242 66.6944 16.6242 65.9886C16.6242 65.2927 16.9189 64.7362 17.4505 64.3187C17.9824 63.901 18.7575 63.6924 19.902 63.6924L19.902 58.7573L19.7993 58.7273C17.9201 58.6975 16.3604 59.2812 15.1472 60.3247C13.9352 61.3685 13.185 62.9345 12.926 64.6512L9.60156 64.6512L9.60156 66.9402L12.8665 66.9402C13.0456 68.9431 13.6794 70.3039 14.7678 71.4372C15.8565 72.5706 17.2405 73.1194 18.9206 73.1194C20.7796 73.1194 22.1882 72.5757 23.1475 71.5073C24.1072 70.4392 25.0534 68.7276 25.9882 66.3814C26.4056 65.4177 26.8303 64.7439 27.2629 64.366C27.6955 63.9888 28.3044 63.7986 29.0892 63.7986C29.7653 63.7986 30.3121 63.982 30.7296 64.3494C31.1467 64.7173 31.3556 65.2587 31.3556 65.9745C31.3556 66.8292 31.1007 67.5248 30.5593 68.0618C30.0177 68.5983 29.0583 68.8664 27.9138 68.8664L27.9138 73.772L27.9876 73.8169C30.2234 73.857 31.9135 73.2701 33.0712 71.9977C34.2294 70.7256 34.8947 69.2292 35.0832 67.2263L38.214 67.2263L38.214 64.9373L35.0981 64.9373C34.909 62.9345 34.2878 61.5642 33.2343 60.4758C32.1805 59.3877 30.7888 58.808 29.0589 58.808C27.24 58.808 25.8408 59.3322 24.8617 60.4157C23.8832 61.4987 22.9012 63.176 21.9175 65.4818Z" fill="#49494A"/>
</svg>
