<svg width="71" height="43" viewBox="0 0 71 43" fill="none" xmlns="http://www.w3.org/2000/svg">
<g opacity="0.5">
<path fill-rule="evenodd" clip-rule="evenodd" d="M35.5 37.2593C37.7047 35.248 39.4646 32.7982 40.6671 30.0669C41.8695 27.3356 42.4878 24.3831 42.4824 21.3989C42.4879 18.4146 41.8696 15.4621 40.6672 12.7308C39.4647 9.99952 37.7047 7.54967 35.5 5.53843C31.73 2.09712 26.729 0 21.241 0C9.51028 0 0 9.58048 0 21.3989C0 33.2169 9.51028 42.7978 21.241 42.7978C26.729 42.7978 31.7304 40.7006 35.5 37.2593Z" fill="#7F7F80"/>
<path fill-rule="evenodd" clip-rule="evenodd" d="M49.7587 0C44.2708 0 39.269 2.09712 35.4998 5.53843C34.7311 6.2408 34.0143 6.99799 33.3552 7.80405H37.6428C38.2314 8.5235 38.7727 9.28043 39.2633 10.07H31.7359C31.2827 10.8002 30.8738 11.5569 30.5112 12.336H40.486C40.8293 13.0735 41.1303 13.8299 41.3873 14.6017H29.6118C29.3649 15.345 29.159 16.1013 28.9951 16.8673H42.0044C42.3229 18.3568 42.4832 19.8757 42.4826 21.3989C42.4826 23.7746 42.097 26.0603 41.3877 28.1957H29.6118C29.8679 28.9677 30.1682 29.7243 30.5112 30.4617H40.486C40.1241 31.2409 39.7157 31.9976 39.2629 32.7277H31.7359C32.2259 33.5173 32.7667 34.2742 33.3548 34.9937H37.6428C36.9845 35.8002 36.2682 36.5575 35.4998 37.2597C39.269 40.701 44.2708 42.7982 49.7587 42.7982C61.4891 42.7982 70.9997 33.2173 70.9997 21.3993C70.9997 9.58049 61.4891 0 49.7587 0Z" fill="#A8A8A9"/>
<path fill-rule="evenodd" clip-rule="evenodd" d="M63.6802 26.0369C63.6802 25.6551 63.9873 25.3454 64.366 25.3454C64.7447 25.3454 65.0517 25.6551 65.0517 26.0369C65.0517 26.4187 64.7447 26.7276 64.366 26.7276C63.9873 26.7276 63.6802 26.4183 63.6802 26.0369ZM64.3656 26.5614C64.6533 26.5614 64.8867 26.3265 64.8867 26.0365C64.8867 25.7458 64.6533 25.5109 64.3656 25.5109C64.0772 25.5109 63.8446 25.7458 63.8446 26.0365C63.8446 26.3265 64.0776 26.5614 64.3656 26.5614ZM64.273 26.3397H64.1322V25.7325H64.3872C64.44 25.7325 64.4946 25.7333 64.5406 25.7636C64.5648 25.7806 64.5845 25.8032 64.5979 25.8296C64.6113 25.8559 64.6181 25.8851 64.6176 25.9147C64.6176 25.9838 64.5781 26.0475 64.5132 26.0718L64.6244 26.3394H64.4688L64.3762 26.0991H64.2734V26.3397V25.9959H64.3512C64.38 25.9959 64.4119 25.9982 64.4366 25.9841C64.4477 25.9763 64.4568 25.9658 64.463 25.9536C64.4692 25.9415 64.4724 25.928 64.4723 25.9143C64.472 25.902 64.4688 25.8898 64.4628 25.879C64.4569 25.8682 64.4484 25.8589 64.4381 25.8521C64.4138 25.838 64.3743 25.8411 64.3485 25.8411H64.2738V26.3397H64.273ZM18.588 26.7276H15.9444L17.5155 18.3877L13.8981 26.7276H11.4875L11.0469 18.4355L9.47087 26.7276H7.07129L9.12173 15.8788H13.2469L13.4651 22.5952L16.3736 15.8788H20.6722L18.588 26.7276ZM48.1325 26.6194C47.4092 26.8194 46.8437 26.9056 46.2327 26.9056C44.8802 26.9056 44.1417 26.2221 44.1417 24.9682C44.1417 24.72 44.169 24.4559 44.2194 24.1766L44.3804 23.314L44.5041 22.6157L45.7295 15.8784H48.3587L47.9776 17.9046H49.3268L48.9643 20.0495H47.6095L46.9128 23.7307C46.8869 23.8509 46.8718 23.9732 46.8676 24.0961C46.8676 24.5519 47.1412 24.75 47.7697 24.75C48.0706 24.75 48.304 24.7227 48.4828 24.6677L48.1325 26.6194ZM55.8538 17.9771C55.6322 17.889 55.5802 17.889 55.5544 17.8818C55.4143 17.8507 55.3396 17.8325 55.3267 17.8302C55.2388 17.8148 55.1498 17.8075 55.0606 17.8082C54.1927 17.8082 53.5669 18.1975 52.7578 19.2408L52.9912 17.9038H50.597L48.9856 26.7272H51.6311C52.5776 21.3311 52.9829 20.3861 54.2519 20.3861C54.3476 20.3861 54.458 20.3937 54.5863 20.4085L54.8952 20.4719L55.8538 17.9771ZM37.6526 20.692C37.6526 21.8066 38.2761 22.5743 39.6894 23.1512C40.7724 23.5944 40.9398 23.7242 40.9398 24.125C40.9398 24.6741 40.4624 24.9219 39.4047 24.9219C38.6063 24.9219 37.8643 24.8138 37.0078 24.5728L36.6408 26.608L36.7592 26.6282L37.2492 26.7185C37.407 26.7458 37.6397 26.772 37.9482 26.7955C38.5842 26.8452 39.0765 26.8688 39.4233 26.8688C42.2453 26.8688 43.5489 25.9371 43.5489 23.9246C43.5489 22.7136 43.0039 22.0036 41.6639 21.4688C40.5425 21.0222 40.4127 20.9231 40.4127 20.5114C40.4127 20.0358 40.8575 19.7914 41.7216 19.7914C42.2472 19.7914 42.9637 19.8412 43.6434 19.9239L44.0244 17.8814C43.3322 17.7865 42.2817 17.7087 41.6711 17.7087C38.6791 17.7091 37.6435 19.0647 37.6526 20.692ZM27.1822 26.7276H24.9852L25.0365 25.813C24.3674 26.5371 23.4756 26.8801 22.2635 26.8801C20.8308 26.8801 19.8476 25.8972 19.8476 24.4703C19.8476 22.3208 21.5557 21.0681 24.4915 21.0681C24.7924 21.0681 25.1746 21.092 25.5685 21.136C25.6505 20.8461 25.6729 20.7208 25.6729 20.563C25.6729 19.9789 25.2118 19.7603 23.9773 19.7603C23.2225 19.7603 22.3693 19.856 21.7803 20.0062L21.4141 20.1L21.1769 20.1569L21.5435 18.1733C22.8615 17.8332 23.7314 17.7046 24.7086 17.7046C26.9806 17.7046 28.1814 18.601 28.1814 20.2928C28.1814 20.7281 28.1415 21.0586 27.9666 22.0407L27.414 25.1709L27.3211 25.7325L27.2535 26.1811L27.2083 26.4881L27.1822 26.7276ZM25.2535 22.7967C25.0575 22.7723 24.8602 22.7602 24.6627 22.7603C23.1644 22.7603 22.4054 23.2115 22.4054 24.1026C22.4054 24.6517 22.7758 25.0024 23.3538 25.0024C24.4315 25.0028 25.208 24.1014 25.2535 22.7967ZM35.8549 26.5371C34.9719 26.7767 34.0609 26.8971 33.146 26.8949C30.1905 26.8927 28.6501 25.5371 28.6501 22.9421C28.6501 19.9133 30.6098 17.6833 33.2701 17.6833C35.4465 17.6833 36.8363 18.9323 36.8363 20.8905C36.8363 21.5406 36.7414 22.1743 36.5118 23.0688H31.2553C31.2393 23.1603 31.2308 23.253 31.2299 23.3459C31.2299 24.3686 32.0136 24.8904 33.549 24.8904C34.4932 24.8904 35.3467 24.7177 36.2943 24.3322L35.8549 26.5371ZM34.4469 21.2871C34.4614 21.1034 34.4689 20.9531 34.4689 20.837C34.4689 20.1205 34.0056 19.7 33.2185 19.7C32.3775 19.7 31.776 20.2639 31.532 21.2817L34.4469 21.2871ZM64.0715 22.7273C63.6757 25.6623 61.6412 26.964 58.9365 26.964C55.9456 26.964 54.7377 25.1363 54.7377 22.8969C54.7377 19.7698 56.7836 17.6511 59.9433 17.6511C62.6859 17.6511 64.1421 19.3934 64.1421 21.6332C64.1421 22.1781 64.1413 22.2142 64.0715 22.7273ZM61.349 21.5983C61.349 20.6753 60.9771 19.804 59.8932 19.804C58.5441 19.804 57.708 21.4104 57.708 22.8286C57.708 24.0248 58.2811 24.8286 59.226 24.8115C59.7991 24.8115 61.0211 24.0252 61.2628 22.6517C61.3194 22.3314 61.349 21.98 61.349 21.5983Z" fill="#E1E1E1"/>
</g>
</svg>
