<svg width="68" height="55" viewBox="0 0 68 55" fill="none" xmlns="http://www.w3.org/2000/svg">
<g opacity="0.5" clip-path="url(#clip0_44_101)">
<path d="M67.139 54.6986V54.84H67.2658C67.2896 54.8404 67.3131 54.8341 67.3338 54.8219C67.3421 54.8159 67.3488 54.8077 67.3532 54.7983C67.3577 54.7888 67.3598 54.7784 67.3593 54.7679C67.3598 54.7576 67.3577 54.7473 67.3532 54.7381C67.3487 54.7289 67.3421 54.721 67.3338 54.7152C67.3134 54.7024 67.2897 54.6961 67.2658 54.6972H67.139V54.6986ZM67.2672 54.5985C67.3216 54.5951 67.3754 54.6113 67.4195 54.6445C67.4372 54.6596 67.4513 54.6787 67.4605 54.7005C67.4698 54.7222 67.474 54.7459 67.4729 54.7696C67.4737 54.7901 67.4703 54.8105 67.4629 54.8294C67.4555 54.8484 67.4443 54.8655 67.4301 54.8796C67.396 54.9103 67.3533 54.9288 67.3083 54.9322L67.4783 55.1337H67.3474L67.191 54.9336H67.1404V55.1337H67.0309V54.5989H67.2689L67.2672 54.5985ZM67.2332 55.3182C67.2906 55.3188 67.3475 55.3067 67.4001 55.2829C67.4509 55.2602 67.497 55.2277 67.5361 55.1871C67.5753 55.1466 67.6066 55.0985 67.6283 55.0457C67.6729 54.9337 67.6729 54.8078 67.6283 54.6958C67.6063 54.6431 67.575 54.5951 67.5361 54.5544C67.497 54.5138 67.4509 54.4813 67.4001 54.4586C67.3472 54.436 67.2904 54.4247 67.2332 54.4254C67.175 54.4248 67.1172 54.4361 67.0632 54.4586C67.0113 54.4809 66.9641 54.5134 66.9241 54.5544C66.864 54.6185 66.8233 54.6996 66.8072 54.7876C66.791 54.8756 66.8001 54.9666 66.8334 55.0492C66.8541 55.1023 66.885 55.1504 66.9241 55.1906C66.9641 55.2316 67.0113 55.2641 67.0632 55.2864C67.1169 55.3103 67.1748 55.3223 67.2332 55.3218V55.3182ZM67.2332 54.2967C67.3826 54.2965 67.5261 54.3575 67.6327 54.4664C67.6841 54.5186 67.725 54.581 67.7531 54.6498C67.7821 54.7205 67.7971 54.7965 67.7971 54.8734C67.7971 54.9502 67.7821 55.0263 67.7531 55.0969C67.7243 55.1654 67.6835 55.2276 67.6327 55.2804C67.5805 55.3324 67.5199 55.3743 67.4535 55.4041C67.3839 55.4349 67.3089 55.4505 67.2332 55.4501C67.1566 55.4506 67.0807 55.435 67.0102 55.4041C66.9431 55.375 66.8818 55.333 66.8296 55.2804C66.7788 55.2257 66.7385 55.1614 66.711 55.0909C66.6819 55.0203 66.6669 54.9442 66.6669 54.8674C66.6669 54.7905 66.6819 54.7145 66.711 54.6438C66.739 54.575 66.7799 54.5126 66.8313 54.4603C66.8828 54.4068 66.9442 54.3647 67.0119 54.3366C67.0824 54.3057 67.1583 54.2901 67.2349 54.2907L67.2332 54.2967ZM15.1724 52.2314C15.1724 51.2116 15.815 50.3739 16.8653 50.3739C17.8689 50.3739 18.5462 51.1755 18.5462 52.2314C18.5462 53.2872 17.8689 54.0888 16.8653 54.0888C15.815 54.0888 15.1724 53.2511 15.1724 52.2314ZM19.6903 52.2314V49.3294H18.4769V50.0363C18.092 49.5139 17.5082 49.1862 16.7143 49.1862C15.1503 49.1862 13.9229 50.4615 13.9229 52.2328C13.9229 54.004 15.1496 55.2793 16.7143 55.2793C17.5079 55.2793 18.092 54.9513 18.4769 54.4292V55.1337H19.689V52.2314H19.6903ZM60.6916 52.2314C60.6916 51.2116 61.3342 50.3739 62.3848 50.3739C63.3895 50.3739 64.0658 51.1755 64.0658 52.2314C64.0658 53.2872 63.3895 54.0888 62.3848 54.0888C61.3345 54.0888 60.6916 53.2511 60.6916 52.2314ZM65.2109 52.2314V47H63.9964V50.0363C63.6115 49.5139 63.0277 49.1862 62.2338 49.1862C60.6698 49.1862 59.4424 50.4615 59.4424 52.2328C59.4424 54.004 60.6692 55.2793 62.2338 55.2793C63.0277 55.2793 63.6115 54.9513 63.9964 54.4292V55.1337H65.2109V52.2314ZM34.751 50.3141C35.533 50.3141 36.0351 50.8238 36.1633 51.7213H33.2679C33.3974 50.8836 33.8867 50.3141 34.7513 50.3141H34.751ZM34.7754 49.183C33.14 49.183 31.9959 50.4202 31.9959 52.2296C31.9959 54.0744 33.1859 55.2762 34.8567 55.2762C35.6972 55.2762 36.4669 55.0581 37.1442 54.4632L36.5496 53.5282C36.0817 53.9171 35.486 54.1351 34.9261 54.1351C34.1441 54.1351 33.4321 53.7587 33.257 52.7142H37.4006C37.4125 52.5573 37.4247 52.3989 37.4247 52.2292C37.4125 50.4205 36.3367 49.1827 34.7748 49.1827L34.7754 49.183ZM49.4254 52.2292C49.4254 51.2095 50.068 50.3718 51.1182 50.3718C52.1219 50.3718 52.7992 51.1734 52.7992 52.2292C52.7992 53.2851 52.1219 54.0867 51.1182 54.0867C50.068 54.0867 49.425 53.249 49.425 52.2292H49.4254ZM53.9429 52.2292V49.3294H52.7302V50.0363C52.3439 49.5139 51.7615 49.1862 50.9676 49.1862C49.4036 49.1862 48.1762 50.4615 48.1762 52.2328C48.1762 54.004 49.4029 55.2793 50.9676 55.2793C51.7615 55.2793 52.3439 54.9513 52.7302 54.4292V55.1337H53.9433V52.2314L53.9429 52.2292ZM42.5727 52.2292C42.5727 53.9892 43.7511 55.2758 45.5497 55.2758C46.3902 55.2758 46.9502 55.0814 47.5557 54.5841L46.9729 53.5643C46.5173 53.9047 46.039 54.0867 45.5109 54.0867C44.5423 54.0744 43.83 53.3462 43.83 52.2292C43.83 51.1123 44.5423 50.3845 45.5109 50.3718C46.0376 50.3718 46.516 50.5538 46.9729 50.8942L47.5557 49.8744C46.9491 49.3771 46.3892 49.1827 45.5497 49.1827C43.7511 49.1827 42.5727 50.469 42.5727 52.2292ZM58.2161 49.1827C57.516 49.1827 57.0601 49.5231 56.7449 50.0328V49.3294H55.5423V55.1305H56.7571V51.8786C56.7571 50.9186 57.1539 50.3852 57.9471 50.3852C58.2069 50.3813 58.4648 50.4309 58.706 50.5312L59.08 49.3421C58.8114 49.2322 58.4612 49.1837 58.2154 49.1837L58.2161 49.1827ZM25.6896 49.7907C25.1058 49.3905 24.3014 49.1837 23.414 49.1837C22.0003 49.1837 21.0901 49.8882 21.0901 51.0409C21.0901 51.9868 21.7677 52.5703 23.0155 52.7524L23.5888 52.8372C24.2541 52.9344 24.5683 53.1165 24.5683 53.4441C24.5683 53.8927 24.1263 54.1486 23.2964 54.1486C22.4559 54.1486 21.8493 53.8693 21.4403 53.5417L20.8701 54.5254C21.5355 55.0351 22.376 55.2783 23.2862 55.2783C24.8978 55.2783 25.8317 54.4893 25.8317 53.3847C25.8317 52.365 25.0967 51.8316 23.8822 51.6495L23.3103 51.5633C22.785 51.4926 22.3641 51.3827 22.3641 50.9939C22.3641 50.5697 22.7609 50.3145 23.4266 50.3145C24.1389 50.3145 24.8284 50.5937 25.1664 50.8118L25.6917 49.7921L25.6896 49.7907ZM41.347 49.1848C40.6469 49.1848 40.191 49.5252 39.8771 50.0349V49.3294H38.6746V55.1305H39.888V51.8786C39.888 50.9186 40.2848 50.3852 41.078 50.3852C41.3378 50.3813 41.5957 50.4309 41.8369 50.5312L42.2109 49.3421C41.9423 49.2322 41.5921 49.1837 41.3463 49.1837L41.347 49.1848ZM30.9919 49.3294H29.0077V47.5694H27.781V49.3294H26.6491V50.4824H27.781V53.1288C27.781 54.4748 28.2835 55.2765 29.719 55.2765C30.2456 55.2765 30.8522 55.1068 31.2371 54.828L30.8865 53.7477C30.5244 53.9658 30.1276 54.0758 29.8121 54.0758C29.2056 54.0758 29.0077 53.687 29.0077 53.1048V50.4835H30.9919V49.3294ZM12.8499 55.1319V51.4912C12.8499 50.1201 12.0094 49.1975 10.6545 49.1852C9.94218 49.1728 9.20744 49.4032 8.69302 50.2173C8.30814 49.574 7.70158 49.1852 6.84886 49.1852C6.25284 49.1852 5.67042 49.3672 5.21448 50.0466V49.3294H4V55.1305H5.224V51.9139C5.224 50.9069 5.7612 50.3718 6.5908 50.3718C7.3966 50.3718 7.80426 50.9179 7.80426 51.9012V55.1298H9.03098V51.9132C9.03098 50.9062 9.59096 50.371 10.3964 50.371C11.225 50.371 11.6204 50.9172 11.6204 51.9005V55.1291L12.8499 55.1319Z" fill="#E1E1E1"/>
<path d="M67.3521 35.3903V34.542H67.1396L66.8938 35.1242L66.6493 34.542H66.4362V35.3903H66.5871V34.7512L66.817 35.3027H66.9734L67.2032 34.7498V35.3903H67.3528H67.3521ZM66.004 35.3903V34.6873H66.276V34.5441H65.5811V34.6873H65.8531V35.3903H66.0027H66.004Z" fill="#E1E1E1"/>
<path d="M43.1998 39.0282H24.8105V4.6709H43.2001L43.1998 39.0282Z" fill="#8D8D8E"/>
<path d="M25.976 21.85C25.976 14.8806 29.1149 8.67229 34.0027 4.67136C30.3029 1.63839 25.7267 -0.00770216 21.0151 -0.000464516C9.40848 -0.000464516 0 9.78218 0 21.85C0 33.9179 9.40848 43.7005 21.0151 43.7005C25.7269 43.7078 30.3031 42.0617 34.0031 39.0287C29.1156 35.0285 25.976 28.8198 25.976 21.85Z" fill="#7F7F80"/>
<path d="M68.0087 21.8505C68.0087 33.9183 58.6002 43.701 46.9936 43.701C42.2813 43.7082 37.7045 42.0621 34.0039 39.0292C38.8931 35.0282 42.032 28.8202 42.032 21.8505C42.032 14.8808 38.8931 8.67278 34.0039 4.67184C37.7045 1.63897 42.2811 -0.00708701 46.9933 2.29365e-05C58.5999 2.29365e-05 68.0083 9.78267 68.0083 21.8505" fill="#A8A8A9"/>
</g>
<defs>
<clipPath id="clip0_44_101">
<rect width="68" height="55" fill="white"/>
</clipPath>
</defs>
</svg>
