<svg width="95" height="27" viewBox="0 0 95 27" fill="none" xmlns="http://www.w3.org/2000/svg">
<g opacity="0.5" clip-path="url(#clip0_44_121)">
<path d="M25.6001 0.00439505V0.0161847C25.5884 0.0161847 21.8881 0.00439453 20.9014 3.55279C19.9969 6.80646 17.4479 15.7855 17.3774 16.0331H16.6726C16.6726 16.0331 14.0648 6.85362 13.1485 3.541C12.1618 -0.00739517 8.44984 0.00439505 8.44984 0.00439505H0V26.9926H8.45376V10.9638H9.15856L14.0922 26.9925H19.9617L24.8953 10.9756H25.6001V26.9925H34.0539V0.00439505H25.6001ZM56.4824 0.00439505C56.4824 0.00439505 54.0038 0.228378 52.8409 2.8338L46.8539 16.0331H46.1491V0.00439505H37.6954V26.9926H45.6793C45.6793 26.9926 48.2753 26.7568 49.4383 24.1633L55.3078 10.9639H56.0126V26.9926H64.4664V0.00439505H56.4824ZM68.2252 12.2607V26.9926H76.679V18.3908H85.8376C89.8315 18.3908 93.2107 15.8327 94.4676 12.2646H68.2252V12.2607Z" fill="#E1E1E1"/>
<path d="M85.8026 0H67C67.9397 5.13986 71.7808 9.26197 76.7458 10.6059C77.8984 10.9192 79.0874 11.0778 80.2815 11.0775H94.7731C94.9024 10.4645 94.9611 9.83974 94.9611 9.19136C94.9612 4.11425 90.8616 0 85.8026 0Z" fill="#E1E1E1"/>
</g>
<defs>
<clipPath id="clip0_44_121">
<rect width="95" height="27" fill="white"/>
</clipPath>
</defs>
</svg>
