<svg width="84" height="28" viewBox="0 0 84 28" fill="none" xmlns="http://www.w3.org/2000/svg">
<g opacity="0.5">
<path d="M36.4148 26.7972H29.5606L33.8444 0.470422H40.6993L36.4148 26.7972ZM23.7944 0.470422L17.2599 18.5782L16.4866 14.6789L16.4873 14.6803L14.181 2.84085C14.181 2.84085 13.9021 0.470422 10.9296 0.470422H0.126761L0 0.916196C0 0.916196 3.30352 1.60352 7.16972 3.92535L13.1246 26.7979H20.2662L31.1711 0.470422H23.7944ZM77.7063 26.7972H84L78.5127 0.469718H73.0028C70.4585 0.469718 69.8387 2.43169 69.8387 2.43169L59.6162 26.7972H66.7613L68.1901 22.8866H76.9035L77.7063 26.7972ZM70.1641 17.4845L73.7655 7.63239L75.7915 17.4845H70.1641ZM60.1521 6.80141L61.1303 1.14789C61.1303 1.14789 58.112 0 54.9655 0C51.5641 0 43.4866 1.48662 43.4866 8.71549C43.4866 15.5169 52.9669 15.6014 52.9669 19.1739C52.9669 22.7465 44.4634 22.1063 41.657 19.8535L40.638 25.7648C40.638 25.7648 43.6986 27.2514 48.3746 27.2514C53.0521 27.2514 60.1085 24.8296 60.1085 18.238C60.1085 11.393 50.543 10.7556 50.543 7.77958C50.5437 4.80282 57.219 5.18521 60.1521 6.80141Z" fill="#E1E1E1"/>
</g>
</svg>
