<svg width="478" height="597" viewBox="0 0 478 597" fill="none" xmlns="http://www.w3.org/2000/svg">
<path d="M67 94.618L71.0148 106.974L71.127 107.32H71.4903H84.4823L73.9715 114.956L73.6776 115.17L73.7899 115.515L77.8046 127.871L67.2939 120.235L67 120.021L66.7061 120.235L56.1954 127.871L60.2101 115.515L60.3224 115.17L60.0285 114.956L49.5177 107.32H62.5097H62.873L62.9852 106.974L67 94.618Z" stroke="white" stroke-opacity="0.22"/>
<path d="M448.737 542.25L448.057 529.276L448.038 528.913L447.687 528.819L435.138 525.457L447.267 520.801L447.606 520.671L447.587 520.308L446.907 507.334L455.083 517.43L455.312 517.713L455.651 517.583L467.78 512.927L460.704 523.823L460.506 524.127L460.735 524.41L468.911 534.506L456.362 531.144L456.011 531.05L455.813 531.354L448.737 542.25Z" stroke="white" stroke-opacity="0.22"/>
<path d="M84.4591 584.745L84.0657 577.237L84.0467 576.874L83.6958 576.78L76.4341 574.835L83.4526 572.14L83.7917 572.01L83.7727 571.648L83.3793 564.14L88.1104 569.982L88.339 570.265L88.6782 570.135L95.6967 567.44L91.6022 573.745L91.4043 574.05L91.6329 574.332L96.3641 580.175L89.1024 578.229L88.7515 578.135L88.5536 578.44L84.4591 584.745Z" stroke="white" stroke-opacity="0.22"/>
<path d="M28.2415 540.735L27.2642 522.087L27.2452 521.724L26.8943 521.63L8.85735 516.797L26.2903 510.105L26.6295 509.975L26.6105 509.612L25.6332 490.965L37.3846 505.477L37.6132 505.759L37.9524 505.629L55.3853 498.937L45.2152 514.598L45.0173 514.902L45.2459 515.184L56.9974 529.696L38.9604 524.863L38.6095 524.769L38.4117 525.074L28.2415 540.735Z" stroke="white" stroke-opacity="0.22"/>
<path d="M127.5 1.61804L134.995 24.6844L135.107 25.0299H135.47H159.724L140.102 39.2857L139.808 39.4992L139.921 39.8447L147.415 62.9111L127.794 48.6553L127.5 48.4418L127.206 48.6553L107.585 62.9111L115.079 39.8447L115.192 39.4992L114.898 39.2857L95.2763 25.0299H119.53H119.893L120.005 24.6844L127.5 1.61804Z" stroke="white" stroke-opacity="0.22"/>
<path d="M341.709 586.206L340.44 561.986L340.421 561.623L340.07 561.529L316.643 555.252L339.286 546.56L339.625 546.43L339.606 546.067L338.337 521.847L353.6 540.695L353.828 540.978L354.167 540.847L376.81 532.156L363.601 552.496L363.403 552.801L363.631 553.083L378.895 571.932L355.468 565.655L355.117 565.561L354.919 565.865L341.709 586.206Z" stroke="white" stroke-opacity="0.22"/>
</svg>
